<svg width="642" height="36" viewBox="0 0 642 36" fill="none" xmlns="http://www.w3.org/2000/svg">
<rect width="642" height="36" rx="18" fill="#111111"/>
<rect x="0.5" y="0.5" width="641" height="35" rx="17.5" stroke="white" stroke-opacity="0.24"/>
<rect x="6" y="6" width="43" height="23" rx="11.5" fill="#FC6D26"/>
<path d="M20.888 13.6H22.544V22.42L16.568 16.792V22H14.912V13.18L20.888 18.808V13.6ZM28.209 22.12C27.609 22.12 27.085 22 26.637 21.76C26.189 21.52 25.841 21.188 25.593 20.764C25.353 20.332 25.233 19.824 25.233 19.24C25.233 18.648 25.353 18.14 25.593 17.716C25.841 17.284 26.189 16.952 26.637 16.72C27.085 16.48 27.613 16.36 28.221 16.36C28.829 16.36 29.345 16.472 29.769 16.696C30.201 16.912 30.529 17.232 30.753 17.656C30.977 18.072 31.089 18.576 31.089 19.168C31.089 19.24 31.085 19.316 31.077 19.396C31.077 19.476 31.073 19.54 31.065 19.588H26.121V18.628H29.709L29.289 19.18C29.321 19.132 29.349 19.068 29.373 18.988C29.405 18.9 29.421 18.828 29.421 18.772C29.421 18.5 29.369 18.268 29.265 18.076C29.169 17.884 29.029 17.732 28.845 17.62C28.661 17.508 28.445 17.452 28.197 17.452C27.893 17.452 27.637 17.52 27.429 17.656C27.229 17.784 27.073 17.98 26.961 18.244C26.857 18.5 26.801 18.82 26.793 19.204C26.793 19.572 26.845 19.884 26.949 20.14C27.061 20.396 27.225 20.592 27.441 20.728C27.657 20.864 27.917 20.932 28.221 20.932C28.565 20.932 28.857 20.868 29.097 20.74C29.345 20.604 29.549 20.404 29.709 20.14L31.065 20.56C30.777 21.08 30.393 21.472 29.913 21.736C29.441 21.992 28.873 22.12 28.209 22.12ZM32.6495 16.48H34.3055L35.5175 19.54L37.0775 16.06L38.6975 19.552L39.9215 16.48H41.5655L38.8655 22.372L37.0895 18.856L35.3615 22.372L32.6495 16.48Z" fill="black"/>
<path d="M58.975 17.527V16.188H65.969V17.527H64.019L63.694 17.475H61.094L60.795 17.527H58.975ZM58.455 20.647V19.308H60.249L60.6 19.36H63.473L63.811 19.308H65.449V20.647H58.455ZM64.084 13.9H65.553L63.343 23H61.874L62.576 20.075L62.719 19.763L63.369 17.046L63.395 16.708L64.084 13.9ZM61.068 13.9H62.55L61.874 16.682L61.731 17.033L61.068 19.763L61.055 20.062L60.34 23H58.858L61.068 13.9ZM70.3037 18.385V17.54H71.7727C72.0414 17.54 72.2754 17.4967 72.4747 17.41C72.674 17.3233 72.8257 17.1977 72.9297 17.033C73.0424 16.8683 73.0987 16.6733 73.0987 16.448C73.0987 16.1013 72.9774 15.837 72.7347 15.655C72.5007 15.473 72.18 15.382 71.7727 15.382H70.7717V21.518H71.9677C72.2797 21.518 72.5614 21.4747 72.8127 21.388C73.064 21.2927 73.259 21.1453 73.3977 20.946C73.545 20.7467 73.6187 20.491 73.6187 20.179C73.6187 19.9537 73.5754 19.763 73.4887 19.607C73.4107 19.4423 73.2937 19.308 73.1377 19.204C72.9904 19.0913 72.817 19.0133 72.6177 18.97C72.4184 18.918 72.2017 18.892 71.9677 18.892H70.3037V17.878H72.1367C72.5787 17.878 72.999 17.9257 73.3977 18.021C73.805 18.1163 74.169 18.268 74.4897 18.476C74.8104 18.6753 75.0617 18.9353 75.2437 19.256C75.4344 19.5767 75.5297 19.9623 75.5297 20.413C75.5297 21.011 75.3867 21.5007 75.1007 21.882C74.8234 22.2633 74.429 22.545 73.9177 22.727C73.4064 22.909 72.8127 23 72.1367 23H68.9127V13.9H71.9417C72.5484 13.9 73.0814 13.9867 73.5407 14.16C74 14.3247 74.3597 14.576 74.6197 14.914C74.8797 15.252 75.0097 15.681 75.0097 16.201C75.0097 16.6603 74.8797 17.0547 74.6197 17.384C74.3597 17.7133 74 17.9647 73.5407 18.138C73.0814 18.3027 72.5484 18.385 71.9417 18.385H70.3037ZM79.6489 21.141C79.6489 21.3143 79.6922 21.466 79.7789 21.596C79.8655 21.7173 79.9825 21.8127 80.1299 21.882C80.2859 21.9427 80.4549 21.973 80.6369 21.973C80.8969 21.973 81.1309 21.921 81.3389 21.817C81.5469 21.7043 81.7159 21.5483 81.8459 21.349C81.9759 21.141 82.0409 20.894 82.0409 20.608L82.2489 21.388C82.2489 21.7693 82.1405 22.09 81.9239 22.35C81.7159 22.61 81.4429 22.805 81.1049 22.935C80.7755 23.065 80.4289 23.13 80.0649 23.13C79.6922 23.13 79.3455 23.0563 79.0249 22.909C78.7042 22.7617 78.4442 22.5493 78.2449 22.272C78.0542 21.986 77.9589 21.6393 77.9589 21.232C77.9589 20.6513 78.1625 20.192 78.5699 19.854C78.9772 19.516 79.5535 19.347 80.2989 19.347C80.6802 19.347 81.0139 19.386 81.2999 19.464C81.5945 19.542 81.8415 19.6373 82.0409 19.75C82.2402 19.8627 82.3832 19.971 82.4699 20.075V20.855C82.2359 20.6817 81.9715 20.5517 81.6769 20.465C81.3909 20.3783 81.0875 20.335 80.7669 20.335C80.5069 20.335 80.2945 20.3697 80.1299 20.439C79.9652 20.4997 79.8439 20.5907 79.7659 20.712C79.6879 20.8247 79.6489 20.9677 79.6489 21.141ZM78.9989 18.71L78.3749 17.566C78.6869 17.4013 79.0682 17.2453 79.5189 17.098C79.9695 16.942 80.4722 16.864 81.0269 16.864C81.5382 16.864 81.9932 16.9377 82.3919 17.085C82.7905 17.2323 83.1025 17.449 83.3279 17.735C83.5532 18.0123 83.6659 18.3547 83.6659 18.762V23H82.0409V19.113C82.0409 18.9483 82.0149 18.8097 81.9629 18.697C81.9109 18.5757 81.8285 18.476 81.7159 18.398C81.6119 18.32 81.4862 18.2637 81.3389 18.229C81.1915 18.1943 81.0269 18.177 80.8449 18.177C80.5675 18.177 80.3032 18.2073 80.0519 18.268C79.8005 18.3287 79.5839 18.4023 79.4019 18.489C79.2199 18.5757 79.0855 18.6493 78.9989 18.71ZM87.0262 20.933C87.2775 21.167 87.5115 21.3577 87.7282 21.505C87.9448 21.6437 88.1485 21.7477 88.3392 21.817C88.5385 21.8863 88.7248 21.921 88.8982 21.921C89.1235 21.921 89.2968 21.8733 89.4182 21.778C89.5395 21.674 89.6002 21.5353 89.6002 21.362C89.6002 21.206 89.5482 21.076 89.4442 20.972C89.3488 20.8593 89.2058 20.7597 89.0152 20.673C88.8245 20.5863 88.5818 20.4953 88.2872 20.4C88.0098 20.296 87.7412 20.1747 87.4812 20.036C87.2212 19.8887 87.0045 19.698 86.8312 19.464C86.6665 19.2213 86.5842 18.9137 86.5842 18.541C86.5842 18.1857 86.6795 17.8867 86.8702 17.644C87.0608 17.3927 87.3165 17.2063 87.6372 17.085C87.9665 16.955 88.3305 16.89 88.7292 16.89C89.0672 16.89 89.3835 16.9333 89.6782 17.02C89.9728 17.1067 90.2458 17.2237 90.4972 17.371C90.7485 17.5097 90.9695 17.6743 91.1602 17.865L90.4192 18.905C90.2025 18.671 89.9425 18.4803 89.6392 18.333C89.3445 18.1857 89.0542 18.112 88.7682 18.112C88.5775 18.112 88.4258 18.151 88.3132 18.229C88.2092 18.2983 88.1572 18.4067 88.1572 18.554C88.1572 18.684 88.2092 18.801 88.3132 18.905C88.4258 19.0003 88.5818 19.087 88.7812 19.165C88.9892 19.243 89.2232 19.3383 89.4832 19.451C89.8038 19.5723 90.0985 19.711 90.3672 19.867C90.6445 20.0143 90.8655 20.2007 91.0302 20.426C91.1948 20.6513 91.2772 20.946 91.2772 21.31C91.2772 21.908 91.0822 22.376 90.6922 22.714C90.3022 23.0433 89.7648 23.208 89.0802 23.208C88.6555 23.208 88.2655 23.1517 87.9102 23.039C87.5635 22.9263 87.2472 22.779 86.9612 22.597C86.6838 22.4063 86.4325 22.2027 86.2072 21.986L87.0262 20.933ZM96.756 23.13C96.106 23.13 95.5384 23 95.053 22.74C94.5677 22.48 94.1907 22.1203 93.922 21.661C93.662 21.193 93.532 20.6427 93.532 20.01C93.532 19.3687 93.662 18.8183 93.922 18.359C94.1907 17.891 94.5677 17.5313 95.053 17.28C95.5384 17.02 96.1104 16.89 96.769 16.89C97.4277 16.89 97.9867 17.0113 98.446 17.254C98.914 17.488 99.2694 17.8347 99.512 18.294C99.7547 18.7447 99.876 19.2907 99.876 19.932C99.876 20.01 99.8717 20.0923 99.863 20.179C99.863 20.2657 99.8587 20.335 99.85 20.387H94.494V19.347H98.381L97.926 19.945C97.9607 19.893 97.991 19.8237 98.017 19.737C98.0517 19.6417 98.069 19.5637 98.069 19.503C98.069 19.2083 98.0127 18.957 97.9 18.749C97.796 18.541 97.6444 18.3763 97.445 18.255C97.2457 18.1337 97.0117 18.073 96.743 18.073C96.4137 18.073 96.1364 18.1467 95.911 18.294C95.6944 18.4327 95.5254 18.645 95.404 18.931C95.2914 19.2083 95.2307 19.555 95.222 19.971C95.222 20.3697 95.2784 20.7077 95.391 20.985C95.5124 21.2623 95.69 21.4747 95.924 21.622C96.158 21.7693 96.4397 21.843 96.769 21.843C97.1417 21.843 97.458 21.7737 97.718 21.635C97.9867 21.4877 98.2077 21.271 98.381 20.985L99.85 21.44C99.538 22.0033 99.122 22.428 98.602 22.714C98.0907 22.9913 97.4754 23.13 96.756 23.13ZM104.292 18.45C104.292 19.048 104.426 19.5723 104.695 20.023C104.972 20.465 105.332 20.8073 105.774 21.05C106.216 21.284 106.697 21.401 107.217 21.401C107.65 21.401 108.036 21.3447 108.374 21.232C108.712 21.1193 109.015 20.9677 109.284 20.777C109.561 20.5863 109.8 20.3783 109.999 20.153V22.246C109.626 22.5407 109.219 22.7703 108.777 22.935C108.344 23.0997 107.793 23.182 107.126 23.182C106.433 23.182 105.787 23.0693 105.189 22.844C104.6 22.6187 104.084 22.2937 103.642 21.869C103.209 21.4443 102.871 20.946 102.628 20.374C102.394 19.7933 102.277 19.152 102.277 18.45C102.277 17.748 102.394 17.111 102.628 16.539C102.871 15.9583 103.209 15.4557 103.642 15.031C104.084 14.6063 104.6 14.2813 105.189 14.056C105.787 13.8307 106.433 13.718 107.126 13.718C107.793 13.718 108.344 13.8003 108.777 13.965C109.219 14.1297 109.626 14.3593 109.999 14.654V16.747C109.8 16.5217 109.561 16.3137 109.284 16.123C109.015 15.9323 108.712 15.7807 108.374 15.668C108.036 15.5553 107.65 15.499 107.217 15.499C106.697 15.499 106.216 15.6203 105.774 15.863C105.332 16.097 104.972 16.435 104.695 16.877C104.426 17.319 104.292 17.8433 104.292 18.45ZM114.878 12.86V23H113.188V12.86H114.878ZM117.049 19.36C117.049 18.9613 116.971 18.658 116.815 18.45C116.667 18.242 116.416 18.138 116.061 18.138C115.827 18.138 115.619 18.19 115.437 18.294C115.255 18.3893 115.116 18.528 115.021 18.71C114.925 18.892 114.878 19.1087 114.878 19.36H114.54C114.54 18.8833 114.618 18.4543 114.774 18.073C114.938 17.6917 115.181 17.3883 115.502 17.163C115.822 16.9377 116.217 16.825 116.685 16.825C117.153 16.825 117.538 16.9117 117.842 17.085C118.145 17.2583 118.37 17.5183 118.518 17.865C118.665 18.203 118.739 18.619 118.739 19.113V23H117.049V19.36ZM123.09 21.141C123.09 21.3143 123.133 21.466 123.22 21.596C123.306 21.7173 123.423 21.8127 123.571 21.882C123.727 21.9427 123.896 21.973 124.078 21.973C124.338 21.973 124.572 21.921 124.78 21.817C124.988 21.7043 125.157 21.5483 125.287 21.349C125.417 21.141 125.482 20.894 125.482 20.608L125.69 21.388C125.69 21.7693 125.581 22.09 125.365 22.35C125.157 22.61 124.884 22.805 124.546 22.935C124.216 23.065 123.87 23.13 123.506 23.13C123.133 23.13 122.786 23.0563 122.466 22.909C122.145 22.7617 121.885 22.5493 121.686 22.272C121.495 21.986 121.4 21.6393 121.4 21.232C121.4 20.6513 121.603 20.192 122.011 19.854C122.418 19.516 122.994 19.347 123.74 19.347C124.121 19.347 124.455 19.386 124.741 19.464C125.035 19.542 125.282 19.6373 125.482 19.75C125.681 19.8627 125.824 19.971 125.911 20.075V20.855C125.677 20.6817 125.412 20.5517 125.118 20.465C124.832 20.3783 124.528 20.335 124.208 20.335C123.948 20.335 123.735 20.3697 123.571 20.439C123.406 20.4997 123.285 20.5907 123.207 20.712C123.129 20.8247 123.09 20.9677 123.09 21.141ZM122.44 18.71L121.816 17.566C122.128 17.4013 122.509 17.2453 122.96 17.098C123.41 16.942 123.913 16.864 124.468 16.864C124.979 16.864 125.434 16.9377 125.833 17.085C126.231 17.2323 126.543 17.449 126.769 17.735C126.994 18.0123 127.107 18.3547 127.107 18.762V23H125.482V19.113C125.482 18.9483 125.456 18.8097 125.404 18.697C125.352 18.5757 125.269 18.476 125.157 18.398C125.053 18.32 124.927 18.2637 124.78 18.229C124.632 18.1943 124.468 18.177 124.286 18.177C124.008 18.177 123.744 18.2073 123.493 18.268C123.241 18.3287 123.025 18.4023 122.843 18.489C122.661 18.5757 122.526 18.6493 122.44 18.71ZM130.09 14.706C130.09 14.4287 130.19 14.2033 130.389 14.03C130.588 13.848 130.827 13.757 131.104 13.757C131.381 13.757 131.615 13.848 131.806 14.03C132.005 14.2033 132.105 14.4287 132.105 14.706C132.105 14.9747 132.005 15.2 131.806 15.382C131.615 15.564 131.381 15.655 131.104 15.655C130.827 15.655 130.588 15.564 130.389 15.382C130.19 15.2 130.09 14.9747 130.09 14.706ZM130.272 17.02H131.91V23H130.272V17.02ZM139.053 19.36C139.053 18.9613 138.975 18.658 138.819 18.45C138.663 18.242 138.412 18.138 138.065 18.138C137.831 18.138 137.623 18.19 137.441 18.294C137.259 18.3893 137.121 18.528 137.025 18.71C136.93 18.892 136.882 19.1087 136.882 19.36V23H135.192V17.02H136.882V17.93C137.064 17.592 137.303 17.3363 137.597 17.163C137.901 16.981 138.265 16.89 138.689 16.89C139.4 16.89 139.929 17.0937 140.275 17.501C140.622 17.8997 140.795 18.4587 140.795 19.178V23H139.053V19.36ZM144.105 22.233C144.105 21.9383 144.205 21.6913 144.404 21.492C144.612 21.284 144.868 21.18 145.171 21.18C145.483 21.18 145.739 21.284 145.938 21.492C146.137 21.6913 146.237 21.9383 146.237 22.233C146.237 22.5103 146.137 22.753 145.938 22.961C145.739 23.169 145.483 23.273 145.171 23.273C144.868 23.273 144.612 23.169 144.404 22.961C144.205 22.753 144.105 22.5103 144.105 22.233ZM144.105 17.345C144.105 17.059 144.205 16.812 144.404 16.604C144.612 16.396 144.868 16.292 145.171 16.292C145.483 16.292 145.739 16.396 145.938 16.604C146.137 16.812 146.237 17.059 146.237 17.345C146.237 17.631 146.137 17.878 145.938 18.086C145.739 18.294 145.483 18.398 145.171 18.398C144.868 18.398 144.612 18.294 144.404 18.086C144.205 17.878 144.105 17.631 144.105 17.345ZM156.289 15.525V13.9H160.358V15.525H156.289ZM156.289 19.113V17.566H160.228V19.113H156.289ZM155.093 13.9H156.887V23H155.093V13.9ZM165.001 18.45C165.001 19.0307 165.122 19.5463 165.365 19.997C165.607 20.4477 165.941 20.803 166.366 21.063C166.79 21.323 167.284 21.453 167.848 21.453C168.411 21.453 168.905 21.323 169.33 21.063C169.754 20.803 170.084 20.4477 170.318 19.997C170.56 19.5463 170.682 19.0307 170.682 18.45C170.682 17.8693 170.565 17.3537 170.331 16.903C170.097 16.4523 169.767 16.097 169.343 15.837C168.918 15.577 168.42 15.447 167.848 15.447C167.284 15.447 166.79 15.577 166.366 15.837C165.941 16.097 165.607 16.4523 165.365 16.903C165.122 17.3537 165.001 17.8693 165.001 18.45ZM163.038 18.45C163.038 17.7567 163.159 17.124 163.402 16.552C163.644 15.9713 163.982 15.4687 164.416 15.044C164.849 14.6193 165.356 14.2943 165.937 14.069C166.526 13.835 167.163 13.718 167.848 13.718C168.541 13.718 169.178 13.835 169.759 14.069C170.339 14.2943 170.846 14.6193 171.28 15.044C171.722 15.4687 172.06 15.9713 172.294 16.552C172.536 17.124 172.658 17.7567 172.658 18.45C172.658 19.1347 172.536 19.7717 172.294 20.361C172.06 20.9417 171.726 21.4487 171.293 21.882C170.868 22.3153 170.361 22.6533 169.772 22.896C169.191 23.13 168.55 23.247 167.848 23.247C167.146 23.247 166.5 23.13 165.911 22.896C165.33 22.6533 164.823 22.3153 164.39 21.882C163.956 21.4487 163.623 20.9417 163.389 20.361C163.155 19.7717 163.038 19.1347 163.038 18.45ZM177.592 17.891L177.007 23H175.07L176.422 13.445L180.231 19.321L184.04 13.445L185.392 23H183.455L182.87 17.891L180.231 22.155L177.592 17.891ZM189.789 18.45C189.789 19.0307 189.91 19.5463 190.153 19.997C190.395 20.4477 190.729 20.803 191.154 21.063C191.578 21.323 192.072 21.453 192.636 21.453C193.199 21.453 193.693 21.323 194.118 21.063C194.542 20.803 194.872 20.4477 195.106 19.997C195.348 19.5463 195.47 19.0307 195.47 18.45C195.47 17.8693 195.353 17.3537 195.119 16.903C194.885 16.4523 194.555 16.097 194.131 15.837C193.706 15.577 193.208 15.447 192.636 15.447C192.072 15.447 191.578 15.577 191.154 15.837C190.729 16.097 190.395 16.4523 190.153 16.903C189.91 17.3537 189.789 17.8693 189.789 18.45ZM187.826 18.45C187.826 17.7567 187.947 17.124 188.19 16.552C188.432 15.9713 188.77 15.4687 189.204 15.044C189.637 14.6193 190.144 14.2943 190.725 14.069C191.314 13.835 191.951 13.718 192.636 13.718C193.329 13.718 193.966 13.835 194.547 14.069C195.127 14.2943 195.634 14.6193 196.068 15.044C196.51 15.4687 196.848 15.9713 197.082 16.552C197.324 17.124 197.446 17.7567 197.446 18.45C197.446 19.1347 197.324 19.7717 197.082 20.361C196.848 20.9417 196.514 21.4487 196.081 21.882C195.656 22.3153 195.149 22.6533 194.56 22.896C193.979 23.13 193.338 23.247 192.636 23.247C191.934 23.247 191.288 23.13 190.699 22.896C190.118 22.6533 189.611 22.3153 189.178 21.882C188.744 21.4487 188.411 20.9417 188.177 20.361C187.943 19.7717 187.826 19.1347 187.826 18.45ZM201.769 18.385V17.54H203.238C203.506 17.54 203.74 17.4967 203.94 17.41C204.139 17.3233 204.291 17.1977 204.395 17.033C204.507 16.8683 204.564 16.6733 204.564 16.448C204.564 16.1013 204.442 15.837 204.2 15.655C203.966 15.473 203.645 15.382 203.238 15.382H202.237V21.518H203.433C203.745 21.518 204.026 21.4747 204.278 21.388C204.529 21.2927 204.724 21.1453 204.863 20.946C205.01 20.7467 205.084 20.491 205.084 20.179C205.084 19.9537 205.04 19.763 204.954 19.607C204.876 19.4423 204.759 19.308 204.603 19.204C204.455 19.0913 204.282 19.0133 204.083 18.97C203.883 18.918 203.667 18.892 203.433 18.892H201.769V17.878H203.602C204.044 17.878 204.464 17.9257 204.863 18.021C205.27 18.1163 205.634 18.268 205.955 18.476C206.275 18.6753 206.527 18.9353 206.709 19.256C206.899 19.5767 206.995 19.9623 206.995 20.413C206.995 21.011 206.852 21.5007 206.566 21.882C206.288 22.2633 205.894 22.545 205.383 22.727C204.871 22.909 204.278 23 203.602 23H200.378V13.9H203.407C204.013 13.9 204.546 13.9867 205.006 14.16C205.465 14.3247 205.825 14.576 206.085 14.914C206.345 15.252 206.475 15.681 206.475 16.201C206.475 16.6603 206.345 17.0547 206.085 17.384C205.825 17.7133 205.465 17.9647 205.006 18.138C204.546 18.3027 204.013 18.385 203.407 18.385H201.769ZM211.517 18.45C211.517 19.0307 211.638 19.5463 211.881 19.997C212.124 20.4477 212.457 20.803 212.882 21.063C213.307 21.323 213.801 21.453 214.364 21.453C214.927 21.453 215.421 21.323 215.846 21.063C216.271 20.803 216.6 20.4477 216.834 19.997C217.077 19.5463 217.198 19.0307 217.198 18.45C217.198 17.8693 217.081 17.3537 216.847 16.903C216.613 16.4523 216.284 16.097 215.859 15.837C215.434 15.577 214.936 15.447 214.364 15.447C213.801 15.447 213.307 15.577 212.882 15.837C212.457 16.097 212.124 16.4523 211.881 16.903C211.638 17.3537 211.517 17.8693 211.517 18.45ZM209.554 18.45C209.554 17.7567 209.675 17.124 209.918 16.552C210.161 15.9713 210.499 15.4687 210.932 15.044C211.365 14.6193 211.872 14.2943 212.453 14.069C213.042 13.835 213.679 13.718 214.364 13.718C215.057 13.718 215.694 13.835 216.275 14.069C216.856 14.2943 217.363 14.6193 217.796 15.044C218.238 15.4687 218.576 15.9713 218.81 16.552C219.053 17.124 219.174 17.7567 219.174 18.45C219.174 19.1347 219.053 19.7717 218.81 20.361C218.576 20.9417 218.242 21.4487 217.809 21.882C217.384 22.3153 216.877 22.6533 216.288 22.896C215.707 23.13 215.066 23.247 214.364 23.247C213.662 23.247 213.016 23.13 212.427 22.896C211.846 22.6533 211.339 22.3153 210.906 21.882C210.473 21.4487 210.139 20.9417 209.905 20.361C209.671 19.7717 209.554 19.1347 209.554 18.45ZM220.802 15.577V13.9H227.562V15.577H225.105V23H223.246V15.577H220.802ZM239.211 19.36C239.211 18.9613 239.133 18.658 238.977 18.45C238.821 18.242 238.57 18.138 238.223 18.138C237.989 18.138 237.781 18.19 237.599 18.294C237.417 18.3893 237.278 18.528 237.183 18.71C237.088 18.892 237.04 19.1087 237.04 19.36V23H235.35V17.02H237.04V17.93C237.222 17.592 237.46 17.3363 237.755 17.163C238.058 16.981 238.422 16.89 238.847 16.89C239.558 16.89 240.086 17.0937 240.433 17.501C240.78 17.8997 240.953 18.4587 240.953 19.178V23H239.211V19.36ZM243.704 20.01C243.704 19.386 243.847 18.84 244.133 18.372C244.428 17.904 244.822 17.54 245.316 17.28C245.819 17.02 246.386 16.89 247.019 16.89C247.652 16.89 248.215 17.02 248.709 17.28C249.212 17.54 249.606 17.904 249.892 18.372C250.187 18.84 250.334 19.386 250.334 20.01C250.334 20.6253 250.187 21.1713 249.892 21.648C249.606 22.116 249.212 22.48 248.709 22.74C248.215 23 247.652 23.13 247.019 23.13C246.386 23.13 245.819 23 245.316 22.74C244.822 22.48 244.428 22.116 244.133 21.648C243.847 21.1713 243.704 20.6253 243.704 20.01ZM245.42 20.01C245.42 20.348 245.489 20.647 245.628 20.907C245.775 21.1583 245.97 21.3577 246.213 21.505C246.456 21.6437 246.724 21.713 247.019 21.713C247.314 21.713 247.582 21.6437 247.825 21.505C248.068 21.3577 248.258 21.1583 248.397 20.907C248.544 20.647 248.618 20.348 248.618 20.01C248.618 19.672 248.544 19.373 248.397 19.113C248.258 18.853 248.068 18.6537 247.825 18.515C247.582 18.3763 247.314 18.307 247.019 18.307C246.724 18.307 246.456 18.3763 246.213 18.515C245.97 18.6537 245.775 18.853 245.628 19.113C245.489 19.373 245.42 19.672 245.42 20.01ZM252.018 17.02H253.812L255.125 20.335L256.815 16.565L258.57 20.348L259.896 17.02H261.677L258.752 23.403L256.828 19.594L254.956 23.403L252.018 17.02ZM271.012 25.86H269.322V17.02H271.012V25.86ZM275.926 20.01C275.926 20.686 275.792 21.2623 275.523 21.739C275.255 22.2157 274.899 22.5753 274.457 22.818C274.024 23.0607 273.556 23.182 273.053 23.182C272.542 23.182 272.096 23.052 271.714 22.792C271.342 22.532 271.051 22.1637 270.843 21.687C270.644 21.2103 270.544 20.6513 270.544 20.01C270.544 19.36 270.644 18.801 270.843 18.333C271.051 17.8563 271.342 17.488 271.714 17.228C272.096 16.968 272.542 16.838 273.053 16.838C273.556 16.838 274.024 16.9593 274.457 17.202C274.899 17.4447 275.255 17.8043 275.523 18.281C275.792 18.749 275.926 19.3253 275.926 20.01ZM274.184 20.01C274.184 19.6547 274.111 19.3513 273.963 19.1C273.816 18.8487 273.617 18.658 273.365 18.528C273.123 18.398 272.854 18.333 272.559 18.333C272.308 18.333 272.061 18.398 271.818 18.528C271.584 18.6493 271.389 18.8357 271.233 19.087C271.086 19.3383 271.012 19.646 271.012 20.01C271.012 20.374 271.086 20.6817 271.233 20.933C271.389 21.1843 271.584 21.375 271.818 21.505C272.061 21.6263 272.308 21.687 272.559 21.687C272.854 21.687 273.123 21.622 273.365 21.492C273.617 21.362 273.816 21.1713 273.963 20.92C274.111 20.6687 274.184 20.3653 274.184 20.01ZM280.328 17.02V23H278.677V17.02H280.328ZM282.083 18.775C281.97 18.671 281.853 18.593 281.732 18.541C281.619 18.4803 281.476 18.45 281.303 18.45C281.095 18.45 280.917 18.5063 280.77 18.619C280.622 18.7317 280.51 18.892 280.432 19.1C280.362 19.2993 280.328 19.542 280.328 19.828L279.86 19.36C279.86 18.8833 279.951 18.463 280.133 18.099C280.315 17.7263 280.553 17.4317 280.848 17.215C281.142 16.9897 281.446 16.877 281.758 16.877C281.974 16.877 282.178 16.916 282.369 16.994C282.568 17.072 282.728 17.189 282.85 17.345L282.083 18.775ZM284.644 20.01C284.644 19.386 284.787 18.84 285.073 18.372C285.367 17.904 285.762 17.54 286.256 17.28C286.758 17.02 287.326 16.89 287.959 16.89C288.591 16.89 289.155 17.02 289.649 17.28C290.151 17.54 290.546 17.904 290.832 18.372C291.126 18.84 291.274 19.386 291.274 20.01C291.274 20.6253 291.126 21.1713 290.832 21.648C290.546 22.116 290.151 22.48 289.649 22.74C289.155 23 288.591 23.13 287.959 23.13C287.326 23.13 286.758 23 286.256 22.74C285.762 22.48 285.367 22.116 285.073 21.648C284.787 21.1713 284.644 20.6253 284.644 20.01ZM286.36 20.01C286.36 20.348 286.429 20.647 286.568 20.907C286.715 21.1583 286.91 21.3577 287.153 21.505C287.395 21.6437 287.664 21.713 287.959 21.713C288.253 21.713 288.522 21.6437 288.765 21.505C289.007 21.3577 289.198 21.1583 289.337 20.907C289.484 20.647 289.558 20.348 289.558 20.01C289.558 19.672 289.484 19.373 289.337 19.113C289.198 18.853 289.007 18.6537 288.765 18.515C288.522 18.3763 288.253 18.307 287.959 18.307C287.664 18.307 287.395 18.3763 287.153 18.515C286.91 18.6537 286.715 18.853 286.568 19.113C286.429 19.373 286.36 19.672 286.36 20.01ZM292.984 17.02H294.791L296.26 20.621L297.729 17.02H299.536L296.26 23.624L292.984 17.02ZM301.759 14.706C301.759 14.4287 301.858 14.2033 302.058 14.03C302.257 13.848 302.495 13.757 302.773 13.757C303.05 13.757 303.284 13.848 303.475 14.03C303.674 14.2033 303.774 14.4287 303.774 14.706C303.774 14.9747 303.674 15.2 303.475 15.382C303.284 15.564 303.05 15.655 302.773 15.655C302.495 15.655 302.257 15.564 302.058 15.382C301.858 15.2 301.759 14.9747 301.759 14.706ZM301.941 17.02H303.579V23H301.941V17.02ZM311.372 12.86H313.062V23H311.372V12.86ZM306.458 20.01C306.458 19.3427 306.592 18.7793 306.861 18.32C307.129 17.852 307.485 17.4967 307.927 17.254C308.369 17.0113 308.837 16.89 309.331 16.89C309.833 16.89 310.275 17.0157 310.657 17.267C311.047 17.5183 311.35 17.878 311.567 18.346C311.792 18.8053 311.905 19.36 311.905 20.01C311.905 20.6513 311.792 21.206 311.567 21.674C311.35 22.142 311.047 22.5017 310.657 22.753C310.275 23.0043 309.833 23.13 309.331 23.13C308.837 23.13 308.369 23.0087 307.927 22.766C307.485 22.5233 307.129 22.168 306.861 21.7C306.592 21.232 306.458 20.6687 306.458 20.01ZM308.2 20.01C308.2 20.3653 308.273 20.673 308.421 20.933C308.568 21.193 308.767 21.3923 309.019 21.531C309.27 21.6697 309.539 21.739 309.825 21.739C310.076 21.739 310.319 21.674 310.553 21.544C310.795 21.4053 310.99 21.206 311.138 20.946C311.294 20.686 311.372 20.374 311.372 20.01C311.372 19.646 311.294 19.334 311.138 19.074C310.99 18.814 310.795 18.619 310.553 18.489C310.319 18.3503 310.076 18.281 309.825 18.281C309.539 18.281 309.27 18.3503 309.019 18.489C308.767 18.6277 308.568 18.827 308.421 19.087C308.273 19.347 308.2 19.6547 308.2 20.01ZM318.997 23.13C318.347 23.13 317.779 23 317.294 22.74C316.809 22.48 316.432 22.1203 316.163 21.661C315.903 21.193 315.773 20.6427 315.773 20.01C315.773 19.3687 315.903 18.8183 316.163 18.359C316.432 17.891 316.809 17.5313 317.294 17.28C317.779 17.02 318.351 16.89 319.01 16.89C319.669 16.89 320.228 17.0113 320.687 17.254C321.155 17.488 321.51 17.8347 321.753 18.294C321.996 18.7447 322.117 19.2907 322.117 19.932C322.117 20.01 322.113 20.0923 322.104 20.179C322.104 20.2657 322.1 20.335 322.091 20.387H316.735V19.347H320.622L320.167 19.945C320.202 19.893 320.232 19.8237 320.258 19.737C320.293 19.6417 320.31 19.5637 320.31 19.503C320.31 19.2083 320.254 18.957 320.141 18.749C320.037 18.541 319.885 18.3763 319.686 18.255C319.487 18.1337 319.253 18.073 318.984 18.073C318.655 18.073 318.377 18.1467 318.152 18.294C317.935 18.4327 317.766 18.645 317.645 18.931C317.532 19.2083 317.472 19.555 317.463 19.971C317.463 20.3697 317.519 20.7077 317.632 20.985C317.753 21.2623 317.931 21.4747 318.165 21.622C318.399 21.7693 318.681 21.843 319.01 21.843C319.383 21.843 319.699 21.7737 319.959 21.635C320.228 21.4877 320.449 21.271 320.622 20.985L322.091 21.44C321.779 22.0033 321.363 22.428 320.843 22.714C320.332 22.9913 319.716 23.13 318.997 23.13ZM325.181 20.933C325.432 21.167 325.666 21.3577 325.883 21.505C326.1 21.6437 326.303 21.7477 326.494 21.817C326.693 21.8863 326.88 21.921 327.053 21.921C327.278 21.921 327.452 21.8733 327.573 21.778C327.694 21.674 327.755 21.5353 327.755 21.362C327.755 21.206 327.703 21.076 327.599 20.972C327.504 20.8593 327.361 20.7597 327.17 20.673C326.979 20.5863 326.737 20.4953 326.442 20.4C326.165 20.296 325.896 20.1747 325.636 20.036C325.376 19.8887 325.159 19.698 324.986 19.464C324.821 19.2213 324.739 18.9137 324.739 18.541C324.739 18.1857 324.834 17.8867 325.025 17.644C325.216 17.3927 325.471 17.2063 325.792 17.085C326.121 16.955 326.485 16.89 326.884 16.89C327.222 16.89 327.538 16.9333 327.833 17.02C328.128 17.1067 328.401 17.2237 328.652 17.371C328.903 17.5097 329.124 17.6743 329.315 17.865L328.574 18.905C328.357 18.671 328.097 18.4803 327.794 18.333C327.499 18.1857 327.209 18.112 326.923 18.112C326.732 18.112 326.581 18.151 326.468 18.229C326.364 18.2983 326.312 18.4067 326.312 18.554C326.312 18.684 326.364 18.801 326.468 18.905C326.581 19.0003 326.737 19.087 326.936 19.165C327.144 19.243 327.378 19.3383 327.638 19.451C327.959 19.5723 328.253 19.711 328.522 19.867C328.799 20.0143 329.02 20.2007 329.185 20.426C329.35 20.6513 329.432 20.946 329.432 21.31C329.432 21.908 329.237 22.376 328.847 22.714C328.457 23.0433 327.92 23.208 327.235 23.208C326.81 23.208 326.42 23.1517 326.065 23.039C325.718 22.9263 325.402 22.779 325.116 22.597C324.839 22.4063 324.587 22.2027 324.362 21.986L325.181 20.933ZM340.303 23.13C339.653 23.13 339.086 23 338.6 22.74C338.115 22.48 337.738 22.1203 337.469 21.661C337.209 21.193 337.079 20.6427 337.079 20.01C337.079 19.3687 337.209 18.8183 337.469 18.359C337.738 17.891 338.115 17.5313 338.6 17.28C339.086 17.02 339.658 16.89 340.316 16.89C340.975 16.89 341.534 17.0113 341.993 17.254C342.461 17.488 342.817 17.8347 343.059 18.294C343.302 18.7447 343.423 19.2907 343.423 19.932C343.423 20.01 343.419 20.0923 343.41 20.179C343.41 20.2657 343.406 20.335 343.397 20.387H338.041V19.347H341.928L341.473 19.945C341.508 19.893 341.538 19.8237 341.564 19.737C341.599 19.6417 341.616 19.5637 341.616 19.503C341.616 19.2083 341.56 18.957 341.447 18.749C341.343 18.541 341.192 18.3763 340.992 18.255C340.793 18.1337 340.559 18.073 340.29 18.073C339.961 18.073 339.684 18.1467 339.458 18.294C339.242 18.4327 339.073 18.645 338.951 18.931C338.839 19.2083 338.778 19.555 338.769 19.971C338.769 20.3697 338.826 20.7077 338.938 20.985C339.06 21.2623 339.237 21.4747 339.471 21.622C339.705 21.7693 339.987 21.843 340.316 21.843C340.689 21.843 341.005 21.7737 341.265 21.635C341.534 21.4877 341.755 21.271 341.928 20.985L343.397 21.44C343.085 22.0033 342.669 22.428 342.149 22.714C341.638 22.9913 341.023 23.13 340.303 23.13ZM347.384 21.141C347.384 21.3143 347.428 21.466 347.514 21.596C347.601 21.7173 347.718 21.8127 347.865 21.882C348.021 21.9427 348.19 21.973 348.372 21.973C348.632 21.973 348.866 21.921 349.074 21.817C349.282 21.7043 349.451 21.5483 349.581 21.349C349.711 21.141 349.776 20.894 349.776 20.608L349.984 21.388C349.984 21.7693 349.876 22.09 349.659 22.35C349.451 22.61 349.178 22.805 348.84 22.935C348.511 23.065 348.164 23.13 347.8 23.13C347.428 23.13 347.081 23.0563 346.76 22.909C346.44 22.7617 346.18 22.5493 345.98 22.272C345.79 21.986 345.694 21.6393 345.694 21.232C345.694 20.6513 345.898 20.192 346.305 19.854C346.713 19.516 347.289 19.347 348.034 19.347C348.416 19.347 348.749 19.386 349.035 19.464C349.33 19.542 349.577 19.6373 349.776 19.75C349.976 19.8627 350.119 19.971 350.205 20.075V20.855C349.971 20.6817 349.707 20.5517 349.412 20.465C349.126 20.3783 348.823 20.335 348.502 20.335C348.242 20.335 348.03 20.3697 347.865 20.439C347.701 20.4997 347.579 20.5907 347.501 20.712C347.423 20.8247 347.384 20.9677 347.384 21.141ZM346.734 18.71L346.11 17.566C346.422 17.4013 346.804 17.2453 347.254 17.098C347.705 16.942 348.208 16.864 348.762 16.864C349.274 16.864 349.729 16.9377 350.127 17.085C350.526 17.2323 350.838 17.449 351.063 17.735C351.289 18.0123 351.401 18.3547 351.401 18.762V23H349.776V19.113C349.776 18.9483 349.75 18.8097 349.698 18.697C349.646 18.5757 349.564 18.476 349.451 18.398C349.347 18.32 349.222 18.2637 349.074 18.229C348.927 18.1943 348.762 18.177 348.58 18.177C348.303 18.177 348.039 18.2073 347.787 18.268C347.536 18.3287 347.319 18.4023 347.137 18.489C346.955 18.5757 346.821 18.6493 346.734 18.71ZM356.114 17.02V23H354.463V17.02H356.114ZM357.869 18.775C357.756 18.671 357.639 18.593 357.518 18.541C357.405 18.4803 357.262 18.45 357.089 18.45C356.881 18.45 356.703 18.5063 356.556 18.619C356.408 18.7317 356.296 18.892 356.218 19.1C356.148 19.2993 356.114 19.542 356.114 19.828L355.646 19.36C355.646 18.8833 355.737 18.463 355.919 18.099C356.101 17.7263 356.339 17.4317 356.634 17.215C356.928 16.9897 357.232 16.877 357.544 16.877C357.76 16.877 357.964 16.916 358.155 16.994C358.354 17.072 358.514 17.189 358.636 17.345L357.869 18.775ZM361.023 12.86H362.713V23H361.023V12.86ZM371.564 17.02L367.664 25.86H365.935L367.443 22.402L364.96 17.02H366.832L368.756 21.778L367.924 21.752L369.809 17.02H371.564ZM380.48 20.01C380.48 20.3567 380.558 20.66 380.714 20.92C380.87 21.18 381.078 21.3837 381.338 21.531C381.607 21.6783 381.902 21.752 382.222 21.752C382.482 21.752 382.734 21.713 382.976 21.635C383.219 21.5483 383.436 21.4357 383.626 21.297C383.826 21.1497 383.977 20.9807 384.081 20.79V22.519C383.873 22.7097 383.6 22.8613 383.262 22.974C382.933 23.078 382.547 23.13 382.105 23.13C381.473 23.13 380.901 23 380.389 22.74C379.887 22.48 379.488 22.116 379.193 21.648C378.907 21.1713 378.764 20.6253 378.764 20.01C378.764 19.386 378.907 18.84 379.193 18.372C379.488 17.904 379.887 17.54 380.389 17.28C380.901 17.02 381.473 16.89 382.105 16.89C382.547 16.89 382.933 16.9463 383.262 17.059C383.6 17.163 383.873 17.306 384.081 17.488V19.217C383.977 19.0263 383.821 18.8617 383.613 18.723C383.414 18.5757 383.193 18.463 382.95 18.385C382.708 18.307 382.465 18.268 382.222 18.268C381.902 18.268 381.607 18.346 381.338 18.502C381.078 18.6493 380.87 18.853 380.714 19.113C380.558 19.373 380.48 19.672 380.48 20.01ZM388.258 21.141C388.258 21.3143 388.301 21.466 388.388 21.596C388.474 21.7173 388.591 21.8127 388.739 21.882C388.895 21.9427 389.064 21.973 389.246 21.973C389.506 21.973 389.74 21.921 389.948 21.817C390.156 21.7043 390.325 21.5483 390.455 21.349C390.585 21.141 390.65 20.894 390.65 20.608L390.858 21.388C390.858 21.7693 390.749 22.09 390.533 22.35C390.325 22.61 390.052 22.805 389.714 22.935C389.384 23.065 389.038 23.13 388.674 23.13C388.301 23.13 387.954 23.0563 387.634 22.909C387.313 22.7617 387.053 22.5493 386.854 22.272C386.663 21.986 386.568 21.6393 386.568 21.232C386.568 20.6513 386.771 20.192 387.179 19.854C387.586 19.516 388.162 19.347 388.908 19.347C389.289 19.347 389.623 19.386 389.909 19.464C390.203 19.542 390.45 19.6373 390.65 19.75C390.849 19.8627 390.992 19.971 391.079 20.075V20.855C390.845 20.6817 390.58 20.5517 390.286 20.465C390 20.3783 389.696 20.335 389.376 20.335C389.116 20.335 388.903 20.3697 388.739 20.439C388.574 20.4997 388.453 20.5907 388.375 20.712C388.297 20.8247 388.258 20.9677 388.258 21.141ZM387.608 18.71L386.984 17.566C387.296 17.4013 387.677 17.2453 388.128 17.098C388.578 16.942 389.081 16.864 389.636 16.864C390.147 16.864 390.602 16.9377 391.001 17.085C391.399 17.2323 391.711 17.449 391.937 17.735C392.162 18.0123 392.275 18.3547 392.275 18.762V23H390.65V19.113C390.65 18.9483 390.624 18.8097 390.572 18.697C390.52 18.5757 390.437 18.476 390.325 18.398C390.221 18.32 390.095 18.2637 389.948 18.229C389.8 18.1943 389.636 18.177 389.454 18.177C389.176 18.177 388.912 18.2073 388.661 18.268C388.409 18.3287 388.193 18.4023 388.011 18.489C387.829 18.5757 387.694 18.6493 387.608 18.71ZM395.336 12.86H397.026V23H395.336V12.86ZM400.183 12.86H401.873V23H400.183V12.86ZM405.328 20.933C405.579 21.167 405.813 21.3577 406.03 21.505C406.247 21.6437 406.45 21.7477 406.641 21.817C406.84 21.8863 407.027 21.921 407.2 21.921C407.425 21.921 407.599 21.8733 407.72 21.778C407.841 21.674 407.902 21.5353 407.902 21.362C407.902 21.206 407.85 21.076 407.746 20.972C407.651 20.8593 407.508 20.7597 407.317 20.673C407.126 20.5863 406.884 20.4953 406.589 20.4C406.312 20.296 406.043 20.1747 405.783 20.036C405.523 19.8887 405.306 19.698 405.133 19.464C404.968 19.2213 404.886 18.9137 404.886 18.541C404.886 18.1857 404.981 17.8867 405.172 17.644C405.363 17.3927 405.618 17.2063 405.939 17.085C406.268 16.955 406.632 16.89 407.031 16.89C407.369 16.89 407.685 16.9333 407.98 17.02C408.275 17.1067 408.548 17.2237 408.799 17.371C409.05 17.5097 409.271 17.6743 409.462 17.865L408.721 18.905C408.504 18.671 408.244 18.4803 407.941 18.333C407.646 18.1857 407.356 18.112 407.07 18.112C406.879 18.112 406.728 18.151 406.615 18.229C406.511 18.2983 406.459 18.4067 406.459 18.554C406.459 18.684 406.511 18.801 406.615 18.905C406.728 19.0003 406.884 19.087 407.083 19.165C407.291 19.243 407.525 19.3383 407.785 19.451C408.106 19.5723 408.4 19.711 408.669 19.867C408.946 20.0143 409.167 20.2007 409.332 20.426C409.497 20.6513 409.579 20.946 409.579 21.31C409.579 21.908 409.384 22.376 408.994 22.714C408.604 23.0433 408.067 23.208 407.382 23.208C406.957 23.208 406.567 23.1517 406.212 23.039C405.865 22.9263 405.549 22.779 405.263 22.597C404.986 22.4063 404.734 22.2027 404.509 21.986L405.328 20.933ZM417.122 17.02H420.866V18.437H417.122V17.02ZM420.684 14.55C420.598 14.42 420.498 14.3333 420.385 14.29C420.281 14.238 420.177 14.212 420.073 14.212C419.943 14.212 419.831 14.2467 419.735 14.316C419.649 14.3767 419.579 14.4807 419.527 14.628C419.475 14.7753 419.449 14.9617 419.449 15.187V23H417.824V14.81C417.824 14.3507 417.902 13.965 418.058 13.653C418.214 13.341 418.448 13.1027 418.76 12.938C419.072 12.7647 419.454 12.678 419.904 12.678C420.173 12.678 420.403 12.7127 420.593 12.782C420.784 12.8427 420.944 12.9207 421.074 13.016C421.213 13.1113 421.321 13.2023 421.399 13.289L420.684 14.55ZM422.962 20.01C422.962 19.386 423.105 18.84 423.391 18.372C423.685 17.904 424.08 17.54 424.574 17.28C425.076 17.02 425.644 16.89 426.277 16.89C426.909 16.89 427.473 17.02 427.967 17.28C428.469 17.54 428.864 17.904 429.15 18.372C429.444 18.84 429.592 19.386 429.592 20.01C429.592 20.6253 429.444 21.1713 429.15 21.648C428.864 22.116 428.469 22.48 427.967 22.74C427.473 23 426.909 23.13 426.277 23.13C425.644 23.13 425.076 23 424.574 22.74C424.08 22.48 423.685 22.116 423.391 21.648C423.105 21.1713 422.962 20.6253 422.962 20.01ZM424.678 20.01C424.678 20.348 424.747 20.647 424.886 20.907C425.033 21.1583 425.228 21.3577 425.471 21.505C425.713 21.6437 425.982 21.713 426.277 21.713C426.571 21.713 426.84 21.6437 427.083 21.505C427.325 21.3577 427.516 21.1583 427.655 20.907C427.802 20.647 427.876 20.348 427.876 20.01C427.876 19.672 427.802 19.373 427.655 19.113C427.516 18.853 427.325 18.6537 427.083 18.515C426.84 18.3763 426.571 18.307 426.277 18.307C425.982 18.307 425.713 18.3763 425.471 18.515C425.228 18.6537 425.033 18.853 424.886 19.113C424.747 19.373 424.678 19.672 424.678 20.01ZM434.001 17.02V23H432.35V17.02H434.001ZM435.756 18.775C435.643 18.671 435.526 18.593 435.405 18.541C435.292 18.4803 435.149 18.45 434.976 18.45C434.768 18.45 434.59 18.5063 434.443 18.619C434.296 18.7317 434.183 18.892 434.105 19.1C434.036 19.2993 434.001 19.542 434.001 19.828L433.533 19.36C433.533 18.8833 433.624 18.463 433.806 18.099C433.988 17.7263 434.226 17.4317 434.521 17.215C434.816 16.9897 435.119 16.877 435.431 16.877C435.648 16.877 435.851 16.916 436.042 16.994C436.241 17.072 436.402 17.189 436.523 17.345L435.756 18.775ZM443.536 17.02H447.228V18.437H443.536V17.02ZM444.563 14.94H446.188V23H444.563V14.94ZM451.309 12.86V23H449.619V12.86H451.309ZM453.48 19.36C453.48 18.9613 453.402 18.658 453.246 18.45C453.099 18.242 452.847 18.138 452.492 18.138C452.258 18.138 452.05 18.19 451.868 18.294C451.686 18.3893 451.547 18.528 451.452 18.71C451.357 18.892 451.309 19.1087 451.309 19.36H450.971C450.971 18.8833 451.049 18.4543 451.205 18.073C451.37 17.6917 451.612 17.3883 451.933 17.163C452.254 16.9377 452.648 16.825 453.116 16.825C453.584 16.825 453.97 16.9117 454.273 17.085C454.576 17.2583 454.802 17.5183 454.949 17.865C455.096 18.203 455.17 18.619 455.17 19.113V23H453.48V19.36ZM461.146 23.13C460.496 23.13 459.928 23 459.443 22.74C458.958 22.48 458.581 22.1203 458.312 21.661C458.052 21.193 457.922 20.6427 457.922 20.01C457.922 19.3687 458.052 18.8183 458.312 18.359C458.581 17.891 458.958 17.5313 459.443 17.28C459.928 17.02 460.5 16.89 461.159 16.89C461.818 16.89 462.377 17.0113 462.836 17.254C463.304 17.488 463.659 17.8347 463.902 18.294C464.145 18.7447 464.266 19.2907 464.266 19.932C464.266 20.01 464.262 20.0923 464.253 20.179C464.253 20.2657 464.249 20.335 464.24 20.387H458.884V19.347H462.771L462.316 19.945C462.351 19.893 462.381 19.8237 462.407 19.737C462.442 19.6417 462.459 19.5637 462.459 19.503C462.459 19.2083 462.403 18.957 462.29 18.749C462.186 18.541 462.034 18.3763 461.835 18.255C461.636 18.1337 461.402 18.073 461.133 18.073C460.804 18.073 460.526 18.1467 460.301 18.294C460.084 18.4327 459.915 18.645 459.794 18.931C459.681 19.2083 459.621 19.555 459.612 19.971C459.612 20.3697 459.668 20.7077 459.781 20.985C459.902 21.2623 460.08 21.4747 460.314 21.622C460.548 21.7693 460.83 21.843 461.159 21.843C461.532 21.843 461.848 21.7737 462.108 21.635C462.377 21.4877 462.598 21.271 462.771 20.985L464.24 21.44C463.928 22.0033 463.512 22.428 462.992 22.714C462.481 22.9913 461.865 23.13 461.146 23.13ZM473.97 18.385V17.54H475.439C475.708 17.54 475.942 17.4967 476.141 17.41C476.341 17.3233 476.492 17.1977 476.596 17.033C476.709 16.8683 476.765 16.6733 476.765 16.448C476.765 16.1013 476.644 15.837 476.401 15.655C476.167 15.473 475.847 15.382 475.439 15.382H474.438V21.518H475.634C475.946 21.518 476.228 21.4747 476.479 21.388C476.731 21.2927 476.926 21.1453 477.064 20.946C477.212 20.7467 477.285 20.491 477.285 20.179C477.285 19.9537 477.242 19.763 477.155 19.607C477.077 19.4423 476.96 19.308 476.804 19.204C476.657 19.0913 476.484 19.0133 476.284 18.97C476.085 18.918 475.868 18.892 475.634 18.892H473.97V17.878H475.803C476.245 17.878 476.666 17.9257 477.064 18.021C477.472 18.1163 477.836 18.268 478.156 18.476C478.477 18.6753 478.728 18.9353 478.91 19.256C479.101 19.5767 479.196 19.9623 479.196 20.413C479.196 21.011 479.053 21.5007 478.767 21.882C478.49 22.2633 478.096 22.545 477.584 22.727C477.073 22.909 476.479 23 475.803 23H472.579V13.9H475.608C476.215 13.9 476.748 13.9867 477.207 14.16C477.667 14.3247 478.026 14.576 478.286 14.914C478.546 15.252 478.676 15.681 478.676 16.201C478.676 16.6603 478.546 17.0547 478.286 17.384C478.026 17.7133 477.667 17.9647 477.207 18.138C476.748 18.3027 476.215 18.385 475.608 18.385H473.97ZM483.316 21.141C483.316 21.3143 483.359 21.466 483.446 21.596C483.532 21.7173 483.649 21.8127 483.797 21.882C483.953 21.9427 484.122 21.973 484.304 21.973C484.564 21.973 484.798 21.921 485.006 21.817C485.214 21.7043 485.383 21.5483 485.513 21.349C485.643 21.141 485.708 20.894 485.708 20.608L485.916 21.388C485.916 21.7693 485.807 22.09 485.591 22.35C485.383 22.61 485.11 22.805 484.772 22.935C484.442 23.065 484.096 23.13 483.732 23.13C483.359 23.13 483.012 23.0563 482.692 22.909C482.371 22.7617 482.111 22.5493 481.912 22.272C481.721 21.986 481.626 21.6393 481.626 21.232C481.626 20.6513 481.829 20.192 482.237 19.854C482.644 19.516 483.22 19.347 483.966 19.347C484.347 19.347 484.681 19.386 484.967 19.464C485.261 19.542 485.508 19.6373 485.708 19.75C485.907 19.8627 486.05 19.971 486.137 20.075V20.855C485.903 20.6817 485.638 20.5517 485.344 20.465C485.058 20.3783 484.754 20.335 484.434 20.335C484.174 20.335 483.961 20.3697 483.797 20.439C483.632 20.4997 483.511 20.5907 483.433 20.712C483.355 20.8247 483.316 20.9677 483.316 21.141ZM482.666 18.71L482.042 17.566C482.354 17.4013 482.735 17.2453 483.186 17.098C483.636 16.942 484.139 16.864 484.694 16.864C485.205 16.864 485.66 16.9377 486.059 17.085C486.457 17.2323 486.769 17.449 486.995 17.735C487.22 18.0123 487.333 18.3547 487.333 18.762V23H485.708V19.113C485.708 18.9483 485.682 18.8097 485.63 18.697C485.578 18.5757 485.495 18.476 485.383 18.398C485.279 18.32 485.153 18.2637 485.006 18.229C484.858 18.1943 484.694 18.177 484.512 18.177C484.234 18.177 483.97 18.2073 483.719 18.268C483.467 18.3287 483.251 18.4023 483.069 18.489C482.887 18.5757 482.752 18.6493 482.666 18.71ZM490.693 20.933C490.944 21.167 491.178 21.3577 491.395 21.505C491.612 21.6437 491.815 21.7477 492.006 21.817C492.205 21.8863 492.392 21.921 492.565 21.921C492.79 21.921 492.964 21.8733 493.085 21.778C493.206 21.674 493.267 21.5353 493.267 21.362C493.267 21.206 493.215 21.076 493.111 20.972C493.016 20.8593 492.873 20.7597 492.682 20.673C492.491 20.5863 492.249 20.4953 491.954 20.4C491.677 20.296 491.408 20.1747 491.148 20.036C490.888 19.8887 490.671 19.698 490.498 19.464C490.333 19.2213 490.251 18.9137 490.251 18.541C490.251 18.1857 490.346 17.8867 490.537 17.644C490.728 17.3927 490.983 17.2063 491.304 17.085C491.633 16.955 491.997 16.89 492.396 16.89C492.734 16.89 493.05 16.9333 493.345 17.02C493.64 17.1067 493.913 17.2237 494.164 17.371C494.415 17.5097 494.636 17.6743 494.827 17.865L494.086 18.905C493.869 18.671 493.609 18.4803 493.306 18.333C493.011 18.1857 492.721 18.112 492.435 18.112C492.244 18.112 492.093 18.151 491.98 18.229C491.876 18.2983 491.824 18.4067 491.824 18.554C491.824 18.684 491.876 18.801 491.98 18.905C492.093 19.0003 492.249 19.087 492.448 19.165C492.656 19.243 492.89 19.3383 493.15 19.451C493.471 19.5723 493.765 19.711 494.034 19.867C494.311 20.0143 494.532 20.2007 494.697 20.426C494.862 20.6513 494.944 20.946 494.944 21.31C494.944 21.908 494.749 22.376 494.359 22.714C493.969 23.0433 493.432 23.208 492.747 23.208C492.322 23.208 491.932 23.1517 491.577 23.039C491.23 22.9263 490.914 22.779 490.628 22.597C490.351 22.4063 490.099 22.2027 489.874 21.986L490.693 20.933ZM500.423 23.13C499.773 23.13 499.205 23 498.72 22.74C498.234 22.48 497.857 22.1203 497.589 21.661C497.329 21.193 497.199 20.6427 497.199 20.01C497.199 19.3687 497.329 18.8183 497.589 18.359C497.857 17.891 498.234 17.5313 498.72 17.28C499.205 17.02 499.777 16.89 500.436 16.89C501.094 16.89 501.653 17.0113 502.113 17.254C502.581 17.488 502.936 17.8347 503.179 18.294C503.421 18.7447 503.543 19.2907 503.543 19.932C503.543 20.01 503.538 20.0923 503.53 20.179C503.53 20.2657 503.525 20.335 503.517 20.387H498.161V19.347H502.048L501.593 19.945C501.627 19.893 501.658 19.8237 501.684 19.737C501.718 19.6417 501.736 19.5637 501.736 19.503C501.736 19.2083 501.679 18.957 501.567 18.749C501.463 18.541 501.311 18.3763 501.112 18.255C500.912 18.1337 500.678 18.073 500.41 18.073C500.08 18.073 499.803 18.1467 499.578 18.294C499.361 18.4327 499.192 18.645 499.071 18.931C498.958 19.2083 498.897 19.555 498.889 19.971C498.889 20.3697 498.945 20.7077 499.058 20.985C499.179 21.2623 499.357 21.4747 499.591 21.622C499.825 21.7693 500.106 21.843 500.436 21.843C500.808 21.843 501.125 21.7737 501.385 21.635C501.653 21.4877 501.874 21.271 502.048 20.985L503.517 21.44C503.205 22.0033 502.789 22.428 502.269 22.714C501.757 22.9913 501.142 23.13 500.423 23.13ZM507.582 20.01C507.582 20.3567 507.66 20.66 507.816 20.92C507.972 21.18 508.18 21.3837 508.44 21.531C508.708 21.6783 509.003 21.752 509.324 21.752C509.584 21.752 509.835 21.713 510.078 21.635C510.32 21.5483 510.537 21.4357 510.728 21.297C510.927 21.1497 511.079 20.9807 511.183 20.79V22.519C510.975 22.7097 510.702 22.8613 510.364 22.974C510.034 23.078 509.649 23.13 509.207 23.13C508.574 23.13 508.002 23 507.491 22.74C506.988 22.48 506.589 22.116 506.295 21.648C506.009 21.1713 505.866 20.6253 505.866 20.01C505.866 19.386 506.009 18.84 506.295 18.372C506.589 17.904 506.988 17.54 507.491 17.28C508.002 17.02 508.574 16.89 509.207 16.89C509.649 16.89 510.034 16.9463 510.364 17.059C510.702 17.163 510.975 17.306 511.183 17.488V19.217C511.079 19.0263 510.923 18.8617 510.715 18.723C510.515 18.5757 510.294 18.463 510.052 18.385C509.809 18.307 509.566 18.268 509.324 18.268C509.003 18.268 508.708 18.346 508.44 18.502C508.18 18.6493 507.972 18.853 507.816 19.113C507.66 19.373 507.582 19.672 507.582 20.01ZM515.853 12.86V23H514.163V12.86H515.853ZM518.024 19.36C518.024 18.9613 517.946 18.658 517.79 18.45C517.643 18.242 517.391 18.138 517.036 18.138C516.802 18.138 516.594 18.19 516.412 18.294C516.23 18.3893 516.091 18.528 515.996 18.71C515.901 18.892 515.853 19.1087 515.853 19.36H515.515C515.515 18.8833 515.593 18.4543 515.749 18.073C515.914 17.6917 516.156 17.3883 516.477 17.163C516.798 16.9377 517.192 16.825 517.66 16.825C518.128 16.825 518.514 16.9117 518.817 17.085C519.12 17.2583 519.346 17.5183 519.493 17.865C519.64 18.203 519.714 18.619 519.714 19.113V23H518.024V19.36ZM524.065 21.141C524.065 21.3143 524.108 21.466 524.195 21.596C524.282 21.7173 524.399 21.8127 524.546 21.882C524.702 21.9427 524.871 21.973 525.053 21.973C525.313 21.973 525.547 21.921 525.755 21.817C525.963 21.7043 526.132 21.5483 526.262 21.349C526.392 21.141 526.457 20.894 526.457 20.608L526.665 21.388C526.665 21.7693 526.557 22.09 526.34 22.35C526.132 22.61 525.859 22.805 525.521 22.935C525.192 23.065 524.845 23.13 524.481 23.13C524.108 23.13 523.762 23.0563 523.441 22.909C523.12 22.7617 522.86 22.5493 522.661 22.272C522.47 21.986 522.375 21.6393 522.375 21.232C522.375 20.6513 522.579 20.192 522.986 19.854C523.393 19.516 523.97 19.347 524.715 19.347C525.096 19.347 525.43 19.386 525.716 19.464C526.011 19.542 526.258 19.6373 526.457 19.75C526.656 19.8627 526.799 19.971 526.886 20.075V20.855C526.652 20.6817 526.388 20.5517 526.093 20.465C525.807 20.3783 525.504 20.335 525.183 20.335C524.923 20.335 524.711 20.3697 524.546 20.439C524.381 20.4997 524.26 20.5907 524.182 20.712C524.104 20.8247 524.065 20.9677 524.065 21.141ZM523.415 18.71L522.791 17.566C523.103 17.4013 523.484 17.2453 523.935 17.098C524.386 16.942 524.888 16.864 525.443 16.864C525.954 16.864 526.409 16.9377 526.808 17.085C527.207 17.2323 527.519 17.449 527.744 17.735C527.969 18.0123 528.082 18.3547 528.082 18.762V23H526.457V19.113C526.457 18.9483 526.431 18.8097 526.379 18.697C526.327 18.5757 526.245 18.476 526.132 18.398C526.028 18.32 525.902 18.2637 525.755 18.229C525.608 18.1943 525.443 18.177 525.261 18.177C524.984 18.177 524.719 18.2073 524.468 18.268C524.217 18.3287 524 18.4023 523.818 18.489C523.636 18.5757 523.502 18.6493 523.415 18.71ZM531.065 14.706C531.065 14.4287 531.165 14.2033 531.364 14.03C531.564 13.848 531.802 13.757 532.079 13.757C532.357 13.757 532.591 13.848 532.781 14.03C532.981 14.2033 533.08 14.4287 533.08 14.706C533.08 14.9747 532.981 15.2 532.781 15.382C532.591 15.564 532.357 15.655 532.079 15.655C531.802 15.655 531.564 15.564 531.364 15.382C531.165 15.2 531.065 14.9747 531.065 14.706ZM531.247 17.02H532.885V23H531.247V17.02ZM540.029 19.36C540.029 18.9613 539.951 18.658 539.795 18.45C539.639 18.242 539.387 18.138 539.041 18.138C538.807 18.138 538.599 18.19 538.417 18.294C538.235 18.3893 538.096 18.528 538.001 18.71C537.905 18.892 537.858 19.1087 537.858 19.36V23H536.168V17.02H537.858V17.93C538.04 17.592 538.278 17.3363 538.573 17.163C538.876 16.981 539.24 16.89 539.665 16.89C540.375 16.89 540.904 17.0937 541.251 17.501C541.597 17.8997 541.771 18.4587 541.771 19.178V23H540.029V19.36ZM551.669 23V21.427H556.258V23H551.669ZM551.669 15.473V13.9H556.258V15.473H551.669ZM551.669 18.944V17.397H555.998V18.944H551.669ZM550.473 13.9H552.267V23H550.473V13.9ZM560.703 20.01C560.703 20.3567 560.781 20.66 560.937 20.92C561.093 21.18 561.301 21.3837 561.561 21.531C561.83 21.6783 562.124 21.752 562.445 21.752C562.705 21.752 562.956 21.713 563.199 21.635C563.442 21.5483 563.658 21.4357 563.849 21.297C564.048 21.1497 564.2 20.9807 564.304 20.79V22.519C564.096 22.7097 563.823 22.8613 563.485 22.974C563.156 23.078 562.77 23.13 562.328 23.13C561.695 23.13 561.123 23 560.612 22.74C560.109 22.48 559.711 22.116 559.416 21.648C559.13 21.1713 558.987 20.6253 558.987 20.01C558.987 19.386 559.13 18.84 559.416 18.372C559.711 17.904 560.109 17.54 560.612 17.28C561.123 17.02 561.695 16.89 562.328 16.89C562.77 16.89 563.156 16.9463 563.485 17.059C563.823 17.163 564.096 17.306 564.304 17.488V19.217C564.2 19.0263 564.044 18.8617 563.836 18.723C563.637 18.5757 563.416 18.463 563.173 18.385C562.93 18.307 562.688 18.268 562.445 18.268C562.124 18.268 561.83 18.346 561.561 18.502C561.301 18.6493 561.093 18.853 560.937 19.113C560.781 19.373 560.703 19.672 560.703 20.01ZM566.881 20.01C566.881 19.386 567.024 18.84 567.31 18.372C567.605 17.904 567.999 17.54 568.493 17.28C568.996 17.02 569.564 16.89 570.196 16.89C570.829 16.89 571.392 17.02 571.886 17.28C572.389 17.54 572.783 17.904 573.069 18.372C573.364 18.84 573.511 19.386 573.511 20.01C573.511 20.6253 573.364 21.1713 573.069 21.648C572.783 22.116 572.389 22.48 571.886 22.74C571.392 23 570.829 23.13 570.196 23.13C569.564 23.13 568.996 23 568.493 22.74C567.999 22.48 567.605 22.116 567.31 21.648C567.024 21.1713 566.881 20.6253 566.881 20.01ZM568.597 20.01C568.597 20.348 568.667 20.647 568.805 20.907C568.953 21.1583 569.148 21.3577 569.39 21.505C569.633 21.6437 569.902 21.713 570.196 21.713C570.491 21.713 570.76 21.6437 571.002 21.505C571.245 21.3577 571.436 21.1583 571.574 20.907C571.722 20.647 571.795 20.348 571.795 20.01C571.795 19.672 571.722 19.373 571.574 19.113C571.436 18.853 571.245 18.6537 571.002 18.515C570.76 18.3763 570.491 18.307 570.196 18.307C569.902 18.307 569.633 18.3763 569.39 18.515C569.148 18.6537 568.953 18.853 568.805 19.113C568.667 19.373 568.597 19.672 568.597 20.01ZM576.569 20.933C576.82 21.167 577.054 21.3577 577.271 21.505C577.487 21.6437 577.691 21.7477 577.882 21.817C578.081 21.8863 578.267 21.921 578.441 21.921C578.666 21.921 578.839 21.8733 578.961 21.778C579.082 21.674 579.143 21.5353 579.143 21.362C579.143 21.206 579.091 21.076 578.987 20.972C578.891 20.8593 578.748 20.7597 578.558 20.673C578.367 20.5863 578.124 20.4953 577.83 20.4C577.552 20.296 577.284 20.1747 577.024 20.036C576.764 19.8887 576.547 19.698 576.374 19.464C576.209 19.2213 576.127 18.9137 576.127 18.541C576.127 18.1857 576.222 17.8867 576.413 17.644C576.603 17.3927 576.859 17.2063 577.18 17.085C577.509 16.955 577.873 16.89 578.272 16.89C578.61 16.89 578.926 16.9333 579.221 17.02C579.515 17.1067 579.788 17.2237 580.04 17.371C580.291 17.5097 580.512 17.6743 580.703 17.865L579.962 18.905C579.745 18.671 579.485 18.4803 579.182 18.333C578.887 18.1857 578.597 18.112 578.311 18.112C578.12 18.112 577.968 18.151 577.856 18.229C577.752 18.2983 577.7 18.4067 577.7 18.554C577.7 18.684 577.752 18.801 577.856 18.905C577.968 19.0003 578.124 19.087 578.324 19.165C578.532 19.243 578.766 19.3383 579.026 19.451C579.346 19.5723 579.641 19.711 579.91 19.867C580.187 20.0143 580.408 20.2007 580.573 20.426C580.737 20.6513 580.82 20.946 580.82 21.31C580.82 21.908 580.625 22.376 580.235 22.714C579.845 23.0433 579.307 23.208 578.623 23.208C578.198 23.208 577.808 23.1517 577.453 23.039C577.106 22.9263 576.79 22.779 576.504 22.597C576.226 22.4063 575.975 22.2027 575.75 21.986L576.569 20.933ZM589.108 17.02L585.208 25.86H583.479L584.987 22.402L582.504 17.02H584.376L586.3 21.778L585.468 21.752L587.353 17.02H589.108ZM591.657 20.933C591.909 21.167 592.143 21.3577 592.359 21.505C592.576 21.6437 592.78 21.7477 592.97 21.817C593.17 21.8863 593.356 21.921 593.529 21.921C593.755 21.921 593.928 21.8733 594.049 21.778C594.171 21.674 594.231 21.5353 594.231 21.362C594.231 21.206 594.179 21.076 594.075 20.972C593.98 20.8593 593.837 20.7597 593.646 20.673C593.456 20.5863 593.213 20.4953 592.918 20.4C592.641 20.296 592.372 20.1747 592.112 20.036C591.852 19.8887 591.636 19.698 591.462 19.464C591.298 19.2213 591.215 18.9137 591.215 18.541C591.215 18.1857 591.311 17.8867 591.501 17.644C591.692 17.3927 591.948 17.2063 592.268 17.085C592.598 16.955 592.962 16.89 593.36 16.89C593.698 16.89 594.015 16.9333 594.309 17.02C594.604 17.1067 594.877 17.2237 595.128 17.371C595.38 17.5097 595.601 17.6743 595.791 17.865L595.05 18.905C594.834 18.671 594.574 18.4803 594.27 18.333C593.976 18.1857 593.685 18.112 593.399 18.112C593.209 18.112 593.057 18.151 592.944 18.229C592.84 18.2983 592.788 18.4067 592.788 18.554C592.788 18.684 592.84 18.801 592.944 18.905C593.057 19.0003 593.213 19.087 593.412 19.165C593.62 19.243 593.854 19.3383 594.114 19.451C594.435 19.5723 594.73 19.711 594.998 19.867C595.276 20.0143 595.497 20.2007 595.661 20.426C595.826 20.6513 595.908 20.946 595.908 21.31C595.908 21.908 595.713 22.376 595.323 22.714C594.933 23.0433 594.396 23.208 593.711 23.208C593.287 23.208 592.897 23.1517 592.541 23.039C592.195 22.9263 591.878 22.779 591.592 22.597C591.315 22.4063 591.064 22.2027 590.838 21.986L591.657 20.933ZM597.799 17.02H601.491V18.437H597.799V17.02ZM598.826 14.94H600.451V23H598.826V14.94ZM606.703 23.13C606.053 23.13 605.486 23 605 22.74C604.515 22.48 604.138 22.1203 603.869 21.661C603.609 21.193 603.479 20.6427 603.479 20.01C603.479 19.3687 603.609 18.8183 603.869 18.359C604.138 17.891 604.515 17.5313 605 17.28C605.486 17.02 606.058 16.89 606.716 16.89C607.375 16.89 607.934 17.0113 608.393 17.254C608.861 17.488 609.217 17.8347 609.459 18.294C609.702 18.7447 609.823 19.2907 609.823 19.932C609.823 20.01 609.819 20.0923 609.81 20.179C609.81 20.2657 609.806 20.335 609.797 20.387H604.441V19.347H608.328L607.873 19.945C607.908 19.893 607.938 19.8237 607.964 19.737C607.999 19.6417 608.016 19.5637 608.016 19.503C608.016 19.2083 607.96 18.957 607.847 18.749C607.743 18.541 607.592 18.3763 607.392 18.255C607.193 18.1337 606.959 18.073 606.69 18.073C606.361 18.073 606.084 18.1467 605.858 18.294C605.642 18.4327 605.473 18.645 605.351 18.931C605.239 19.2083 605.178 19.555 605.169 19.971C605.169 20.3697 605.226 20.7077 605.338 20.985C605.46 21.2623 605.637 21.4747 605.871 21.622C606.105 21.7693 606.387 21.843 606.716 21.843C607.089 21.843 607.405 21.7737 607.665 21.635C607.934 21.4877 608.155 21.271 608.328 20.985L609.797 21.44C609.485 22.0033 609.069 22.428 608.549 22.714C608.038 22.9913 607.423 23.13 606.703 23.13ZM621.428 19.178V23H619.738V19.36C619.738 18.9527 619.669 18.6493 619.53 18.45C619.392 18.242 619.166 18.138 618.854 18.138C618.646 18.138 618.464 18.1857 618.308 18.281C618.152 18.3677 618.031 18.5063 617.944 18.697C617.858 18.879 617.814 19.1 617.814 19.36V23H616.137V19.36C616.137 18.9527 616.068 18.6493 615.929 18.45C615.791 18.242 615.565 18.138 615.253 18.138C615.045 18.138 614.863 18.1857 614.707 18.281C614.551 18.3677 614.43 18.5063 614.343 18.697C614.257 18.879 614.213 19.1 614.213 19.36V23H612.588V17.02H614.213V17.904C614.387 17.5747 614.616 17.3233 614.902 17.15C615.188 16.9767 615.531 16.89 615.929 16.89C616.371 16.89 616.735 16.9767 617.021 17.15C617.307 17.3233 617.515 17.579 617.645 17.917C617.862 17.579 618.126 17.3233 618.438 17.15C618.759 16.9767 619.123 16.89 619.53 16.89C619.972 16.89 620.332 16.981 620.609 17.163C620.887 17.3363 621.09 17.5963 621.22 17.943C621.359 18.281 621.428 18.6927 621.428 19.178Z" fill="#6A6A6A"/>
</svg>
