<svg width="636" height="36" viewBox="0 0 636 36" fill="none" xmlns="http://www.w3.org/2000/svg">
<rect width="636" height="36" rx="18" fill="#111111"/>
<rect x="0.5" y="0.5" width="635" height="35" rx="17.5" stroke="white" stroke-opacity="0.24"/>
<rect x="6" y="6" width="43" height="23" rx="11.5" fill="#FC6D26"/>
<path d="M20.888 13.6H22.544V22.42L16.568 16.792V22H14.912V13.18L20.888 18.808V13.6ZM28.209 22.12C27.609 22.12 27.085 22 26.637 21.76C26.189 21.52 25.841 21.188 25.593 20.764C25.353 20.332 25.233 19.824 25.233 19.24C25.233 18.648 25.353 18.14 25.593 17.716C25.841 17.284 26.189 16.952 26.637 16.72C27.085 16.48 27.613 16.36 28.221 16.36C28.829 16.36 29.345 16.472 29.769 16.696C30.201 16.912 30.529 17.232 30.753 17.656C30.977 18.072 31.089 18.576 31.089 19.168C31.089 19.24 31.085 19.316 31.077 19.396C31.077 19.476 31.073 19.54 31.065 19.588H26.121V18.628H29.709L29.289 19.18C29.321 19.132 29.349 19.068 29.373 18.988C29.405 18.9 29.421 18.828 29.421 18.772C29.421 18.5 29.369 18.268 29.265 18.076C29.169 17.884 29.029 17.732 28.845 17.62C28.661 17.508 28.445 17.452 28.197 17.452C27.893 17.452 27.637 17.52 27.429 17.656C27.229 17.784 27.073 17.98 26.961 18.244C26.857 18.5 26.801 18.82 26.793 19.204C26.793 19.572 26.845 19.884 26.949 20.14C27.061 20.396 27.225 20.592 27.441 20.728C27.657 20.864 27.917 20.932 28.221 20.932C28.565 20.932 28.857 20.868 29.097 20.74C29.345 20.604 29.549 20.404 29.709 20.14L31.065 20.56C30.777 21.08 30.393 21.472 29.913 21.736C29.441 21.992 28.873 22.12 28.209 22.12ZM32.6495 16.48H34.3055L35.5175 19.54L37.0775 16.06L38.6975 19.552L39.9215 16.48H41.5655L38.8655 22.372L37.0895 18.856L35.3615 22.372L32.6495 16.48Z" fill="black"/>
<path d="M60.184 23V21.427H64.773V23H60.184ZM60.184 15.473V13.9H64.773V15.473H60.184ZM60.184 18.944V17.397H64.513V18.944H60.184ZM58.988 13.9H60.782V23H58.988V13.9ZM69.1402 21.141C69.1402 21.3143 69.1835 21.466 69.2702 21.596C69.3569 21.7173 69.4739 21.8127 69.6212 21.882C69.7772 21.9427 69.9462 21.973 70.1282 21.973C70.3882 21.973 70.6222 21.921 70.8302 21.817C71.0382 21.7043 71.2072 21.5483 71.3372 21.349C71.4672 21.141 71.5322 20.894 71.5322 20.608L71.7402 21.388C71.7402 21.7693 71.6319 22.09 71.4152 22.35C71.2072 22.61 70.9342 22.805 70.5962 22.935C70.2669 23.065 69.9202 23.13 69.5562 23.13C69.1835 23.13 68.8369 23.0563 68.5162 22.909C68.1955 22.7617 67.9355 22.5493 67.7362 22.272C67.5455 21.986 67.4502 21.6393 67.4502 21.232C67.4502 20.6513 67.6539 20.192 68.0612 19.854C68.4685 19.516 69.0449 19.347 69.7902 19.347C70.1715 19.347 70.5052 19.386 70.7912 19.464C71.0859 19.542 71.3329 19.6373 71.5322 19.75C71.7315 19.8627 71.8745 19.971 71.9612 20.075V20.855C71.7272 20.6817 71.4629 20.5517 71.1682 20.465C70.8822 20.3783 70.5789 20.335 70.2582 20.335C69.9982 20.335 69.7859 20.3697 69.6212 20.439C69.4565 20.4997 69.3352 20.5907 69.2572 20.712C69.1792 20.8247 69.1402 20.9677 69.1402 21.141ZM68.4902 18.71L67.8662 17.566C68.1782 17.4013 68.5595 17.2453 69.0102 17.098C69.4609 16.942 69.9635 16.864 70.5182 16.864C71.0295 16.864 71.4845 16.9377 71.8832 17.085C72.2819 17.2323 72.5939 17.449 72.8192 17.735C73.0445 18.0123 73.1572 18.3547 73.1572 18.762V23H71.5322V19.113C71.5322 18.9483 71.5062 18.8097 71.4542 18.697C71.4022 18.5757 71.3199 18.476 71.2072 18.398C71.1032 18.32 70.9775 18.2637 70.8302 18.229C70.6829 18.1943 70.5182 18.177 70.3362 18.177C70.0589 18.177 69.7945 18.2073 69.5432 18.268C69.2919 18.3287 69.0752 18.4023 68.8932 18.489C68.7112 18.5757 68.5769 18.6493 68.4902 18.71ZM76.5175 20.933C76.7688 21.167 77.0028 21.3577 77.2195 21.505C77.4362 21.6437 77.6398 21.7477 77.8305 21.817C78.0298 21.8863 78.2162 21.921 78.3895 21.921C78.6148 21.921 78.7882 21.8733 78.9095 21.778C79.0308 21.674 79.0915 21.5353 79.0915 21.362C79.0915 21.206 79.0395 21.076 78.9355 20.972C78.8402 20.8593 78.6972 20.7597 78.5065 20.673C78.3158 20.5863 78.0732 20.4953 77.7785 20.4C77.5012 20.296 77.2325 20.1747 76.9725 20.036C76.7125 19.8887 76.4958 19.698 76.3225 19.464C76.1578 19.2213 76.0755 18.9137 76.0755 18.541C76.0755 18.1857 76.1708 17.8867 76.3615 17.644C76.5522 17.3927 76.8078 17.2063 77.1285 17.085C77.4578 16.955 77.8218 16.89 78.2205 16.89C78.5585 16.89 78.8748 16.9333 79.1695 17.02C79.4642 17.1067 79.7372 17.2237 79.9885 17.371C80.2398 17.5097 80.4608 17.6743 80.6515 17.865L79.9105 18.905C79.6938 18.671 79.4338 18.4803 79.1305 18.333C78.8358 18.1857 78.5455 18.112 78.2595 18.112C78.0688 18.112 77.9172 18.151 77.8045 18.229C77.7005 18.2983 77.6485 18.4067 77.6485 18.554C77.6485 18.684 77.7005 18.801 77.8045 18.905C77.9172 19.0003 78.0732 19.087 78.2725 19.165C78.4805 19.243 78.7145 19.3383 78.9745 19.451C79.2952 19.5723 79.5898 19.711 79.8585 19.867C80.1358 20.0143 80.3568 20.2007 80.5215 20.426C80.6862 20.6513 80.7685 20.946 80.7685 21.31C80.7685 21.908 80.5735 22.376 80.1835 22.714C79.7935 23.0433 79.2562 23.208 78.5715 23.208C78.1468 23.208 77.7568 23.1517 77.4015 23.039C77.0548 22.9263 76.7385 22.779 76.4525 22.597C76.1752 22.4063 75.9238 22.2027 75.6985 21.986L76.5175 20.933ZM89.0569 17.02L85.1569 25.86H83.4279L84.9359 22.402L82.4529 17.02H84.3249L86.2489 21.778L85.4169 21.752L87.3019 17.02H89.0569ZM97.9736 20.01C97.9736 20.3567 98.0516 20.66 98.2076 20.92C98.3636 21.18 98.5716 21.3837 98.8316 21.531C99.1002 21.6783 99.3949 21.752 99.7156 21.752C99.9756 21.752 100.227 21.713 100.47 21.635C100.712 21.5483 100.929 21.4357 101.12 21.297C101.319 21.1497 101.471 20.9807 101.575 20.79V22.519C101.367 22.7097 101.094 22.8613 100.756 22.974C100.426 23.078 100.041 23.13 99.5986 23.13C98.9659 23.13 98.3939 23 97.8826 22.74C97.3799 22.48 96.9812 22.116 96.6866 21.648C96.4006 21.1713 96.2576 20.6253 96.2576 20.01C96.2576 19.386 96.4006 18.84 96.6866 18.372C96.9812 17.904 97.3799 17.54 97.8826 17.28C98.3939 17.02 98.9659 16.89 99.5986 16.89C100.041 16.89 100.426 16.9463 100.756 17.059C101.094 17.163 101.367 17.306 101.575 17.488V19.217C101.471 19.0263 101.315 18.8617 101.107 18.723C100.907 18.5757 100.686 18.463 100.444 18.385C100.201 18.307 99.9582 18.268 99.7156 18.268C99.3949 18.268 99.1002 18.346 98.8316 18.502C98.5716 18.6493 98.3636 18.853 98.2076 19.113C98.0516 19.373 97.9736 19.672 97.9736 20.01ZM104.152 20.01C104.152 19.386 104.295 18.84 104.581 18.372C104.876 17.904 105.27 17.54 105.764 17.28C106.267 17.02 106.834 16.89 107.467 16.89C108.1 16.89 108.663 17.02 109.157 17.28C109.66 17.54 110.054 17.904 110.34 18.372C110.635 18.84 110.782 19.386 110.782 20.01C110.782 20.6253 110.635 21.1713 110.34 21.648C110.054 22.116 109.66 22.48 109.157 22.74C108.663 23 108.1 23.13 107.467 23.13C106.834 23.13 106.267 23 105.764 22.74C105.27 22.48 104.876 22.116 104.581 21.648C104.295 21.1713 104.152 20.6253 104.152 20.01ZM105.868 20.01C105.868 20.348 105.937 20.647 106.076 20.907C106.223 21.1583 106.418 21.3577 106.661 21.505C106.904 21.6437 107.172 21.713 107.467 21.713C107.762 21.713 108.03 21.6437 108.273 21.505C108.516 21.3577 108.706 21.1583 108.845 20.907C108.992 20.647 109.066 20.348 109.066 20.01C109.066 19.672 108.992 19.373 108.845 19.113C108.706 18.853 108.516 18.6537 108.273 18.515C108.03 18.3763 107.762 18.307 107.467 18.307C107.172 18.307 106.904 18.3763 106.661 18.515C106.418 18.6537 106.223 18.853 106.076 19.113C105.937 19.373 105.868 19.672 105.868 20.01ZM115.191 25.86H113.501V17.02H115.191V25.86ZM120.105 20.01C120.105 20.686 119.971 21.2623 119.702 21.739C119.433 22.2157 119.078 22.5753 118.636 22.818C118.203 23.0607 117.735 23.182 117.232 23.182C116.721 23.182 116.274 23.052 115.893 22.792C115.52 22.532 115.23 22.1637 115.022 21.687C114.823 21.2103 114.723 20.6513 114.723 20.01C114.723 19.36 114.823 18.801 115.022 18.333C115.23 17.8563 115.52 17.488 115.893 17.228C116.274 16.968 116.721 16.838 117.232 16.838C117.735 16.838 118.203 16.9593 118.636 17.202C119.078 17.4447 119.433 17.8043 119.702 18.281C119.971 18.749 120.105 19.3253 120.105 20.01ZM118.363 20.01C118.363 19.6547 118.289 19.3513 118.142 19.1C117.995 18.8487 117.795 18.658 117.544 18.528C117.301 18.398 117.033 18.333 116.738 18.333C116.487 18.333 116.24 18.398 115.997 18.528C115.763 18.6493 115.568 18.8357 115.412 19.087C115.265 19.3383 115.191 19.646 115.191 20.01C115.191 20.374 115.265 20.6817 115.412 20.933C115.568 21.1843 115.763 21.375 115.997 21.505C116.24 21.6263 116.487 21.687 116.738 21.687C117.033 21.687 117.301 21.622 117.544 21.492C117.795 21.362 117.995 21.1713 118.142 20.92C118.289 20.6687 118.363 20.3653 118.363 20.01ZM128.359 17.02L124.459 25.86H122.73L124.238 22.402L121.755 17.02H123.627L125.551 21.778L124.719 21.752L126.604 17.02H128.359ZM134.71 13.9H136.335L130.875 24.95H129.198L134.71 13.9ZM139.595 25.86H137.905V17.02H139.595V25.86ZM144.509 20.01C144.509 20.686 144.375 21.2623 144.106 21.739C143.837 22.2157 143.482 22.5753 143.04 22.818C142.607 23.0607 142.139 23.182 141.636 23.182C141.125 23.182 140.678 23.052 140.297 22.792C139.924 22.532 139.634 22.1637 139.426 21.687C139.227 21.2103 139.127 20.6513 139.127 20.01C139.127 19.36 139.227 18.801 139.426 18.333C139.634 17.8563 139.924 17.488 140.297 17.228C140.678 16.968 141.125 16.838 141.636 16.838C142.139 16.838 142.607 16.9593 143.04 17.202C143.482 17.4447 143.837 17.8043 144.106 18.281C144.375 18.749 144.509 19.3253 144.509 20.01ZM142.767 20.01C142.767 19.6547 142.693 19.3513 142.546 19.1C142.399 18.8487 142.199 18.658 141.948 18.528C141.705 18.398 141.437 18.333 141.142 18.333C140.891 18.333 140.644 18.398 140.401 18.528C140.167 18.6493 139.972 18.8357 139.816 19.087C139.669 19.3383 139.595 19.646 139.595 20.01C139.595 20.374 139.669 20.6817 139.816 20.933C139.972 21.1843 140.167 21.375 140.401 21.505C140.644 21.6263 140.891 21.687 141.142 21.687C141.437 21.687 141.705 21.622 141.948 21.492C142.199 21.362 142.399 21.1713 142.546 20.92C142.693 20.6687 142.767 20.3653 142.767 20.01ZM148.455 21.141C148.455 21.3143 148.499 21.466 148.585 21.596C148.672 21.7173 148.789 21.8127 148.936 21.882C149.092 21.9427 149.261 21.973 149.443 21.973C149.703 21.973 149.937 21.921 150.145 21.817C150.353 21.7043 150.522 21.5483 150.652 21.349C150.782 21.141 150.847 20.894 150.847 20.608L151.055 21.388C151.055 21.7693 150.947 22.09 150.73 22.35C150.522 22.61 150.249 22.805 149.911 22.935C149.582 23.065 149.235 23.13 148.871 23.13C148.499 23.13 148.152 23.0563 147.831 22.909C147.511 22.7617 147.251 22.5493 147.051 22.272C146.861 21.986 146.765 21.6393 146.765 21.232C146.765 20.6513 146.969 20.192 147.376 19.854C147.784 19.516 148.36 19.347 149.105 19.347C149.487 19.347 149.82 19.386 150.106 19.464C150.401 19.542 150.648 19.6373 150.847 19.75C151.047 19.8627 151.19 19.971 151.276 20.075V20.855C151.042 20.6817 150.778 20.5517 150.483 20.465C150.197 20.3783 149.894 20.335 149.573 20.335C149.313 20.335 149.101 20.3697 148.936 20.439C148.772 20.4997 148.65 20.5907 148.572 20.712C148.494 20.8247 148.455 20.9677 148.455 21.141ZM147.805 18.71L147.181 17.566C147.493 17.4013 147.875 17.2453 148.325 17.098C148.776 16.942 149.279 16.864 149.833 16.864C150.345 16.864 150.8 16.9377 151.198 17.085C151.597 17.2323 151.909 17.449 152.134 17.735C152.36 18.0123 152.472 18.3547 152.472 18.762V23H150.847V19.113C150.847 18.9483 150.821 18.8097 150.769 18.697C150.717 18.5757 150.635 18.476 150.522 18.398C150.418 18.32 150.293 18.2637 150.145 18.229C149.998 18.1943 149.833 18.177 149.651 18.177C149.374 18.177 149.11 18.2073 148.858 18.268C148.607 18.3287 148.39 18.4023 148.208 18.489C148.026 18.5757 147.892 18.6493 147.805 18.71ZM155.833 20.933C156.084 21.167 156.318 21.3577 156.535 21.505C156.751 21.6437 156.955 21.7477 157.146 21.817C157.345 21.8863 157.531 21.921 157.705 21.921C157.93 21.921 158.103 21.8733 158.225 21.778C158.346 21.674 158.407 21.5353 158.407 21.362C158.407 21.206 158.355 21.076 158.251 20.972C158.155 20.8593 158.012 20.7597 157.822 20.673C157.631 20.5863 157.388 20.4953 157.094 20.4C156.816 20.296 156.548 20.1747 156.288 20.036C156.028 19.8887 155.811 19.698 155.638 19.464C155.473 19.2213 155.391 18.9137 155.391 18.541C155.391 18.1857 155.486 17.8867 155.677 17.644C155.867 17.3927 156.123 17.2063 156.444 17.085C156.773 16.955 157.137 16.89 157.536 16.89C157.874 16.89 158.19 16.9333 158.485 17.02C158.779 17.1067 159.052 17.2237 159.304 17.371C159.555 17.5097 159.776 17.6743 159.967 17.865L159.226 18.905C159.009 18.671 158.749 18.4803 158.446 18.333C158.151 18.1857 157.861 18.112 157.575 18.112C157.384 18.112 157.232 18.151 157.12 18.229C157.016 18.2983 156.964 18.4067 156.964 18.554C156.964 18.684 157.016 18.801 157.12 18.905C157.232 19.0003 157.388 19.087 157.588 19.165C157.796 19.243 158.03 19.3383 158.29 19.451C158.61 19.5723 158.905 19.711 159.174 19.867C159.451 20.0143 159.672 20.2007 159.837 20.426C160.001 20.6513 160.084 20.946 160.084 21.31C160.084 21.908 159.889 22.376 159.499 22.714C159.109 23.0433 158.571 23.208 157.887 23.208C157.462 23.208 157.072 23.1517 156.717 23.039C156.37 22.9263 156.054 22.779 155.768 22.597C155.49 22.4063 155.239 22.2027 155.014 21.986L155.833 20.933ZM161.975 17.02H165.667V18.437H161.975V17.02ZM163.002 14.94H164.627V23H163.002V14.94ZM170.879 23.13C170.229 23.13 169.661 23 169.176 22.74C168.691 22.48 168.314 22.1203 168.045 21.661C167.785 21.193 167.655 20.6427 167.655 20.01C167.655 19.3687 167.785 18.8183 168.045 18.359C168.314 17.891 168.691 17.5313 169.176 17.28C169.661 17.02 170.233 16.89 170.892 16.89C171.551 16.89 172.11 17.0113 172.569 17.254C173.037 17.488 173.392 17.8347 173.635 18.294C173.878 18.7447 173.999 19.2907 173.999 19.932C173.999 20.01 173.995 20.0923 173.986 20.179C173.986 20.2657 173.982 20.335 173.973 20.387H168.617V19.347H172.504L172.049 19.945C172.084 19.893 172.114 19.8237 172.14 19.737C172.175 19.6417 172.192 19.5637 172.192 19.503C172.192 19.2083 172.136 18.957 172.023 18.749C171.919 18.541 171.767 18.3763 171.568 18.255C171.369 18.1337 171.135 18.073 170.866 18.073C170.537 18.073 170.259 18.1467 170.034 18.294C169.817 18.4327 169.648 18.645 169.527 18.931C169.414 19.2083 169.354 19.555 169.345 19.971C169.345 20.3697 169.401 20.7077 169.514 20.985C169.635 21.2623 169.813 21.4747 170.047 21.622C170.281 21.7693 170.563 21.843 170.892 21.843C171.265 21.843 171.581 21.7737 171.841 21.635C172.11 21.4877 172.331 21.271 172.504 20.985L173.973 21.44C173.661 22.0033 173.245 22.428 172.725 22.714C172.214 22.9913 171.598 23.13 170.879 23.13ZM183.807 18.45C183.807 19.048 183.942 19.5723 184.21 20.023C184.488 20.465 184.847 20.8073 185.289 21.05C185.731 21.284 186.212 21.401 186.732 21.401C187.166 21.401 187.551 21.3447 187.889 21.232C188.227 21.1193 188.531 20.9677 188.799 20.777C189.077 20.5863 189.315 20.3783 189.514 20.153V22.246C189.142 22.5407 188.734 22.7703 188.292 22.935C187.859 23.0997 187.309 23.182 186.641 23.182C185.948 23.182 185.302 23.0693 184.704 22.844C184.115 22.6187 183.599 22.2937 183.157 21.869C182.724 21.4443 182.386 20.946 182.143 20.374C181.909 19.7933 181.792 19.152 181.792 18.45C181.792 17.748 181.909 17.111 182.143 16.539C182.386 15.9583 182.724 15.4557 183.157 15.031C183.599 14.6063 184.115 14.2813 184.704 14.056C185.302 13.8307 185.948 13.718 186.641 13.718C187.309 13.718 187.859 13.8003 188.292 13.965C188.734 14.1297 189.142 14.3593 189.514 14.654V16.747C189.315 16.5217 189.077 16.3137 188.799 16.123C188.531 15.9323 188.227 15.7807 187.889 15.668C187.551 15.5553 187.166 15.499 186.732 15.499C186.212 15.499 185.731 15.6203 185.289 15.863C184.847 16.097 184.488 16.435 184.21 16.877C183.942 17.319 183.807 17.8433 183.807 18.45ZM193.93 20.933L194.151 19.464H198.519L198.74 20.933H193.93ZM196.309 16.851L194.944 19.984L194.983 20.4L193.787 23H191.694L196.309 13.367L200.924 23H198.818L197.648 20.478L197.674 20.01L196.309 16.851ZM203.406 22.233C203.406 21.9383 203.505 21.6913 203.705 21.492C203.913 21.284 204.168 21.18 204.472 21.18C204.784 21.18 205.039 21.284 205.239 21.492C205.438 21.6913 205.538 21.9383 205.538 22.233C205.538 22.5103 205.438 22.753 205.239 22.961C205.039 23.169 204.784 23.273 204.472 23.273C204.168 23.273 203.913 23.169 203.705 22.961C203.505 22.753 203.406 22.5103 203.406 22.233ZM203.406 17.345C203.406 17.059 203.505 16.812 203.705 16.604C203.913 16.396 204.168 16.292 204.472 16.292C204.784 16.292 205.039 16.396 205.239 16.604C205.438 16.812 205.538 17.059 205.538 17.345C205.538 17.631 205.438 17.878 205.239 18.086C205.039 18.294 204.784 18.398 204.472 18.398C204.168 18.398 203.913 18.294 203.705 18.086C203.505 17.878 203.406 17.631 203.406 17.345ZM214.394 13.9H216.253V21.375H219.88V23H214.394V13.9ZM221.881 20.01C221.881 19.386 222.024 18.84 222.31 18.372C222.604 17.904 222.999 17.54 223.493 17.28C223.995 17.02 224.563 16.89 225.196 16.89C225.828 16.89 226.392 17.02 226.886 17.28C227.388 17.54 227.783 17.904 228.069 18.372C228.363 18.84 228.511 19.386 228.511 20.01C228.511 20.6253 228.363 21.1713 228.069 21.648C227.783 22.116 227.388 22.48 226.886 22.74C226.392 23 225.828 23.13 225.196 23.13C224.563 23.13 223.995 23 223.493 22.74C222.999 22.48 222.604 22.116 222.31 21.648C222.024 21.1713 221.881 20.6253 221.881 20.01ZM223.597 20.01C223.597 20.348 223.666 20.647 223.805 20.907C223.952 21.1583 224.147 21.3577 224.39 21.505C224.632 21.6437 224.901 21.713 225.196 21.713C225.49 21.713 225.759 21.6437 226.002 21.505C226.244 21.3577 226.435 21.1583 226.574 20.907C226.721 20.647 226.795 20.348 226.795 20.01C226.795 19.672 226.721 19.373 226.574 19.113C226.435 18.853 226.244 18.6537 226.002 18.515C225.759 18.3763 225.49 18.307 225.196 18.307C224.901 18.307 224.632 18.3763 224.39 18.515C224.147 18.6537 223.952 18.853 223.805 19.113C223.666 19.373 223.597 19.672 223.597 20.01ZM235.13 19.36C235.13 18.9613 235.052 18.658 234.896 18.45C234.74 18.242 234.489 18.138 234.142 18.138C233.908 18.138 233.7 18.19 233.518 18.294C233.336 18.3893 233.197 18.528 233.102 18.71C233.007 18.892 232.959 19.1087 232.959 19.36V23H231.269V17.02H232.959V17.93C233.141 17.592 233.379 17.3363 233.674 17.163C233.977 16.981 234.341 16.89 234.766 16.89C235.477 16.89 236.005 17.0937 236.352 17.501C236.699 17.8997 236.872 18.4587 236.872 19.178V23H235.13V19.36ZM239.74 23.416H241.391C241.399 23.676 241.469 23.897 241.599 24.079C241.729 24.2697 241.906 24.417 242.132 24.521C242.357 24.625 242.621 24.677 242.925 24.677C243.202 24.677 243.462 24.612 243.705 24.482C243.956 24.352 244.155 24.1527 244.303 23.884C244.459 23.6153 244.537 23.2773 244.537 22.87V17.02H246.162V22.87C246.162 23.6067 246.014 24.2133 245.72 24.69C245.434 25.1667 245.048 25.5133 244.563 25.73C244.077 25.9553 243.549 26.068 242.977 26.068C242.283 26.068 241.703 25.9553 241.235 25.73C240.767 25.5133 240.407 25.2013 240.156 24.794C239.913 24.3953 239.774 23.936 239.74 23.416ZM239.623 19.958C239.623 19.2907 239.757 18.7317 240.026 18.281C240.294 17.8217 240.65 17.475 241.092 17.241C241.534 17.007 242.002 16.89 242.496 16.89C242.998 16.89 243.44 17.0113 243.822 17.254C244.212 17.4967 244.515 17.8477 244.732 18.307C244.957 18.7577 245.07 19.308 245.07 19.958C245.07 20.5993 244.957 21.1497 244.732 21.609C244.515 22.0683 244.212 22.4193 243.822 22.662C243.44 22.896 242.998 23.013 242.496 23.013C242.002 23.013 241.534 22.896 241.092 22.662C240.65 22.428 240.294 22.0857 240.026 21.635C239.757 21.1757 239.623 20.6167 239.623 19.958ZM241.365 19.958C241.365 20.3133 241.438 20.6167 241.586 20.868C241.733 21.1107 241.932 21.297 242.184 21.427C242.435 21.557 242.704 21.622 242.99 21.622C243.241 21.622 243.484 21.5613 243.718 21.44C243.96 21.31 244.155 21.1237 244.303 20.881C244.459 20.6297 244.537 20.322 244.537 19.958C244.537 19.6807 244.493 19.438 244.407 19.23C244.32 19.022 244.199 18.8487 244.043 18.71C243.895 18.5713 243.731 18.4673 243.549 18.398C243.367 18.32 243.18 18.281 242.99 18.281C242.704 18.281 242.435 18.346 242.184 18.476C241.932 18.606 241.733 18.7967 241.586 19.048C241.438 19.2907 241.365 19.594 241.365 19.958ZM255.879 21.141C255.879 21.3143 255.922 21.466 256.009 21.596C256.095 21.7173 256.212 21.8127 256.36 21.882C256.516 21.9427 256.685 21.973 256.867 21.973C257.127 21.973 257.361 21.921 257.569 21.817C257.777 21.7043 257.946 21.5483 258.076 21.349C258.206 21.141 258.271 20.894 258.271 20.608L258.479 21.388C258.479 21.7693 258.37 22.09 258.154 22.35C257.946 22.61 257.673 22.805 257.335 22.935C257.005 23.065 256.659 23.13 256.295 23.13C255.922 23.13 255.575 23.0563 255.255 22.909C254.934 22.7617 254.674 22.5493 254.475 22.272C254.284 21.986 254.189 21.6393 254.189 21.232C254.189 20.6513 254.392 20.192 254.8 19.854C255.207 19.516 255.783 19.347 256.529 19.347C256.91 19.347 257.244 19.386 257.53 19.464C257.824 19.542 258.071 19.6373 258.271 19.75C258.47 19.8627 258.613 19.971 258.7 20.075V20.855C258.466 20.6817 258.201 20.5517 257.907 20.465C257.621 20.3783 257.317 20.335 256.997 20.335C256.737 20.335 256.524 20.3697 256.36 20.439C256.195 20.4997 256.074 20.5907 255.996 20.712C255.918 20.8247 255.879 20.9677 255.879 21.141ZM255.229 18.71L254.605 17.566C254.917 17.4013 255.298 17.2453 255.749 17.098C256.199 16.942 256.702 16.864 257.257 16.864C257.768 16.864 258.223 16.9377 258.622 17.085C259.02 17.2323 259.332 17.449 259.558 17.735C259.783 18.0123 259.896 18.3547 259.896 18.762V23H258.271V19.113C258.271 18.9483 258.245 18.8097 258.193 18.697C258.141 18.5757 258.058 18.476 257.946 18.398C257.842 18.32 257.716 18.2637 257.569 18.229C257.421 18.1943 257.257 18.177 257.075 18.177C256.797 18.177 256.533 18.2073 256.282 18.268C256.03 18.3287 255.814 18.4023 255.632 18.489C255.45 18.5757 255.315 18.6493 255.229 18.71ZM262.009 17.02H263.803L265.116 20.335L266.806 16.565L268.561 20.348L269.887 17.02H271.668L268.743 23.403L266.819 19.594L264.947 23.403L262.009 17.02ZM275.157 21.141C275.157 21.3143 275.2 21.466 275.287 21.596C275.373 21.7173 275.49 21.8127 275.638 21.882C275.794 21.9427 275.963 21.973 276.145 21.973C276.405 21.973 276.639 21.921 276.847 21.817C277.055 21.7043 277.224 21.5483 277.354 21.349C277.484 21.141 277.549 20.894 277.549 20.608L277.757 21.388C277.757 21.7693 277.648 22.09 277.432 22.35C277.224 22.61 276.951 22.805 276.613 22.935C276.283 23.065 275.937 23.13 275.573 23.13C275.2 23.13 274.853 23.0563 274.533 22.909C274.212 22.7617 273.952 22.5493 273.753 22.272C273.562 21.986 273.467 21.6393 273.467 21.232C273.467 20.6513 273.67 20.192 274.078 19.854C274.485 19.516 275.061 19.347 275.807 19.347C276.188 19.347 276.522 19.386 276.808 19.464C277.102 19.542 277.349 19.6373 277.549 19.75C277.748 19.8627 277.891 19.971 277.978 20.075V20.855C277.744 20.6817 277.479 20.5517 277.185 20.465C276.899 20.3783 276.595 20.335 276.275 20.335C276.015 20.335 275.802 20.3697 275.638 20.439C275.473 20.4997 275.352 20.5907 275.274 20.712C275.196 20.8247 275.157 20.9677 275.157 21.141ZM274.507 18.71L273.883 17.566C274.195 17.4013 274.576 17.2453 275.027 17.098C275.477 16.942 275.98 16.864 276.535 16.864C277.046 16.864 277.501 16.9377 277.9 17.085C278.298 17.2323 278.61 17.449 278.836 17.735C279.061 18.0123 279.174 18.3547 279.174 18.762V23H277.549V19.113C277.549 18.9483 277.523 18.8097 277.471 18.697C277.419 18.5757 277.336 18.476 277.224 18.398C277.12 18.32 276.994 18.2637 276.847 18.229C276.699 18.1943 276.535 18.177 276.353 18.177C276.075 18.177 275.811 18.2073 275.56 18.268C275.308 18.3287 275.092 18.4023 274.91 18.489C274.728 18.5757 274.593 18.6493 274.507 18.71ZM282.157 14.706C282.157 14.4287 282.257 14.2033 282.456 14.03C282.655 13.848 282.894 13.757 283.171 13.757C283.448 13.757 283.682 13.848 283.873 14.03C284.072 14.2033 284.172 14.4287 284.172 14.706C284.172 14.9747 284.072 15.2 283.873 15.382C283.682 15.564 283.448 15.655 283.171 15.655C282.894 15.655 282.655 15.564 282.456 15.382C282.257 15.2 282.157 14.9747 282.157 14.706ZM282.339 17.02H283.977V23H282.339V17.02ZM286.492 17.02H290.184V18.437H286.492V17.02ZM287.519 14.94H289.144V23H287.519V14.94ZM295.397 23.13C294.747 23.13 294.179 23 293.694 22.74C293.208 22.48 292.831 22.1203 292.563 21.661C292.303 21.193 292.173 20.6427 292.173 20.01C292.173 19.3687 292.303 18.8183 292.563 18.359C292.831 17.891 293.208 17.5313 293.694 17.28C294.179 17.02 294.751 16.89 295.41 16.89C296.068 16.89 296.627 17.0113 297.087 17.254C297.555 17.488 297.91 17.8347 298.153 18.294C298.395 18.7447 298.517 19.2907 298.517 19.932C298.517 20.01 298.512 20.0923 298.504 20.179C298.504 20.2657 298.499 20.335 298.491 20.387H293.135V19.347H297.022L296.567 19.945C296.601 19.893 296.632 19.8237 296.658 19.737C296.692 19.6417 296.71 19.5637 296.71 19.503C296.71 19.2083 296.653 18.957 296.541 18.749C296.437 18.541 296.285 18.3763 296.086 18.255C295.886 18.1337 295.652 18.073 295.384 18.073C295.054 18.073 294.777 18.1467 294.552 18.294C294.335 18.4327 294.166 18.645 294.045 18.931C293.932 19.2083 293.871 19.555 293.863 19.971C293.863 20.3697 293.919 20.7077 294.032 20.985C294.153 21.2623 294.331 21.4747 294.565 21.622C294.799 21.7693 295.08 21.843 295.41 21.843C295.782 21.843 296.099 21.7737 296.359 21.635C296.627 21.4877 296.848 21.271 297.022 20.985L298.491 21.44C298.179 22.0033 297.763 22.428 297.243 22.714C296.731 22.9913 296.116 23.13 295.397 23.13ZM305.792 12.86H307.482V23H305.792V12.86ZM300.878 20.01C300.878 19.3427 301.013 18.7793 301.281 18.32C301.55 17.852 301.905 17.4967 302.347 17.254C302.789 17.0113 303.257 16.89 303.751 16.89C304.254 16.89 304.696 17.0157 305.077 17.267C305.467 17.5183 305.771 17.878 305.987 18.346C306.213 18.8053 306.325 19.36 306.325 20.01C306.325 20.6513 306.213 21.206 305.987 21.674C305.771 22.142 305.467 22.5017 305.077 22.753C304.696 23.0043 304.254 23.13 303.751 23.13C303.257 23.13 302.789 23.0087 302.347 22.766C301.905 22.5233 301.55 22.168 301.281 21.7C301.013 21.232 300.878 20.6687 300.878 20.01ZM302.62 20.01C302.62 20.3653 302.694 20.673 302.841 20.933C302.989 21.193 303.188 21.3923 303.439 21.531C303.691 21.6697 303.959 21.739 304.245 21.739C304.497 21.739 304.739 21.674 304.973 21.544C305.216 21.4053 305.411 21.206 305.558 20.946C305.714 20.686 305.792 20.374 305.792 20.01C305.792 19.646 305.714 19.334 305.558 19.074C305.411 18.814 305.216 18.619 304.973 18.489C304.739 18.3503 304.497 18.281 304.245 18.281C303.959 18.281 303.691 18.3503 303.439 18.489C303.188 18.6277 302.989 18.827 302.841 19.087C302.694 19.347 302.62 19.6547 302.62 20.01ZM315.482 17.02H319.226V18.437H315.482V17.02ZM319.044 14.55C318.958 14.42 318.858 14.3333 318.745 14.29C318.641 14.238 318.537 14.212 318.433 14.212C318.303 14.212 318.191 14.2467 318.095 14.316C318.009 14.3767 317.939 14.4807 317.887 14.628C317.835 14.7753 317.809 14.9617 317.809 15.187V23H316.184V14.81C316.184 14.3507 316.262 13.965 316.418 13.653C316.574 13.341 316.808 13.1027 317.12 12.938C317.432 12.7647 317.814 12.678 318.264 12.678C318.533 12.678 318.763 12.7127 318.953 12.782C319.144 12.8427 319.304 12.9207 319.434 13.016C319.573 13.1113 319.681 13.2023 319.759 13.289L319.044 14.55ZM324.545 23.13C323.895 23.13 323.328 23 322.842 22.74C322.357 22.48 321.98 22.1203 321.711 21.661C321.451 21.193 321.321 20.6427 321.321 20.01C321.321 19.3687 321.451 18.8183 321.711 18.359C321.98 17.891 322.357 17.5313 322.842 17.28C323.328 17.02 323.9 16.89 324.558 16.89C325.217 16.89 325.776 17.0113 326.235 17.254C326.703 17.488 327.059 17.8347 327.301 18.294C327.544 18.7447 327.665 19.2907 327.665 19.932C327.665 20.01 327.661 20.0923 327.652 20.179C327.652 20.2657 327.648 20.335 327.639 20.387H322.283V19.347H326.17L325.715 19.945C325.75 19.893 325.78 19.8237 325.806 19.737C325.841 19.6417 325.858 19.5637 325.858 19.503C325.858 19.2083 325.802 18.957 325.689 18.749C325.585 18.541 325.434 18.3763 325.234 18.255C325.035 18.1337 324.801 18.073 324.532 18.073C324.203 18.073 323.926 18.1467 323.7 18.294C323.484 18.4327 323.315 18.645 323.193 18.931C323.081 19.2083 323.02 19.555 323.011 19.971C323.011 20.3697 323.068 20.7077 323.18 20.985C323.302 21.2623 323.479 21.4747 323.713 21.622C323.947 21.7693 324.229 21.843 324.558 21.843C324.931 21.843 325.247 21.7737 325.507 21.635C325.776 21.4877 325.997 21.271 326.17 20.985L327.639 21.44C327.327 22.0033 326.911 22.428 326.391 22.714C325.88 22.9913 325.265 23.13 324.545 23.13ZM331.626 21.141C331.626 21.3143 331.67 21.466 331.756 21.596C331.843 21.7173 331.96 21.8127 332.107 21.882C332.263 21.9427 332.432 21.973 332.614 21.973C332.874 21.973 333.108 21.921 333.316 21.817C333.524 21.7043 333.693 21.5483 333.823 21.349C333.953 21.141 334.018 20.894 334.018 20.608L334.226 21.388C334.226 21.7693 334.118 22.09 333.901 22.35C333.693 22.61 333.42 22.805 333.082 22.935C332.753 23.065 332.406 23.13 332.042 23.13C331.67 23.13 331.323 23.0563 331.002 22.909C330.682 22.7617 330.422 22.5493 330.222 22.272C330.032 21.986 329.936 21.6393 329.936 21.232C329.936 20.6513 330.14 20.192 330.547 19.854C330.955 19.516 331.531 19.347 332.276 19.347C332.658 19.347 332.991 19.386 333.277 19.464C333.572 19.542 333.819 19.6373 334.018 19.75C334.218 19.8627 334.361 19.971 334.447 20.075V20.855C334.213 20.6817 333.949 20.5517 333.654 20.465C333.368 20.3783 333.065 20.335 332.744 20.335C332.484 20.335 332.272 20.3697 332.107 20.439C331.943 20.4997 331.821 20.5907 331.743 20.712C331.665 20.8247 331.626 20.9677 331.626 21.141ZM330.976 18.71L330.352 17.566C330.664 17.4013 331.046 17.2453 331.496 17.098C331.947 16.942 332.45 16.864 333.004 16.864C333.516 16.864 333.971 16.9377 334.369 17.085C334.768 17.2323 335.08 17.449 335.305 17.735C335.531 18.0123 335.643 18.3547 335.643 18.762V23H334.018V19.113C334.018 18.9483 333.992 18.8097 333.94 18.697C333.888 18.5757 333.806 18.476 333.693 18.398C333.589 18.32 333.464 18.2637 333.316 18.229C333.169 18.1943 333.004 18.177 332.822 18.177C332.545 18.177 332.281 18.2073 332.029 18.268C331.778 18.3287 331.561 18.4023 331.379 18.489C331.197 18.5757 331.063 18.6493 330.976 18.71ZM337.938 17.02H341.63V18.437H337.938V17.02ZM338.965 14.94H340.59V23H338.965V14.94ZM345.763 20.66C345.763 21.05 345.841 21.3533 345.997 21.57C346.153 21.778 346.404 21.882 346.751 21.882C346.994 21.882 347.202 21.8343 347.375 21.739C347.557 21.635 347.696 21.492 347.791 21.31C347.895 21.128 347.947 20.9113 347.947 20.66V17.02H349.624V23H347.947V22.09C347.756 22.428 347.514 22.688 347.219 22.87C346.924 23.0433 346.565 23.13 346.14 23.13C345.429 23.13 344.896 22.9263 344.541 22.519C344.194 22.1117 344.021 21.5527 344.021 20.842V17.02H345.763V20.66ZM354.429 17.02V23H352.778V17.02H354.429ZM356.184 18.775C356.071 18.671 355.954 18.593 355.833 18.541C355.72 18.4803 355.577 18.45 355.404 18.45C355.196 18.45 355.018 18.5063 354.871 18.619C354.723 18.7317 354.611 18.892 354.533 19.1C354.463 19.2993 354.429 19.542 354.429 19.828L353.961 19.36C353.961 18.8833 354.052 18.463 354.234 18.099C354.416 17.7263 354.654 17.4317 354.949 17.215C355.243 16.9897 355.547 16.877 355.859 16.877C356.075 16.877 356.279 16.916 356.47 16.994C356.669 17.072 356.829 17.189 356.951 17.345L356.184 18.775ZM361.969 23.13C361.319 23.13 360.751 23 360.266 22.74C359.78 22.48 359.403 22.1203 359.135 21.661C358.875 21.193 358.745 20.6427 358.745 20.01C358.745 19.3687 358.875 18.8183 359.135 18.359C359.403 17.891 359.78 17.5313 360.266 17.28C360.751 17.02 361.323 16.89 361.982 16.89C362.64 16.89 363.199 17.0113 363.659 17.254C364.127 17.488 364.482 17.8347 364.725 18.294C364.967 18.7447 365.089 19.2907 365.089 19.932C365.089 20.01 365.084 20.0923 365.076 20.179C365.076 20.2657 365.071 20.335 365.063 20.387H359.707V19.347H363.594L363.139 19.945C363.173 19.893 363.204 19.8237 363.23 19.737C363.264 19.6417 363.282 19.5637 363.282 19.503C363.282 19.2083 363.225 18.957 363.113 18.749C363.009 18.541 362.857 18.3763 362.658 18.255C362.458 18.1337 362.224 18.073 361.956 18.073C361.626 18.073 361.349 18.1467 361.124 18.294C360.907 18.4327 360.738 18.645 360.617 18.931C360.504 19.2083 360.443 19.555 360.435 19.971C360.435 20.3697 360.491 20.7077 360.604 20.985C360.725 21.2623 360.903 21.4747 361.137 21.622C361.371 21.7693 361.652 21.843 361.982 21.843C362.354 21.843 362.671 21.7737 362.931 21.635C363.199 21.4877 363.42 21.271 363.594 20.985L365.063 21.44C364.751 22.0033 364.335 22.428 363.815 22.714C363.303 22.9913 362.688 23.13 361.969 23.13ZM372.479 17.02H376.171V18.437H372.479V17.02ZM373.506 14.94H375.131V23H373.506V14.94ZM378.159 20.01C378.159 19.386 378.302 18.84 378.588 18.372C378.883 17.904 379.277 17.54 379.771 17.28C380.274 17.02 380.842 16.89 381.474 16.89C382.107 16.89 382.67 17.02 383.164 17.28C383.667 17.54 384.061 17.904 384.347 18.372C384.642 18.84 384.789 19.386 384.789 20.01C384.789 20.6253 384.642 21.1713 384.347 21.648C384.061 22.116 383.667 22.48 383.164 22.74C382.67 23 382.107 23.13 381.474 23.13C380.842 23.13 380.274 23 379.771 22.74C379.277 22.48 378.883 22.116 378.588 21.648C378.302 21.1713 378.159 20.6253 378.159 20.01ZM379.875 20.01C379.875 20.348 379.945 20.647 380.083 20.907C380.231 21.1583 380.426 21.3577 380.668 21.505C380.911 21.6437 381.18 21.713 381.474 21.713C381.769 21.713 382.038 21.6437 382.28 21.505C382.523 21.3577 382.714 21.1583 382.852 20.907C383 20.647 383.073 20.348 383.073 20.01C383.073 19.672 383 19.373 382.852 19.113C382.714 18.853 382.523 18.6537 382.28 18.515C382.038 18.3763 381.769 18.307 381.474 18.307C381.18 18.307 380.911 18.3763 380.668 18.515C380.426 18.6537 380.231 18.853 380.083 19.113C379.945 19.373 379.875 19.672 379.875 20.01ZM394.214 20.01C394.214 20.3567 394.292 20.66 394.448 20.92C394.604 21.18 394.812 21.3837 395.072 21.531C395.341 21.6783 395.635 21.752 395.956 21.752C396.216 21.752 396.467 21.713 396.71 21.635C396.953 21.5483 397.169 21.4357 397.36 21.297C397.559 21.1497 397.711 20.9807 397.815 20.79V22.519C397.607 22.7097 397.334 22.8613 396.996 22.974C396.667 23.078 396.281 23.13 395.839 23.13C395.206 23.13 394.634 23 394.123 22.74C393.62 22.48 393.222 22.116 392.927 21.648C392.641 21.1713 392.498 20.6253 392.498 20.01C392.498 19.386 392.641 18.84 392.927 18.372C393.222 17.904 393.62 17.54 394.123 17.28C394.634 17.02 395.206 16.89 395.839 16.89C396.281 16.89 396.667 16.9463 396.996 17.059C397.334 17.163 397.607 17.306 397.815 17.488V19.217C397.711 19.0263 397.555 18.8617 397.347 18.723C397.148 18.5757 396.927 18.463 396.684 18.385C396.441 18.307 396.199 18.268 395.956 18.268C395.635 18.268 395.341 18.346 395.072 18.502C394.812 18.6493 394.604 18.853 394.448 19.113C394.292 19.373 394.214 19.672 394.214 20.01ZM400.392 20.01C400.392 19.386 400.535 18.84 400.821 18.372C401.116 17.904 401.51 17.54 402.004 17.28C402.507 17.02 403.075 16.89 403.707 16.89C404.34 16.89 404.903 17.02 405.397 17.28C405.9 17.54 406.294 17.904 406.58 18.372C406.875 18.84 407.022 19.386 407.022 20.01C407.022 20.6253 406.875 21.1713 406.58 21.648C406.294 22.116 405.9 22.48 405.397 22.74C404.903 23 404.34 23.13 403.707 23.13C403.075 23.13 402.507 23 402.004 22.74C401.51 22.48 401.116 22.116 400.821 21.648C400.535 21.1713 400.392 20.6253 400.392 20.01ZM402.108 20.01C402.108 20.348 402.178 20.647 402.316 20.907C402.464 21.1583 402.659 21.3577 402.901 21.505C403.144 21.6437 403.413 21.713 403.707 21.713C404.002 21.713 404.271 21.6437 404.513 21.505C404.756 21.3577 404.947 21.1583 405.085 20.907C405.233 20.647 405.306 20.348 405.306 20.01C405.306 19.672 405.233 19.373 405.085 19.113C404.947 18.853 404.756 18.6537 404.513 18.515C404.271 18.3763 404.002 18.307 403.707 18.307C403.413 18.307 403.144 18.3763 402.901 18.515C402.659 18.6537 402.464 18.853 402.316 19.113C402.178 19.373 402.108 19.672 402.108 20.01ZM411.432 25.86H409.742V17.02H411.432V25.86ZM416.346 20.01C416.346 20.686 416.211 21.2623 415.943 21.739C415.674 22.2157 415.319 22.5753 414.877 22.818C414.443 23.0607 413.975 23.182 413.473 23.182C412.961 23.182 412.515 23.052 412.134 22.792C411.761 22.532 411.471 22.1637 411.263 21.687C411.063 21.2103 410.964 20.6513 410.964 20.01C410.964 19.36 411.063 18.801 411.263 18.333C411.471 17.8563 411.761 17.488 412.134 17.228C412.515 16.968 412.961 16.838 413.473 16.838C413.975 16.838 414.443 16.9593 414.877 17.202C415.319 17.4447 415.674 17.8043 415.943 18.281C416.211 18.749 416.346 19.3253 416.346 20.01ZM414.604 20.01C414.604 19.6547 414.53 19.3513 414.383 19.1C414.235 18.8487 414.036 18.658 413.785 18.528C413.542 18.398 413.273 18.333 412.979 18.333C412.727 18.333 412.48 18.398 412.238 18.528C412.004 18.6493 411.809 18.8357 411.653 19.087C411.505 19.3383 411.432 19.646 411.432 20.01C411.432 20.374 411.505 20.6817 411.653 20.933C411.809 21.1843 412.004 21.375 412.238 21.505C412.48 21.6263 412.727 21.687 412.979 21.687C413.273 21.687 413.542 21.622 413.785 21.492C414.036 21.362 414.235 21.1713 414.383 20.92C414.53 20.6687 414.604 20.3653 414.604 20.01ZM424.6 17.02L420.7 25.86H418.971L420.479 22.402L417.996 17.02H419.868L421.792 21.778L420.96 21.752L422.845 17.02H424.6ZM430.95 13.9H432.575L427.115 24.95H425.438L430.95 13.9ZM435.836 25.86H434.146V17.02H435.836V25.86ZM440.75 20.01C440.75 20.686 440.615 21.2623 440.347 21.739C440.078 22.2157 439.723 22.5753 439.281 22.818C438.847 23.0607 438.379 23.182 437.877 23.182C437.365 23.182 436.919 23.052 436.538 22.792C436.165 22.532 435.875 22.1637 435.667 21.687C435.467 21.2103 435.368 20.6513 435.368 20.01C435.368 19.36 435.467 18.801 435.667 18.333C435.875 17.8563 436.165 17.488 436.538 17.228C436.919 16.968 437.365 16.838 437.877 16.838C438.379 16.838 438.847 16.9593 439.281 17.202C439.723 17.4447 440.078 17.8043 440.347 18.281C440.615 18.749 440.75 19.3253 440.75 20.01ZM439.008 20.01C439.008 19.6547 438.934 19.3513 438.787 19.1C438.639 18.8487 438.44 18.658 438.189 18.528C437.946 18.398 437.677 18.333 437.383 18.333C437.131 18.333 436.884 18.398 436.642 18.528C436.408 18.6493 436.213 18.8357 436.057 19.087C435.909 19.3383 435.836 19.646 435.836 20.01C435.836 20.374 435.909 20.6817 436.057 20.933C436.213 21.1843 436.408 21.375 436.642 21.505C436.884 21.6263 437.131 21.687 437.383 21.687C437.677 21.687 437.946 21.622 438.189 21.492C438.44 21.362 438.639 21.1713 438.787 20.92C438.934 20.6687 439.008 20.3653 439.008 20.01ZM444.696 21.141C444.696 21.3143 444.739 21.466 444.826 21.596C444.913 21.7173 445.03 21.8127 445.177 21.882C445.333 21.9427 445.502 21.973 445.684 21.973C445.944 21.973 446.178 21.921 446.386 21.817C446.594 21.7043 446.763 21.5483 446.893 21.349C447.023 21.141 447.088 20.894 447.088 20.608L447.296 21.388C447.296 21.7693 447.188 22.09 446.971 22.35C446.763 22.61 446.49 22.805 446.152 22.935C445.823 23.065 445.476 23.13 445.112 23.13C444.739 23.13 444.393 23.0563 444.072 22.909C443.751 22.7617 443.491 22.5493 443.292 22.272C443.101 21.986 443.006 21.6393 443.006 21.232C443.006 20.6513 443.21 20.192 443.617 19.854C444.024 19.516 444.601 19.347 445.346 19.347C445.727 19.347 446.061 19.386 446.347 19.464C446.642 19.542 446.889 19.6373 447.088 19.75C447.287 19.8627 447.43 19.971 447.517 20.075V20.855C447.283 20.6817 447.019 20.5517 446.724 20.465C446.438 20.3783 446.135 20.335 445.814 20.335C445.554 20.335 445.342 20.3697 445.177 20.439C445.012 20.4997 444.891 20.5907 444.813 20.712C444.735 20.8247 444.696 20.9677 444.696 21.141ZM444.046 18.71L443.422 17.566C443.734 17.4013 444.115 17.2453 444.566 17.098C445.017 16.942 445.519 16.864 446.074 16.864C446.585 16.864 447.04 16.9377 447.439 17.085C447.838 17.2323 448.15 17.449 448.375 17.735C448.6 18.0123 448.713 18.3547 448.713 18.762V23H447.088V19.113C447.088 18.9483 447.062 18.8097 447.01 18.697C446.958 18.5757 446.876 18.476 446.763 18.398C446.659 18.32 446.533 18.2637 446.386 18.229C446.239 18.1943 446.074 18.177 445.892 18.177C445.615 18.177 445.35 18.2073 445.099 18.268C444.848 18.3287 444.631 18.4023 444.449 18.489C444.267 18.5757 444.133 18.6493 444.046 18.71ZM452.073 20.933C452.325 21.167 452.559 21.3577 452.775 21.505C452.992 21.6437 453.196 21.7477 453.386 21.817C453.586 21.8863 453.772 21.921 453.945 21.921C454.171 21.921 454.344 21.8733 454.465 21.778C454.587 21.674 454.647 21.5353 454.647 21.362C454.647 21.206 454.595 21.076 454.491 20.972C454.396 20.8593 454.253 20.7597 454.062 20.673C453.872 20.5863 453.629 20.4953 453.334 20.4C453.057 20.296 452.788 20.1747 452.528 20.036C452.268 19.8887 452.052 19.698 451.878 19.464C451.714 19.2213 451.631 18.9137 451.631 18.541C451.631 18.1857 451.727 17.8867 451.917 17.644C452.108 17.3927 452.364 17.2063 452.684 17.085C453.014 16.955 453.378 16.89 453.776 16.89C454.114 16.89 454.431 16.9333 454.725 17.02C455.02 17.1067 455.293 17.2237 455.544 17.371C455.796 17.5097 456.017 17.6743 456.207 17.865L455.466 18.905C455.25 18.671 454.99 18.4803 454.686 18.333C454.392 18.1857 454.101 18.112 453.815 18.112C453.625 18.112 453.473 18.151 453.36 18.229C453.256 18.2983 453.204 18.4067 453.204 18.554C453.204 18.684 453.256 18.801 453.36 18.905C453.473 19.0003 453.629 19.087 453.828 19.165C454.036 19.243 454.27 19.3383 454.53 19.451C454.851 19.5723 455.146 19.711 455.414 19.867C455.692 20.0143 455.913 20.2007 456.077 20.426C456.242 20.6513 456.324 20.946 456.324 21.31C456.324 21.908 456.129 22.376 455.739 22.714C455.349 23.0433 454.812 23.208 454.127 23.208C453.703 23.208 453.313 23.1517 452.957 23.039C452.611 22.9263 452.294 22.779 452.008 22.597C451.731 22.4063 451.48 22.2027 451.254 21.986L452.073 20.933ZM458.215 17.02H461.907V18.437H458.215V17.02ZM459.242 14.94H460.867V23H459.242V14.94ZM467.119 23.13C466.469 23.13 465.902 23 465.416 22.74C464.931 22.48 464.554 22.1203 464.285 21.661C464.025 21.193 463.895 20.6427 463.895 20.01C463.895 19.3687 464.025 18.8183 464.285 18.359C464.554 17.891 464.931 17.5313 465.416 17.28C465.902 17.02 466.474 16.89 467.132 16.89C467.791 16.89 468.35 17.0113 468.809 17.254C469.277 17.488 469.633 17.8347 469.875 18.294C470.118 18.7447 470.239 19.2907 470.239 19.932C470.239 20.01 470.235 20.0923 470.226 20.179C470.226 20.2657 470.222 20.335 470.213 20.387H464.857V19.347H468.744L468.289 19.945C468.324 19.893 468.354 19.8237 468.38 19.737C468.415 19.6417 468.432 19.5637 468.432 19.503C468.432 19.2083 468.376 18.957 468.263 18.749C468.159 18.541 468.008 18.3763 467.808 18.255C467.609 18.1337 467.375 18.073 467.106 18.073C466.777 18.073 466.5 18.1467 466.274 18.294C466.058 18.4327 465.889 18.645 465.767 18.931C465.655 19.2083 465.594 19.555 465.585 19.971C465.585 20.3697 465.642 20.7077 465.754 20.985C465.876 21.2623 466.053 21.4747 466.287 21.622C466.521 21.7693 466.803 21.843 467.132 21.843C467.505 21.843 467.821 21.7737 468.081 21.635C468.35 21.4877 468.571 21.271 468.744 20.985L470.213 21.44C469.901 22.0033 469.485 22.428 468.965 22.714C468.454 22.9913 467.839 23.13 467.119 23.13ZM479.593 21.141C479.593 21.3143 479.636 21.466 479.723 21.596C479.81 21.7173 479.927 21.8127 480.074 21.882C480.23 21.9427 480.399 21.973 480.581 21.973C480.841 21.973 481.075 21.921 481.283 21.817C481.491 21.7043 481.66 21.5483 481.79 21.349C481.92 21.141 481.985 20.894 481.985 20.608L482.193 21.388C482.193 21.7693 482.085 22.09 481.868 22.35C481.66 22.61 481.387 22.805 481.049 22.935C480.72 23.065 480.373 23.13 480.009 23.13C479.636 23.13 479.29 23.0563 478.969 22.909C478.648 22.7617 478.388 22.5493 478.189 22.272C477.998 21.986 477.903 21.6393 477.903 21.232C477.903 20.6513 478.107 20.192 478.514 19.854C478.921 19.516 479.498 19.347 480.243 19.347C480.624 19.347 480.958 19.386 481.244 19.464C481.539 19.542 481.786 19.6373 481.985 19.75C482.184 19.8627 482.327 19.971 482.414 20.075V20.855C482.18 20.6817 481.916 20.5517 481.621 20.465C481.335 20.3783 481.032 20.335 480.711 20.335C480.451 20.335 480.239 20.3697 480.074 20.439C479.909 20.4997 479.788 20.5907 479.71 20.712C479.632 20.8247 479.593 20.9677 479.593 21.141ZM478.943 18.71L478.319 17.566C478.631 17.4013 479.012 17.2453 479.463 17.098C479.914 16.942 480.416 16.864 480.971 16.864C481.482 16.864 481.937 16.9377 482.336 17.085C482.735 17.2323 483.047 17.449 483.272 17.735C483.497 18.0123 483.61 18.3547 483.61 18.762V23H481.985V19.113C481.985 18.9483 481.959 18.8097 481.907 18.697C481.855 18.5757 481.773 18.476 481.66 18.398C481.556 18.32 481.43 18.2637 481.283 18.229C481.136 18.1943 480.971 18.177 480.789 18.177C480.512 18.177 480.247 18.2073 479.996 18.268C479.745 18.3287 479.528 18.4023 479.346 18.489C479.164 18.5757 479.03 18.6493 478.943 18.71ZM491.297 17.02H494.989V18.437H491.297V17.02ZM492.324 14.94H493.949V23H492.324V14.94ZM496.977 20.01C496.977 19.386 497.12 18.84 497.406 18.372C497.701 17.904 498.095 17.54 498.589 17.28C499.092 17.02 499.659 16.89 500.292 16.89C500.925 16.89 501.488 17.02 501.982 17.28C502.485 17.54 502.879 17.904 503.165 18.372C503.46 18.84 503.607 19.386 503.607 20.01C503.607 20.6253 503.46 21.1713 503.165 21.648C502.879 22.116 502.485 22.48 501.982 22.74C501.488 23 500.925 23.13 500.292 23.13C499.659 23.13 499.092 23 498.589 22.74C498.095 22.48 497.701 22.116 497.406 21.648C497.12 21.1713 496.977 20.6253 496.977 20.01ZM498.693 20.01C498.693 20.348 498.762 20.647 498.901 20.907C499.048 21.1583 499.243 21.3577 499.486 21.505C499.729 21.6437 499.997 21.713 500.292 21.713C500.587 21.713 500.855 21.6437 501.098 21.505C501.341 21.3577 501.531 21.1583 501.67 20.907C501.817 20.647 501.891 20.348 501.891 20.01C501.891 19.672 501.817 19.373 501.67 19.113C501.531 18.853 501.341 18.6537 501.098 18.515C500.855 18.3763 500.587 18.307 500.292 18.307C499.997 18.307 499.729 18.3763 499.486 18.515C499.243 18.6537 499.048 18.853 498.901 19.113C498.762 19.373 498.693 19.672 498.693 20.01ZM506.326 12.86H507.951V23H506.326V12.86ZM510.148 17.02H512.163L509.589 19.49L512.423 23H510.421L507.574 19.49L510.148 17.02ZM517.435 23.13C516.785 23.13 516.217 23 515.732 22.74C515.247 22.48 514.87 22.1203 514.601 21.661C514.341 21.193 514.211 20.6427 514.211 20.01C514.211 19.3687 514.341 18.8183 514.601 18.359C514.87 17.891 515.247 17.5313 515.732 17.28C516.217 17.02 516.789 16.89 517.448 16.89C518.107 16.89 518.666 17.0113 519.125 17.254C519.593 17.488 519.948 17.8347 520.191 18.294C520.434 18.7447 520.555 19.2907 520.555 19.932C520.555 20.01 520.551 20.0923 520.542 20.179C520.542 20.2657 520.538 20.335 520.529 20.387H515.173V19.347H519.06L518.605 19.945C518.64 19.893 518.67 19.8237 518.696 19.737C518.731 19.6417 518.748 19.5637 518.748 19.503C518.748 19.2083 518.692 18.957 518.579 18.749C518.475 18.541 518.323 18.3763 518.124 18.255C517.925 18.1337 517.691 18.073 517.422 18.073C517.093 18.073 516.815 18.1467 516.59 18.294C516.373 18.4327 516.204 18.645 516.083 18.931C515.97 19.2083 515.91 19.555 515.901 19.971C515.901 20.3697 515.957 20.7077 516.07 20.985C516.191 21.2623 516.369 21.4747 516.603 21.622C516.837 21.7693 517.119 21.843 517.448 21.843C517.821 21.843 518.137 21.7737 518.397 21.635C518.666 21.4877 518.887 21.271 519.06 20.985L520.529 21.44C520.217 22.0033 519.801 22.428 519.281 22.714C518.77 22.9913 518.154 23.13 517.435 23.13ZM527.181 19.36C527.181 18.9613 527.103 18.658 526.947 18.45C526.791 18.242 526.54 18.138 526.193 18.138C525.959 18.138 525.751 18.19 525.569 18.294C525.387 18.3893 525.248 18.528 525.153 18.71C525.058 18.892 525.01 19.1087 525.01 19.36V23H523.32V17.02H525.01V17.93C525.192 17.592 525.43 17.3363 525.725 17.163C526.028 16.981 526.392 16.89 526.817 16.89C527.528 16.89 528.056 17.0937 528.403 17.501C528.75 17.8997 528.923 18.4587 528.923 19.178V23H527.181V19.36ZM539.12 18.45C539.12 19.048 539.254 19.5723 539.523 20.023C539.8 20.465 540.16 20.8073 540.602 21.05C541.044 21.284 541.525 21.401 542.045 21.401C542.478 21.401 542.864 21.3447 543.202 21.232C543.54 21.1193 543.843 20.9677 544.112 20.777C544.389 20.5863 544.628 20.3783 544.827 20.153V22.246C544.454 22.5407 544.047 22.7703 543.605 22.935C543.172 23.0997 542.621 23.182 541.954 23.182C541.261 23.182 540.615 23.0693 540.017 22.844C539.428 22.6187 538.912 22.2937 538.47 21.869C538.037 21.4443 537.699 20.946 537.456 20.374C537.222 19.7933 537.105 19.152 537.105 18.45C537.105 17.748 537.222 17.111 537.456 16.539C537.699 15.9583 538.037 15.4557 538.47 15.031C538.912 14.6063 539.428 14.2813 540.017 14.056C540.615 13.8307 541.261 13.718 541.954 13.718C542.621 13.718 543.172 13.8003 543.605 13.965C544.047 14.1297 544.454 14.3593 544.827 14.654V16.747C544.628 16.5217 544.389 16.3137 544.112 16.123C543.843 15.9323 543.54 15.7807 543.202 15.668C542.864 15.5553 542.478 15.499 542.045 15.499C541.525 15.499 541.044 15.6203 540.602 15.863C540.16 16.097 539.8 16.435 539.523 16.877C539.254 17.319 539.12 17.8433 539.12 18.45ZM549.242 20.933L549.463 19.464H553.831L554.052 20.933H549.242ZM551.621 16.851L550.256 19.984L550.295 20.4L549.099 23H547.006L551.621 13.367L556.236 23H554.13L552.96 20.478L552.986 20.01L551.621 16.851ZM563.877 14.706C563.877 14.4287 563.977 14.2033 564.176 14.03C564.375 13.848 564.614 13.757 564.891 13.757C565.168 13.757 565.402 13.848 565.593 14.03C565.792 14.2033 565.892 14.4287 565.892 14.706C565.892 14.9747 565.792 15.2 565.593 15.382C565.402 15.564 565.168 15.655 564.891 15.655C564.614 15.655 564.375 15.564 564.176 15.382C563.977 15.2 563.877 14.9747 563.877 14.706ZM564.059 17.02H565.697V23H564.059V17.02ZM572.84 19.36C572.84 18.9613 572.762 18.658 572.606 18.45C572.45 18.242 572.199 18.138 571.852 18.138C571.618 18.138 571.41 18.19 571.228 18.294C571.046 18.3893 570.908 18.528 570.812 18.71C570.717 18.892 570.669 19.1087 570.669 19.36V23H568.979V17.02H570.669V17.93C570.851 17.592 571.09 17.3363 571.384 17.163C571.688 16.981 572.052 16.89 572.476 16.89C573.187 16.89 573.716 17.0937 574.062 17.501C574.409 17.8997 574.582 18.4587 574.582 19.178V23H572.84V19.36ZM578.035 20.933C578.286 21.167 578.52 21.3577 578.737 21.505C578.954 21.6437 579.157 21.7477 579.348 21.817C579.547 21.8863 579.734 21.921 579.907 21.921C580.132 21.921 580.306 21.8733 580.427 21.778C580.548 21.674 580.609 21.5353 580.609 21.362C580.609 21.206 580.557 21.076 580.453 20.972C580.358 20.8593 580.215 20.7597 580.024 20.673C579.833 20.5863 579.591 20.4953 579.296 20.4C579.019 20.296 578.75 20.1747 578.49 20.036C578.23 19.8887 578.013 19.698 577.84 19.464C577.675 19.2213 577.593 18.9137 577.593 18.541C577.593 18.1857 577.688 17.8867 577.879 17.644C578.07 17.3927 578.325 17.2063 578.646 17.085C578.975 16.955 579.339 16.89 579.738 16.89C580.076 16.89 580.392 16.9333 580.687 17.02C580.982 17.1067 581.255 17.2237 581.506 17.371C581.757 17.5097 581.978 17.6743 582.169 17.865L581.428 18.905C581.211 18.671 580.951 18.4803 580.648 18.333C580.353 18.1857 580.063 18.112 579.777 18.112C579.586 18.112 579.435 18.151 579.322 18.229C579.218 18.2983 579.166 18.4067 579.166 18.554C579.166 18.684 579.218 18.801 579.322 18.905C579.435 19.0003 579.591 19.087 579.79 19.165C579.998 19.243 580.232 19.3383 580.492 19.451C580.813 19.5723 581.107 19.711 581.376 19.867C581.653 20.0143 581.874 20.2007 582.039 20.426C582.204 20.6513 582.286 20.946 582.286 21.31C582.286 21.908 582.091 22.376 581.701 22.714C581.311 23.0433 580.774 23.208 580.089 23.208C579.664 23.208 579.274 23.1517 578.919 23.039C578.572 22.9263 578.256 22.779 577.97 22.597C577.693 22.4063 577.441 22.2027 577.216 21.986L578.035 20.933ZM584.177 17.02H587.869V18.437H584.177V17.02ZM585.204 14.94H586.829V23H585.204V14.94ZM591.456 21.141C591.456 21.3143 591.5 21.466 591.586 21.596C591.673 21.7173 591.79 21.8127 591.937 21.882C592.093 21.9427 592.262 21.973 592.444 21.973C592.704 21.973 592.938 21.921 593.146 21.817C593.354 21.7043 593.523 21.5483 593.653 21.349C593.783 21.141 593.848 20.894 593.848 20.608L594.056 21.388C594.056 21.7693 593.948 22.09 593.731 22.35C593.523 22.61 593.25 22.805 592.912 22.935C592.583 23.065 592.236 23.13 591.872 23.13C591.5 23.13 591.153 23.0563 590.832 22.909C590.512 22.7617 590.252 22.5493 590.052 22.272C589.862 21.986 589.766 21.6393 589.766 21.232C589.766 20.6513 589.97 20.192 590.377 19.854C590.785 19.516 591.361 19.347 592.106 19.347C592.488 19.347 592.821 19.386 593.107 19.464C593.402 19.542 593.649 19.6373 593.848 19.75C594.048 19.8627 594.191 19.971 594.277 20.075V20.855C594.043 20.6817 593.779 20.5517 593.484 20.465C593.198 20.3783 592.895 20.335 592.574 20.335C592.314 20.335 592.102 20.3697 591.937 20.439C591.773 20.4997 591.651 20.5907 591.573 20.712C591.495 20.8247 591.456 20.9677 591.456 21.141ZM590.806 18.71L590.182 17.566C590.494 17.4013 590.876 17.2453 591.326 17.098C591.777 16.942 592.28 16.864 592.834 16.864C593.346 16.864 593.801 16.9377 594.199 17.085C594.598 17.2323 594.91 17.449 595.135 17.735C595.361 18.0123 595.473 18.3547 595.473 18.762V23H593.848V19.113C593.848 18.9483 593.822 18.8097 593.77 18.697C593.718 18.5757 593.636 18.476 593.523 18.398C593.419 18.32 593.294 18.2637 593.146 18.229C592.999 18.1943 592.834 18.177 592.652 18.177C592.375 18.177 592.111 18.2073 591.859 18.268C591.608 18.3287 591.391 18.4023 591.209 18.489C591.027 18.5757 590.893 18.6493 590.806 18.71ZM602.396 19.36C602.396 18.9613 602.318 18.658 602.162 18.45C602.006 18.242 601.754 18.138 601.408 18.138C601.174 18.138 600.966 18.19 600.784 18.294C600.602 18.3893 600.463 18.528 600.368 18.71C600.272 18.892 600.225 19.1087 600.225 19.36V23H598.535V17.02H600.225V17.93C600.407 17.592 600.645 17.3363 600.94 17.163C601.243 16.981 601.607 16.89 602.032 16.89C602.742 16.89 603.271 17.0937 603.618 17.501C603.964 17.8997 604.138 18.4587 604.138 19.178V23H602.396V19.36ZM606.524 17.02H610.216V18.437H606.524V17.02ZM607.551 14.94H609.176V23H607.551V14.94ZM612.608 12.86H614.298V23H612.608V12.86ZM623.148 17.02L619.248 25.86H617.519L619.027 22.402L616.544 17.02H618.416L620.34 21.778L619.508 21.752L621.393 17.02H623.148Z" fill="#6A6A6A"/>
</svg>
