<svg width="378" height="36" viewBox="0 0 378 36" fill="none" xmlns="http://www.w3.org/2000/svg">
<rect width="378" height="36" rx="18" fill="#111111"/>
<rect x="0.5" y="0.5" width="377" height="35" rx="17.5" stroke="white" stroke-opacity="0.24"/>
<path d="M349 18H362M362 18L356.583 24M362 18L356.583 12" stroke="#6A6A6A" stroke-linecap="round" stroke-linejoin="round"/>
<rect x="6" y="6" width="43" height="23" rx="11.5" fill="#FC6D26"/>
<path d="M20.888 13.6H22.544V22.42L16.568 16.792V22H14.912V13.18L20.888 18.808V13.6ZM28.209 22.12C27.609 22.12 27.085 22 26.637 21.76C26.189 21.52 25.841 21.188 25.593 20.764C25.353 20.332 25.233 19.824 25.233 19.24C25.233 18.648 25.353 18.14 25.593 17.716C25.841 17.284 26.189 16.952 26.637 16.72C27.085 16.48 27.613 16.36 28.221 16.36C28.829 16.36 29.345 16.472 29.769 16.696C30.201 16.912 30.529 17.232 30.753 17.656C30.977 18.072 31.089 18.576 31.089 19.168C31.089 19.24 31.085 19.316 31.077 19.396C31.077 19.476 31.073 19.54 31.065 19.588H26.121V18.628H29.709L29.289 19.18C29.321 19.132 29.349 19.068 29.373 18.988C29.405 18.9 29.421 18.828 29.421 18.772C29.421 18.5 29.369 18.268 29.265 18.076C29.169 17.884 29.029 17.732 28.845 17.62C28.661 17.508 28.445 17.452 28.197 17.452C27.893 17.452 27.637 17.52 27.429 17.656C27.229 17.784 27.073 17.98 26.961 18.244C26.857 18.5 26.801 18.82 26.793 19.204C26.793 19.572 26.845 19.884 26.949 20.14C27.061 20.396 27.225 20.592 27.441 20.728C27.657 20.864 27.917 20.932 28.221 20.932C28.565 20.932 28.857 20.868 29.097 20.74C29.345 20.604 29.549 20.404 29.709 20.14L31.065 20.56C30.777 21.08 30.393 21.472 29.913 21.736C29.441 21.992 28.873 22.12 28.209 22.12ZM32.6495 16.48H34.3055L35.5175 19.54L37.0775 16.06L38.6975 19.552L39.9215 16.48H41.5655L38.8655 22.372L37.0895 18.856L35.3615 22.372L32.6495 16.48Z" fill="black"/>
<path d="M58.975 17.527V16.188H65.969V17.527H64.019L63.694 17.475H61.094L60.795 17.527H58.975ZM58.455 20.647V19.308H60.249L60.6 19.36H63.473L63.811 19.308H65.449V20.647H58.455ZM64.084 13.9H65.553L63.343 23H61.874L62.576 20.075L62.719 19.763L63.369 17.046L63.395 16.708L64.084 13.9ZM61.068 13.9H62.55L61.874 16.682L61.731 17.033L61.068 19.763L61.055 20.062L60.34 23H58.858L61.068 13.9ZM70.3037 18.385V17.54H71.7727C72.0414 17.54 72.2754 17.4967 72.4747 17.41C72.674 17.3233 72.8257 17.1977 72.9297 17.033C73.0424 16.8683 73.0987 16.6733 73.0987 16.448C73.0987 16.1013 72.9774 15.837 72.7347 15.655C72.5007 15.473 72.18 15.382 71.7727 15.382H70.7717V21.518H71.9677C72.2797 21.518 72.5614 21.4747 72.8127 21.388C73.064 21.2927 73.259 21.1453 73.3977 20.946C73.545 20.7467 73.6187 20.491 73.6187 20.179C73.6187 19.9537 73.5754 19.763 73.4887 19.607C73.4107 19.4423 73.2937 19.308 73.1377 19.204C72.9904 19.0913 72.817 19.0133 72.6177 18.97C72.4184 18.918 72.2017 18.892 71.9677 18.892H70.3037V17.878H72.1367C72.5787 17.878 72.999 17.9257 73.3977 18.021C73.805 18.1163 74.169 18.268 74.4897 18.476C74.8104 18.6753 75.0617 18.9353 75.2437 19.256C75.4344 19.5767 75.5297 19.9623 75.5297 20.413C75.5297 21.011 75.3867 21.5007 75.1007 21.882C74.8234 22.2633 74.429 22.545 73.9177 22.727C73.4064 22.909 72.8127 23 72.1367 23H68.9127V13.9H71.9417C72.5484 13.9 73.0814 13.9867 73.5407 14.16C74 14.3247 74.3597 14.576 74.6197 14.914C74.8797 15.252 75.0097 15.681 75.0097 16.201C75.0097 16.6603 74.8797 17.0547 74.6197 17.384C74.3597 17.7133 74 17.9647 73.5407 18.138C73.0814 18.3027 72.5484 18.385 71.9417 18.385H70.3037ZM79.6489 21.141C79.6489 21.3143 79.6922 21.466 79.7789 21.596C79.8655 21.7173 79.9825 21.8127 80.1299 21.882C80.2859 21.9427 80.4549 21.973 80.6369 21.973C80.8969 21.973 81.1309 21.921 81.3389 21.817C81.5469 21.7043 81.7159 21.5483 81.8459 21.349C81.9759 21.141 82.0409 20.894 82.0409 20.608L82.2489 21.388C82.2489 21.7693 82.1405 22.09 81.9239 22.35C81.7159 22.61 81.4429 22.805 81.1049 22.935C80.7755 23.065 80.4289 23.13 80.0649 23.13C79.6922 23.13 79.3455 23.0563 79.0249 22.909C78.7042 22.7617 78.4442 22.5493 78.2449 22.272C78.0542 21.986 77.9589 21.6393 77.9589 21.232C77.9589 20.6513 78.1625 20.192 78.5699 19.854C78.9772 19.516 79.5535 19.347 80.2989 19.347C80.6802 19.347 81.0139 19.386 81.2999 19.464C81.5945 19.542 81.8415 19.6373 82.0409 19.75C82.2402 19.8627 82.3832 19.971 82.4699 20.075V20.855C82.2359 20.6817 81.9715 20.5517 81.6769 20.465C81.3909 20.3783 81.0875 20.335 80.7669 20.335C80.5069 20.335 80.2945 20.3697 80.1299 20.439C79.9652 20.4997 79.8439 20.5907 79.7659 20.712C79.6879 20.8247 79.6489 20.9677 79.6489 21.141ZM78.9989 18.71L78.3749 17.566C78.6869 17.4013 79.0682 17.2453 79.5189 17.098C79.9695 16.942 80.4722 16.864 81.0269 16.864C81.5382 16.864 81.9932 16.9377 82.3919 17.085C82.7905 17.2323 83.1025 17.449 83.3279 17.735C83.5532 18.0123 83.6659 18.3547 83.6659 18.762V23H82.0409V19.113C82.0409 18.9483 82.0149 18.8097 81.9629 18.697C81.9109 18.5757 81.8285 18.476 81.7159 18.398C81.6119 18.32 81.4862 18.2637 81.3389 18.229C81.1915 18.1943 81.0269 18.177 80.8449 18.177C80.5675 18.177 80.3032 18.2073 80.0519 18.268C79.8005 18.3287 79.5839 18.4023 79.4019 18.489C79.2199 18.5757 79.0855 18.6493 78.9989 18.71ZM87.0262 20.933C87.2775 21.167 87.5115 21.3577 87.7282 21.505C87.9448 21.6437 88.1485 21.7477 88.3392 21.817C88.5385 21.8863 88.7248 21.921 88.8982 21.921C89.1235 21.921 89.2968 21.8733 89.4182 21.778C89.5395 21.674 89.6002 21.5353 89.6002 21.362C89.6002 21.206 89.5482 21.076 89.4442 20.972C89.3488 20.8593 89.2058 20.7597 89.0152 20.673C88.8245 20.5863 88.5818 20.4953 88.2872 20.4C88.0098 20.296 87.7412 20.1747 87.4812 20.036C87.2212 19.8887 87.0045 19.698 86.8312 19.464C86.6665 19.2213 86.5842 18.9137 86.5842 18.541C86.5842 18.1857 86.6795 17.8867 86.8702 17.644C87.0608 17.3927 87.3165 17.2063 87.6372 17.085C87.9665 16.955 88.3305 16.89 88.7292 16.89C89.0672 16.89 89.3835 16.9333 89.6782 17.02C89.9728 17.1067 90.2458 17.2237 90.4972 17.371C90.7485 17.5097 90.9695 17.6743 91.1602 17.865L90.4192 18.905C90.2025 18.671 89.9425 18.4803 89.6392 18.333C89.3445 18.1857 89.0542 18.112 88.7682 18.112C88.5775 18.112 88.4258 18.151 88.3132 18.229C88.2092 18.2983 88.1572 18.4067 88.1572 18.554C88.1572 18.684 88.2092 18.801 88.3132 18.905C88.4258 19.0003 88.5818 19.087 88.7812 19.165C88.9892 19.243 89.2232 19.3383 89.4832 19.451C89.8038 19.5723 90.0985 19.711 90.3672 19.867C90.6445 20.0143 90.8655 20.2007 91.0302 20.426C91.1948 20.6513 91.2772 20.946 91.2772 21.31C91.2772 21.908 91.0822 22.376 90.6922 22.714C90.3022 23.0433 89.7648 23.208 89.0802 23.208C88.6555 23.208 88.2655 23.1517 87.9102 23.039C87.5635 22.9263 87.2472 22.779 86.9612 22.597C86.6838 22.4063 86.4325 22.2027 86.2072 21.986L87.0262 20.933ZM96.756 23.13C96.106 23.13 95.5384 23 95.053 22.74C94.5677 22.48 94.1907 22.1203 93.922 21.661C93.662 21.193 93.532 20.6427 93.532 20.01C93.532 19.3687 93.662 18.8183 93.922 18.359C94.1907 17.891 94.5677 17.5313 95.053 17.28C95.5384 17.02 96.1104 16.89 96.769 16.89C97.4277 16.89 97.9867 17.0113 98.446 17.254C98.914 17.488 99.2694 17.8347 99.512 18.294C99.7547 18.7447 99.876 19.2907 99.876 19.932C99.876 20.01 99.8717 20.0923 99.863 20.179C99.863 20.2657 99.8587 20.335 99.85 20.387H94.494V19.347H98.381L97.926 19.945C97.9607 19.893 97.991 19.8237 98.017 19.737C98.0517 19.6417 98.069 19.5637 98.069 19.503C98.069 19.2083 98.0127 18.957 97.9 18.749C97.796 18.541 97.6444 18.3763 97.445 18.255C97.2457 18.1337 97.0117 18.073 96.743 18.073C96.4137 18.073 96.1364 18.1467 95.911 18.294C95.6944 18.4327 95.5254 18.645 95.404 18.931C95.2914 19.2083 95.2307 19.555 95.222 19.971C95.222 20.3697 95.2784 20.7077 95.391 20.985C95.5124 21.2623 95.69 21.4747 95.924 21.622C96.158 21.7693 96.4397 21.843 96.769 21.843C97.1417 21.843 97.458 21.7737 97.718 21.635C97.9867 21.4877 98.2077 21.271 98.381 20.985L99.85 21.44C99.538 22.0033 99.122 22.428 98.602 22.714C98.0907 22.9913 97.4754 23.13 96.756 23.13ZM104.292 18.45C104.292 19.048 104.426 19.5723 104.695 20.023C104.972 20.465 105.332 20.8073 105.774 21.05C106.216 21.284 106.697 21.401 107.217 21.401C107.65 21.401 108.036 21.3447 108.374 21.232C108.712 21.1193 109.015 20.9677 109.284 20.777C109.561 20.5863 109.8 20.3783 109.999 20.153V22.246C109.626 22.5407 109.219 22.7703 108.777 22.935C108.344 23.0997 107.793 23.182 107.126 23.182C106.433 23.182 105.787 23.0693 105.189 22.844C104.6 22.6187 104.084 22.2937 103.642 21.869C103.209 21.4443 102.871 20.946 102.628 20.374C102.394 19.7933 102.277 19.152 102.277 18.45C102.277 17.748 102.394 17.111 102.628 16.539C102.871 15.9583 103.209 15.4557 103.642 15.031C104.084 14.6063 104.6 14.2813 105.189 14.056C105.787 13.8307 106.433 13.718 107.126 13.718C107.793 13.718 108.344 13.8003 108.777 13.965C109.219 14.1297 109.626 14.3593 109.999 14.654V16.747C109.8 16.5217 109.561 16.3137 109.284 16.123C109.015 15.9323 108.712 15.7807 108.374 15.668C108.036 15.5553 107.65 15.499 107.217 15.499C106.697 15.499 106.216 15.6203 105.774 15.863C105.332 16.097 104.972 16.435 104.695 16.877C104.426 17.319 104.292 17.8433 104.292 18.45ZM114.878 12.86V23H113.188V12.86H114.878ZM117.049 19.36C117.049 18.9613 116.971 18.658 116.815 18.45C116.667 18.242 116.416 18.138 116.061 18.138C115.827 18.138 115.619 18.19 115.437 18.294C115.255 18.3893 115.116 18.528 115.021 18.71C114.925 18.892 114.878 19.1087 114.878 19.36H114.54C114.54 18.8833 114.618 18.4543 114.774 18.073C114.938 17.6917 115.181 17.3883 115.502 17.163C115.822 16.9377 116.217 16.825 116.685 16.825C117.153 16.825 117.538 16.9117 117.842 17.085C118.145 17.2583 118.37 17.5183 118.518 17.865C118.665 18.203 118.739 18.619 118.739 19.113V23H117.049V19.36ZM123.09 21.141C123.09 21.3143 123.133 21.466 123.22 21.596C123.306 21.7173 123.423 21.8127 123.571 21.882C123.727 21.9427 123.896 21.973 124.078 21.973C124.338 21.973 124.572 21.921 124.78 21.817C124.988 21.7043 125.157 21.5483 125.287 21.349C125.417 21.141 125.482 20.894 125.482 20.608L125.69 21.388C125.69 21.7693 125.581 22.09 125.365 22.35C125.157 22.61 124.884 22.805 124.546 22.935C124.216 23.065 123.87 23.13 123.506 23.13C123.133 23.13 122.786 23.0563 122.466 22.909C122.145 22.7617 121.885 22.5493 121.686 22.272C121.495 21.986 121.4 21.6393 121.4 21.232C121.4 20.6513 121.603 20.192 122.011 19.854C122.418 19.516 122.994 19.347 123.74 19.347C124.121 19.347 124.455 19.386 124.741 19.464C125.035 19.542 125.282 19.6373 125.482 19.75C125.681 19.8627 125.824 19.971 125.911 20.075V20.855C125.677 20.6817 125.412 20.5517 125.118 20.465C124.832 20.3783 124.528 20.335 124.208 20.335C123.948 20.335 123.735 20.3697 123.571 20.439C123.406 20.4997 123.285 20.5907 123.207 20.712C123.129 20.8247 123.09 20.9677 123.09 21.141ZM122.44 18.71L121.816 17.566C122.128 17.4013 122.509 17.2453 122.96 17.098C123.41 16.942 123.913 16.864 124.468 16.864C124.979 16.864 125.434 16.9377 125.833 17.085C126.231 17.2323 126.543 17.449 126.769 17.735C126.994 18.0123 127.107 18.3547 127.107 18.762V23H125.482V19.113C125.482 18.9483 125.456 18.8097 125.404 18.697C125.352 18.5757 125.269 18.476 125.157 18.398C125.053 18.32 124.927 18.2637 124.78 18.229C124.632 18.1943 124.468 18.177 124.286 18.177C124.008 18.177 123.744 18.2073 123.493 18.268C123.241 18.3287 123.025 18.4023 122.843 18.489C122.661 18.5757 122.526 18.6493 122.44 18.71ZM130.09 14.706C130.09 14.4287 130.19 14.2033 130.389 14.03C130.588 13.848 130.827 13.757 131.104 13.757C131.381 13.757 131.615 13.848 131.806 14.03C132.005 14.2033 132.105 14.4287 132.105 14.706C132.105 14.9747 132.005 15.2 131.806 15.382C131.615 15.564 131.381 15.655 131.104 15.655C130.827 15.655 130.588 15.564 130.389 15.382C130.19 15.2 130.09 14.9747 130.09 14.706ZM130.272 17.02H131.91V23H130.272V17.02ZM139.053 19.36C139.053 18.9613 138.975 18.658 138.819 18.45C138.663 18.242 138.412 18.138 138.065 18.138C137.831 18.138 137.623 18.19 137.441 18.294C137.259 18.3893 137.121 18.528 137.025 18.71C136.93 18.892 136.882 19.1087 136.882 19.36V23H135.192V17.02H136.882V17.93C137.064 17.592 137.303 17.3363 137.597 17.163C137.901 16.981 138.265 16.89 138.689 16.89C139.4 16.89 139.929 17.0937 140.275 17.501C140.622 17.8997 140.795 18.4587 140.795 19.178V23H139.053V19.36ZM144.105 22.233C144.105 21.9383 144.205 21.6913 144.404 21.492C144.612 21.284 144.868 21.18 145.171 21.18C145.483 21.18 145.739 21.284 145.938 21.492C146.137 21.6913 146.237 21.9383 146.237 22.233C146.237 22.5103 146.137 22.753 145.938 22.961C145.739 23.169 145.483 23.273 145.171 23.273C144.868 23.273 144.612 23.169 144.404 22.961C144.205 22.753 144.105 22.5103 144.105 22.233ZM144.105 17.345C144.105 17.059 144.205 16.812 144.404 16.604C144.612 16.396 144.868 16.292 145.171 16.292C145.483 16.292 145.739 16.396 145.938 16.604C146.137 16.812 146.237 17.059 146.237 17.345C146.237 17.631 146.137 17.878 145.938 18.086C145.739 18.294 145.483 18.398 145.171 18.398C144.868 18.398 144.612 18.294 144.404 18.086C144.205 17.878 144.105 17.631 144.105 17.345ZM156.289 15.525V13.9H160.358V15.525H156.289ZM156.289 19.113V17.566H160.228V19.113H156.289ZM155.093 13.9H156.887V23H155.093V13.9ZM165.001 18.45C165.001 19.0307 165.122 19.5463 165.365 19.997C165.607 20.4477 165.941 20.803 166.366 21.063C166.79 21.323 167.284 21.453 167.848 21.453C168.411 21.453 168.905 21.323 169.33 21.063C169.754 20.803 170.084 20.4477 170.318 19.997C170.56 19.5463 170.682 19.0307 170.682 18.45C170.682 17.8693 170.565 17.3537 170.331 16.903C170.097 16.4523 169.767 16.097 169.343 15.837C168.918 15.577 168.42 15.447 167.848 15.447C167.284 15.447 166.79 15.577 166.366 15.837C165.941 16.097 165.607 16.4523 165.365 16.903C165.122 17.3537 165.001 17.8693 165.001 18.45ZM163.038 18.45C163.038 17.7567 163.159 17.124 163.402 16.552C163.644 15.9713 163.982 15.4687 164.416 15.044C164.849 14.6193 165.356 14.2943 165.937 14.069C166.526 13.835 167.163 13.718 167.848 13.718C168.541 13.718 169.178 13.835 169.759 14.069C170.339 14.2943 170.846 14.6193 171.28 15.044C171.722 15.4687 172.06 15.9713 172.294 16.552C172.536 17.124 172.658 17.7567 172.658 18.45C172.658 19.1347 172.536 19.7717 172.294 20.361C172.06 20.9417 171.726 21.4487 171.293 21.882C170.868 22.3153 170.361 22.6533 169.772 22.896C169.191 23.13 168.55 23.247 167.848 23.247C167.146 23.247 166.5 23.13 165.911 22.896C165.33 22.6533 164.823 22.3153 164.39 21.882C163.956 21.4487 163.623 20.9417 163.389 20.361C163.155 19.7717 163.038 19.1347 163.038 18.45ZM177.592 17.891L177.007 23H175.07L176.422 13.445L180.231 19.321L184.04 13.445L185.392 23H183.455L182.87 17.891L180.231 22.155L177.592 17.891ZM189.789 18.45C189.789 19.0307 189.91 19.5463 190.153 19.997C190.395 20.4477 190.729 20.803 191.154 21.063C191.578 21.323 192.072 21.453 192.636 21.453C193.199 21.453 193.693 21.323 194.118 21.063C194.542 20.803 194.872 20.4477 195.106 19.997C195.348 19.5463 195.47 19.0307 195.47 18.45C195.47 17.8693 195.353 17.3537 195.119 16.903C194.885 16.4523 194.555 16.097 194.131 15.837C193.706 15.577 193.208 15.447 192.636 15.447C192.072 15.447 191.578 15.577 191.154 15.837C190.729 16.097 190.395 16.4523 190.153 16.903C189.91 17.3537 189.789 17.8693 189.789 18.45ZM187.826 18.45C187.826 17.7567 187.947 17.124 188.19 16.552C188.432 15.9713 188.77 15.4687 189.204 15.044C189.637 14.6193 190.144 14.2943 190.725 14.069C191.314 13.835 191.951 13.718 192.636 13.718C193.329 13.718 193.966 13.835 194.547 14.069C195.127 14.2943 195.634 14.6193 196.068 15.044C196.51 15.4687 196.848 15.9713 197.082 16.552C197.324 17.124 197.446 17.7567 197.446 18.45C197.446 19.1347 197.324 19.7717 197.082 20.361C196.848 20.9417 196.514 21.4487 196.081 21.882C195.656 22.3153 195.149 22.6533 194.56 22.896C193.979 23.13 193.338 23.247 192.636 23.247C191.934 23.247 191.288 23.13 190.699 22.896C190.118 22.6533 189.611 22.3153 189.178 21.882C188.744 21.4487 188.411 20.9417 188.177 20.361C187.943 19.7717 187.826 19.1347 187.826 18.45ZM201.769 18.385V17.54H203.238C203.506 17.54 203.74 17.4967 203.94 17.41C204.139 17.3233 204.291 17.1977 204.395 17.033C204.507 16.8683 204.564 16.6733 204.564 16.448C204.564 16.1013 204.442 15.837 204.2 15.655C203.966 15.473 203.645 15.382 203.238 15.382H202.237V21.518H203.433C203.745 21.518 204.026 21.4747 204.278 21.388C204.529 21.2927 204.724 21.1453 204.863 20.946C205.01 20.7467 205.084 20.491 205.084 20.179C205.084 19.9537 205.04 19.763 204.954 19.607C204.876 19.4423 204.759 19.308 204.603 19.204C204.455 19.0913 204.282 19.0133 204.083 18.97C203.883 18.918 203.667 18.892 203.433 18.892H201.769V17.878H203.602C204.044 17.878 204.464 17.9257 204.863 18.021C205.27 18.1163 205.634 18.268 205.955 18.476C206.275 18.6753 206.527 18.9353 206.709 19.256C206.899 19.5767 206.995 19.9623 206.995 20.413C206.995 21.011 206.852 21.5007 206.566 21.882C206.288 22.2633 205.894 22.545 205.383 22.727C204.871 22.909 204.278 23 203.602 23H200.378V13.9H203.407C204.013 13.9 204.546 13.9867 205.006 14.16C205.465 14.3247 205.825 14.576 206.085 14.914C206.345 15.252 206.475 15.681 206.475 16.201C206.475 16.6603 206.345 17.0547 206.085 17.384C205.825 17.7133 205.465 17.9647 205.006 18.138C204.546 18.3027 204.013 18.385 203.407 18.385H201.769ZM211.517 18.45C211.517 19.0307 211.638 19.5463 211.881 19.997C212.124 20.4477 212.457 20.803 212.882 21.063C213.307 21.323 213.801 21.453 214.364 21.453C214.927 21.453 215.421 21.323 215.846 21.063C216.271 20.803 216.6 20.4477 216.834 19.997C217.077 19.5463 217.198 19.0307 217.198 18.45C217.198 17.8693 217.081 17.3537 216.847 16.903C216.613 16.4523 216.284 16.097 215.859 15.837C215.434 15.577 214.936 15.447 214.364 15.447C213.801 15.447 213.307 15.577 212.882 15.837C212.457 16.097 212.124 16.4523 211.881 16.903C211.638 17.3537 211.517 17.8693 211.517 18.45ZM209.554 18.45C209.554 17.7567 209.675 17.124 209.918 16.552C210.161 15.9713 210.499 15.4687 210.932 15.044C211.365 14.6193 211.872 14.2943 212.453 14.069C213.042 13.835 213.679 13.718 214.364 13.718C215.057 13.718 215.694 13.835 216.275 14.069C216.856 14.2943 217.363 14.6193 217.796 15.044C218.238 15.4687 218.576 15.9713 218.81 16.552C219.053 17.124 219.174 17.7567 219.174 18.45C219.174 19.1347 219.053 19.7717 218.81 20.361C218.576 20.9417 218.242 21.4487 217.809 21.882C217.384 22.3153 216.877 22.6533 216.288 22.896C215.707 23.13 215.066 23.247 214.364 23.247C213.662 23.247 213.016 23.13 212.427 22.896C211.846 22.6533 211.339 22.3153 210.906 21.882C210.473 21.4487 210.139 20.9417 209.905 20.361C209.671 19.7717 209.554 19.1347 209.554 18.45ZM220.802 15.577V13.9H227.562V15.577H225.105V23H223.246V15.577H220.802ZM239.211 19.36C239.211 18.9613 239.133 18.658 238.977 18.45C238.821 18.242 238.57 18.138 238.223 18.138C237.989 18.138 237.781 18.19 237.599 18.294C237.417 18.3893 237.278 18.528 237.183 18.71C237.088 18.892 237.04 19.1087 237.04 19.36V23H235.35V17.02H237.04V17.93C237.222 17.592 237.46 17.3363 237.755 17.163C238.058 16.981 238.422 16.89 238.847 16.89C239.558 16.89 240.086 17.0937 240.433 17.501C240.78 17.8997 240.953 18.4587 240.953 19.178V23H239.211V19.36ZM243.704 20.01C243.704 19.386 243.847 18.84 244.133 18.372C244.428 17.904 244.822 17.54 245.316 17.28C245.819 17.02 246.386 16.89 247.019 16.89C247.652 16.89 248.215 17.02 248.709 17.28C249.212 17.54 249.606 17.904 249.892 18.372C250.187 18.84 250.334 19.386 250.334 20.01C250.334 20.6253 250.187 21.1713 249.892 21.648C249.606 22.116 249.212 22.48 248.709 22.74C248.215 23 247.652 23.13 247.019 23.13C246.386 23.13 245.819 23 245.316 22.74C244.822 22.48 244.428 22.116 244.133 21.648C243.847 21.1713 243.704 20.6253 243.704 20.01ZM245.42 20.01C245.42 20.348 245.489 20.647 245.628 20.907C245.775 21.1583 245.97 21.3577 246.213 21.505C246.456 21.6437 246.724 21.713 247.019 21.713C247.314 21.713 247.582 21.6437 247.825 21.505C248.068 21.3577 248.258 21.1583 248.397 20.907C248.544 20.647 248.618 20.348 248.618 20.01C248.618 19.672 248.544 19.373 248.397 19.113C248.258 18.853 248.068 18.6537 247.825 18.515C247.582 18.3763 247.314 18.307 247.019 18.307C246.724 18.307 246.456 18.3763 246.213 18.515C245.97 18.6537 245.775 18.853 245.628 19.113C245.489 19.373 245.42 19.672 245.42 20.01ZM252.018 17.02H253.812L255.125 20.335L256.815 16.565L258.57 20.348L259.896 17.02H261.677L258.752 23.403L256.828 19.594L254.956 23.403L252.018 17.02ZM271.012 25.86H269.322V17.02H271.012V25.86ZM275.926 20.01C275.926 20.686 275.792 21.2623 275.523 21.739C275.255 22.2157 274.899 22.5753 274.457 22.818C274.024 23.0607 273.556 23.182 273.053 23.182C272.542 23.182 272.096 23.052 271.714 22.792C271.342 22.532 271.051 22.1637 270.843 21.687C270.644 21.2103 270.544 20.6513 270.544 20.01C270.544 19.36 270.644 18.801 270.843 18.333C271.051 17.8563 271.342 17.488 271.714 17.228C272.096 16.968 272.542 16.838 273.053 16.838C273.556 16.838 274.024 16.9593 274.457 17.202C274.899 17.4447 275.255 17.8043 275.523 18.281C275.792 18.749 275.926 19.3253 275.926 20.01ZM274.184 20.01C274.184 19.6547 274.111 19.3513 273.963 19.1C273.816 18.8487 273.617 18.658 273.365 18.528C273.123 18.398 272.854 18.333 272.559 18.333C272.308 18.333 272.061 18.398 271.818 18.528C271.584 18.6493 271.389 18.8357 271.233 19.087C271.086 19.3383 271.012 19.646 271.012 20.01C271.012 20.374 271.086 20.6817 271.233 20.933C271.389 21.1843 271.584 21.375 271.818 21.505C272.061 21.6263 272.308 21.687 272.559 21.687C272.854 21.687 273.123 21.622 273.365 21.492C273.617 21.362 273.816 21.1713 273.963 20.92C274.111 20.6687 274.184 20.3653 274.184 20.01ZM280.328 17.02V23H278.677V17.02H280.328ZM282.083 18.775C281.97 18.671 281.853 18.593 281.732 18.541C281.619 18.4803 281.476 18.45 281.303 18.45C281.095 18.45 280.917 18.5063 280.77 18.619C280.622 18.7317 280.51 18.892 280.432 19.1C280.362 19.2993 280.328 19.542 280.328 19.828L279.86 19.36C279.86 18.8833 279.951 18.463 280.133 18.099C280.315 17.7263 280.553 17.4317 280.848 17.215C281.142 16.9897 281.446 16.877 281.758 16.877C281.974 16.877 282.178 16.916 282.369 16.994C282.568 17.072 282.728 17.189 282.85 17.345L282.083 18.775ZM284.644 20.01C284.644 19.386 284.787 18.84 285.073 18.372C285.367 17.904 285.762 17.54 286.256 17.28C286.758 17.02 287.326 16.89 287.959 16.89C288.591 16.89 289.155 17.02 289.649 17.28C290.151 17.54 290.546 17.904 290.832 18.372C291.126 18.84 291.274 19.386 291.274 20.01C291.274 20.6253 291.126 21.1713 290.832 21.648C290.546 22.116 290.151 22.48 289.649 22.74C289.155 23 288.591 23.13 287.959 23.13C287.326 23.13 286.758 23 286.256 22.74C285.762 22.48 285.367 22.116 285.073 21.648C284.787 21.1713 284.644 20.6253 284.644 20.01ZM286.36 20.01C286.36 20.348 286.429 20.647 286.568 20.907C286.715 21.1583 286.91 21.3577 287.153 21.505C287.395 21.6437 287.664 21.713 287.959 21.713C288.253 21.713 288.522 21.6437 288.765 21.505C289.007 21.3577 289.198 21.1583 289.337 20.907C289.484 20.647 289.558 20.348 289.558 20.01C289.558 19.672 289.484 19.373 289.337 19.113C289.198 18.853 289.007 18.6537 288.765 18.515C288.522 18.3763 288.253 18.307 287.959 18.307C287.664 18.307 287.395 18.3763 287.153 18.515C286.91 18.6537 286.715 18.853 286.568 19.113C286.429 19.373 286.36 19.672 286.36 20.01ZM292.984 17.02H294.791L296.26 20.621L297.729 17.02H299.536L296.26 23.624L292.984 17.02ZM301.759 14.706C301.759 14.4287 301.858 14.2033 302.058 14.03C302.257 13.848 302.495 13.757 302.773 13.757C303.05 13.757 303.284 13.848 303.475 14.03C303.674 14.2033 303.774 14.4287 303.774 14.706C303.774 14.9747 303.674 15.2 303.475 15.382C303.284 15.564 303.05 15.655 302.773 15.655C302.495 15.655 302.257 15.564 302.058 15.382C301.858 15.2 301.759 14.9747 301.759 14.706ZM301.941 17.02H303.579V23H301.941V17.02ZM311.372 12.86H313.062V23H311.372V12.86ZM306.458 20.01C306.458 19.3427 306.592 18.7793 306.861 18.32C307.129 17.852 307.485 17.4967 307.927 17.254C308.369 17.0113 308.837 16.89 309.331 16.89C309.833 16.89 310.275 17.0157 310.657 17.267C311.047 17.5183 311.35 17.878 311.567 18.346C311.792 18.8053 311.905 19.36 311.905 20.01C311.905 20.6513 311.792 21.206 311.567 21.674C311.35 22.142 311.047 22.5017 310.657 22.753C310.275 23.0043 309.833 23.13 309.331 23.13C308.837 23.13 308.369 23.0087 307.927 22.766C307.485 22.5233 307.129 22.168 306.861 21.7C306.592 21.232 306.458 20.6687 306.458 20.01ZM308.2 20.01C308.2 20.3653 308.273 20.673 308.421 20.933C308.568 21.193 308.767 21.3923 309.019 21.531C309.27 21.6697 309.539 21.739 309.825 21.739C310.076 21.739 310.319 21.674 310.553 21.544C310.795 21.4053 310.99 21.206 311.138 20.946C311.294 20.686 311.372 20.374 311.372 20.01C311.372 19.646 311.294 19.334 311.138 19.074C310.99 18.814 310.795 18.619 310.553 18.489C310.319 18.3503 310.076 18.281 309.825 18.281C309.539 18.281 309.27 18.3503 309.019 18.489C308.767 18.6277 308.568 18.827 308.421 19.087C308.273 19.347 308.2 19.6547 308.2 20.01ZM318.997 23.13C318.347 23.13 317.779 23 317.294 22.74C316.809 22.48 316.432 22.1203 316.163 21.661C315.903 21.193 315.773 20.6427 315.773 20.01C315.773 19.3687 315.903 18.8183 316.163 18.359C316.432 17.891 316.809 17.5313 317.294 17.28C317.779 17.02 318.351 16.89 319.01 16.89C319.669 16.89 320.228 17.0113 320.687 17.254C321.155 17.488 321.51 17.8347 321.753 18.294C321.996 18.7447 322.117 19.2907 322.117 19.932C322.117 20.01 322.113 20.0923 322.104 20.179C322.104 20.2657 322.1 20.335 322.091 20.387H316.735V19.347H320.622L320.167 19.945C320.202 19.893 320.232 19.8237 320.258 19.737C320.293 19.6417 320.31 19.5637 320.31 19.503C320.31 19.2083 320.254 18.957 320.141 18.749C320.037 18.541 319.885 18.3763 319.686 18.255C319.487 18.1337 319.253 18.073 318.984 18.073C318.655 18.073 318.377 18.1467 318.152 18.294C317.935 18.4327 317.766 18.645 317.645 18.931C317.532 19.2083 317.472 19.555 317.463 19.971C317.463 20.3697 317.519 20.7077 317.632 20.985C317.753 21.2623 317.931 21.4747 318.165 21.622C318.399 21.7693 318.681 21.843 319.01 21.843C319.383 21.843 319.699 21.7737 319.959 21.635C320.228 21.4877 320.449 21.271 320.622 20.985L322.091 21.44C321.779 22.0033 321.363 22.428 320.843 22.714C320.332 22.9913 319.716 23.13 318.997 23.13ZM324.391 22.233C324.391 21.9383 324.49 21.6913 324.69 21.492C324.898 21.284 325.153 21.18 325.457 21.18C325.769 21.18 326.024 21.284 326.224 21.492C326.423 21.6913 326.523 21.9383 326.523 22.233C326.523 22.5103 326.423 22.753 326.224 22.961C326.024 23.169 325.769 23.273 325.457 23.273C325.153 23.273 324.898 23.169 324.69 22.961C324.49 22.753 324.391 22.5103 324.391 22.233ZM329.986 22.233C329.986 21.9383 330.086 21.6913 330.285 21.492C330.493 21.284 330.749 21.18 331.052 21.18C331.364 21.18 331.62 21.284 331.819 21.492C332.019 21.6913 332.118 21.9383 332.118 22.233C332.118 22.5103 332.019 22.753 331.819 22.961C331.62 23.169 331.364 23.273 331.052 23.273C330.749 23.273 330.493 23.169 330.285 22.961C330.086 22.753 329.986 22.5103 329.986 22.233ZM335.582 22.233C335.582 21.9383 335.681 21.6913 335.881 21.492C336.089 21.284 336.344 21.18 336.648 21.18C336.96 21.18 337.215 21.284 337.415 21.492C337.614 21.6913 337.714 21.9383 337.714 22.233C337.714 22.5103 337.614 22.753 337.415 22.961C337.215 23.169 336.96 23.273 336.648 23.273C336.344 23.273 336.089 23.169 335.881 22.961C335.681 22.753 335.582 22.5103 335.582 22.233Z" fill="#6A6A6A"/>
</svg>
