<svg width="323" height="35" viewBox="0 0 323 35" fill="none" xmlns="http://www.w3.org/2000/svg">
<path d="M5.44831 15.714V13.041H9.17731C9.77131 13.041 10.2663 12.953 10.6623 12.777C11.0583 12.601 11.3553 12.348 11.5533 12.018C11.7733 11.688 11.8833 11.292 11.8833 10.83C11.8833 10.126 11.6523 9.609 11.1903 9.279C10.7503 8.949 10.0793 8.784 9.17731 8.784H7.09831V22.116H9.77131C10.4093 22.116 10.9813 22.05 11.4873 21.918C12.0153 21.786 12.4333 21.544 12.7413 21.192C13.0493 20.818 13.2033 20.29 13.2033 19.608C13.2033 19.168 13.1153 18.805 12.9393 18.519C12.7633 18.233 12.5103 18.002 12.1803 17.826C11.8723 17.65 11.5093 17.529 11.0913 17.463C10.6953 17.397 10.2553 17.364 9.77131 17.364H5.44831V13.866H10.5633C11.6853 13.866 12.7963 13.998 13.8963 14.262C14.9963 14.504 15.9973 14.9 16.8993 15.45C17.8013 15.978 18.5163 16.671 19.0443 17.529C19.5943 18.365 19.8693 19.377 19.8693 20.565C19.8693 22.105 19.4953 23.348 18.7473 24.294C17.9993 25.24 16.9323 25.933 15.5463 26.373C14.1603 26.791 12.4993 27 10.5633 27H0.696313V3.9H9.96931C11.6193 3.9 13.0823 4.12 14.3583 4.56C15.6563 5 16.6793 5.66 17.4273 6.54C18.1753 7.398 18.5493 8.487 18.5493 9.807C18.5493 11.061 18.1753 12.139 17.4273 13.041C16.6793 13.921 15.6563 14.592 14.3583 15.054C13.0823 15.494 11.6193 15.714 9.96931 15.714H5.44831ZM29.0536 21.06C29.0536 21.852 29.1856 22.468 29.4496 22.908C29.7136 23.326 30.2086 23.535 30.9346 23.535C31.4186 23.535 31.8256 23.447 32.1556 23.271C32.4856 23.095 32.7386 22.82 32.9146 22.446C33.1126 22.072 33.2116 21.61 33.2116 21.06V11.82H38.9206V27H33.2116V24.756C32.7716 25.548 32.1666 26.186 31.3966 26.67C30.6486 27.132 29.7026 27.363 28.5586 27.363C26.5786 27.363 25.1706 26.868 24.3346 25.878C23.4986 24.866 23.0806 23.458 23.0806 21.654V11.82H29.0536V21.06ZM59.1115 11.82L49.2115 34.26H43.5685L47.1325 26.043L40.3345 11.82H46.5385L51.4555 24.096L48.4525 24.063L53.3365 11.82H59.1115ZM68.2434 11.82H74.1504L77.1204 18.981L81.5424 10.665L85.9974 18.981L88.9674 11.82H94.8744L86.6904 27.891L81.5424 19.476L76.4274 27.891L68.2434 11.82ZM95.9356 6.309C95.9356 5.429 96.2436 4.714 96.8596 4.164C97.4976 3.614 98.2566 3.339 99.1366 3.339C100.039 3.339 100.798 3.614 101.414 4.164C102.052 4.714 102.371 5.429 102.371 6.309C102.371 7.167 102.052 7.871 101.414 8.421C100.798 8.971 100.039 9.246 99.1366 9.246C98.2566 9.246 97.4976 8.971 96.8596 8.421C96.2436 7.871 95.9356 7.167 95.9356 6.309ZM96.3976 11.82H101.876V27H96.3976V11.82ZM103.963 11.82H114.886V16.44H103.963V11.82ZM106.702 6.54H112.147V27H106.702V6.54ZM122.569 1.26V27H116.86V1.26H122.569ZM126.727 17.76C126.727 16.968 126.595 16.363 126.331 15.945C126.067 15.505 125.561 15.285 124.813 15.285C124.373 15.285 123.977 15.384 123.625 15.582C123.295 15.758 123.031 16.033 122.833 16.407C122.657 16.759 122.569 17.21 122.569 17.76H121.711C121.711 16.55 121.898 15.45 122.272 14.46C122.646 13.47 123.229 12.678 124.021 12.084C124.835 11.49 125.902 11.193 127.222 11.193C128.542 11.193 129.576 11.413 130.324 11.853C131.072 12.293 131.611 12.942 131.941 13.8C132.271 14.636 132.436 15.67 132.436 16.902V27H126.727V17.76ZM152.231 15.45C152.231 16.748 152.517 17.859 153.089 18.783C153.683 19.685 154.464 20.378 155.432 20.862C156.4 21.324 157.467 21.555 158.633 21.555C159.733 21.555 160.69 21.412 161.504 21.126C162.318 20.84 163.044 20.477 163.682 20.037C164.32 19.575 164.881 19.091 165.365 18.585V25.317C164.463 25.977 163.462 26.527 162.362 26.967C161.284 27.385 159.898 27.594 158.204 27.594C156.29 27.594 154.53 27.308 152.924 26.736C151.318 26.164 149.943 25.339 148.799 24.261C147.655 23.183 146.764 21.907 146.126 20.433C145.51 18.937 145.202 17.276 145.202 15.45C145.202 13.624 145.51 11.974 146.126 10.5C146.764 9.004 147.655 7.717 148.799 6.639C149.943 5.561 151.318 4.736 152.924 4.164C154.53 3.592 156.29 3.306 158.204 3.306C159.898 3.306 161.284 3.515 162.362 3.933C163.462 4.351 164.463 4.901 165.365 5.583V12.315C164.881 11.809 164.32 11.336 163.682 10.896C163.044 10.434 162.318 10.06 161.504 9.774C160.69 9.488 159.733 9.345 158.633 9.345C157.467 9.345 156.4 9.587 155.432 10.071C154.464 10.533 153.683 11.226 153.089 12.15C152.517 13.052 152.231 14.152 152.231 15.45ZM168.436 19.41C168.436 17.782 168.821 16.374 169.591 15.186C170.361 13.998 171.417 13.085 172.759 12.447C174.123 11.787 175.652 11.457 177.346 11.457C179.062 11.457 180.591 11.787 181.933 12.447C183.275 13.085 184.331 13.998 185.101 15.186C185.893 16.374 186.289 17.782 186.289 19.41C186.289 21.016 185.893 22.413 185.101 23.601C184.331 24.789 183.275 25.713 181.933 26.373C180.591 27.011 179.062 27.33 177.346 27.33C175.652 27.33 174.123 27.011 172.759 26.373C171.417 25.713 170.361 24.789 169.591 23.601C168.821 22.413 168.436 21.016 168.436 19.41ZM174.31 19.41C174.31 20.114 174.442 20.719 174.706 21.225C174.992 21.709 175.366 22.083 175.828 22.347C176.29 22.589 176.796 22.71 177.346 22.71C177.896 22.71 178.402 22.589 178.864 22.347C179.326 22.083 179.7 21.709 179.986 21.225C180.272 20.719 180.415 20.114 180.415 19.41C180.415 18.706 180.272 18.112 179.986 17.628C179.7 17.122 179.326 16.737 178.864 16.473C178.402 16.209 177.896 16.077 177.346 16.077C176.796 16.077 176.29 16.209 175.828 16.473C175.366 16.737 174.992 17.122 174.706 17.628C174.442 18.112 174.31 18.706 174.31 19.41ZM198.979 17.76C198.979 16.968 198.847 16.363 198.583 15.945C198.319 15.505 197.813 15.285 197.065 15.285C196.625 15.285 196.229 15.373 195.877 15.549C195.547 15.725 195.283 16 195.085 16.374C194.909 16.748 194.821 17.21 194.821 17.76V27H189.112V11.82H194.821V14.064C195.239 13.272 195.822 12.645 196.57 12.183C197.34 11.699 198.308 11.457 199.474 11.457C201.454 11.457 202.862 11.963 203.698 12.975C204.534 13.965 204.952 15.362 204.952 17.166V27H198.979V17.76ZM207.158 11.82H218.345V16.44H207.158V11.82ZM217.685 6.54C217.465 6.276 217.234 6.078 216.992 5.946C216.75 5.792 216.486 5.715 216.2 5.715C215.87 5.715 215.584 5.792 215.342 5.946C215.122 6.078 214.946 6.298 214.814 6.606C214.682 6.892 214.616 7.266 214.616 7.728V27H209.171V6.21C209.171 5.088 209.391 4.12 209.831 3.306C210.293 2.47 210.975 1.821 211.877 1.359C212.779 0.896999 213.912 0.665999 215.276 0.665999C216.134 0.665999 216.849 0.764999 217.421 0.962999C218.015 1.161 218.51 1.403 218.906 1.689C219.302 1.975 219.621 2.228 219.863 2.448L217.685 6.54ZM220.105 6.309C220.105 5.429 220.413 4.714 221.029 4.164C221.667 3.614 222.426 3.339 223.306 3.339C224.208 3.339 224.967 3.614 225.583 4.164C226.221 4.714 226.54 5.429 226.54 6.309C226.54 7.167 226.221 7.871 225.583 8.421C224.967 8.971 224.208 9.246 223.306 9.246C222.426 9.246 221.667 8.971 221.029 8.421C220.413 7.871 220.105 7.167 220.105 6.309ZM220.567 11.82H226.045V27H220.567V11.82ZM241.299 1.26H247.008V27H241.299V1.26ZM228.99 19.41C228.99 17.672 229.331 16.22 230.013 15.054C230.717 13.888 231.608 13.008 232.686 12.414C233.786 11.798 234.93 11.49 236.118 11.49C237.394 11.49 238.527 11.809 239.517 12.447C240.507 13.085 241.288 13.998 241.86 15.186C242.454 16.352 242.751 17.76 242.751 19.41C242.751 21.038 242.454 22.446 241.86 23.634C241.288 24.822 240.507 25.735 239.517 26.373C238.527 27.011 237.394 27.33 236.118 27.33C234.93 27.33 233.786 27.033 232.686 26.439C231.608 25.823 230.717 24.932 230.013 23.766C229.331 22.578 228.99 21.126 228.99 19.41ZM234.996 19.41C234.996 20.07 235.139 20.664 235.425 21.192C235.711 21.72 236.096 22.127 236.58 22.413C237.064 22.699 237.592 22.842 238.164 22.842C238.67 22.842 239.165 22.71 239.649 22.446C240.133 22.16 240.529 21.764 240.837 21.258C241.145 20.752 241.299 20.136 241.299 19.41C241.299 18.684 241.145 18.068 240.837 17.562C240.529 17.056 240.133 16.671 239.649 16.407C239.165 16.121 238.67 15.978 238.164 15.978C237.592 15.978 237.064 16.121 236.58 16.407C236.096 16.693 235.711 17.1 235.425 17.628C235.139 18.134 234.996 18.728 234.996 19.41ZM258.85 27.33C256.98 27.33 255.363 27.011 253.999 26.373C252.657 25.713 251.623 24.8 250.897 23.634C250.171 22.446 249.808 21.038 249.808 19.41C249.808 17.76 250.16 16.352 250.864 15.186C251.568 13.998 252.58 13.085 253.9 12.447C255.22 11.809 256.804 11.49 258.652 11.49C260.5 11.49 262.051 11.787 263.305 12.381C264.559 12.975 265.516 13.844 266.176 14.988C266.836 16.11 267.166 17.496 267.166 19.146C267.166 19.41 267.155 19.674 267.133 19.938C267.133 20.18 267.122 20.4 267.1 20.598H252.943V17.661H261.886L260.665 19.179C260.775 19.003 260.874 18.805 260.962 18.585C261.05 18.365 261.094 18.178 261.094 18.024C261.094 17.408 260.984 16.891 260.764 16.473C260.566 16.033 260.269 15.703 259.873 15.483C259.499 15.241 259.048 15.12 258.52 15.12C257.86 15.12 257.31 15.274 256.87 15.582C256.43 15.89 256.1 16.363 255.88 17.001C255.66 17.617 255.55 18.409 255.55 19.377C255.528 20.235 255.638 20.961 255.88 21.555C256.122 22.149 256.474 22.611 256.936 22.941C257.398 23.249 257.97 23.403 258.652 23.403C259.488 23.403 260.192 23.26 260.764 22.974C261.358 22.666 261.82 22.226 262.15 21.654L267.298 22.677C266.484 24.239 265.373 25.405 263.965 26.175C262.579 26.945 260.874 27.33 258.85 27.33ZM279.964 17.76C279.964 16.968 279.832 16.363 279.568 15.945C279.304 15.505 278.798 15.285 278.05 15.285C277.61 15.285 277.214 15.373 276.862 15.549C276.532 15.725 276.268 16 276.07 16.374C275.894 16.748 275.806 17.21 275.806 17.76V27H270.097V11.82H275.806V14.064C276.224 13.272 276.807 12.645 277.555 12.183C278.325 11.699 279.293 11.457 280.459 11.457C282.439 11.457 283.847 11.963 284.683 12.975C285.519 13.965 285.937 15.362 285.937 17.166V27H279.964V17.76ZM294.611 19.41C294.611 20.136 294.776 20.763 295.106 21.291C295.436 21.819 295.887 22.226 296.459 22.512C297.031 22.776 297.647 22.908 298.307 22.908C298.857 22.908 299.396 22.831 299.924 22.677C300.452 22.523 300.936 22.292 301.376 21.984C301.838 21.654 302.223 21.258 302.531 20.796V26.142C302.003 26.472 301.376 26.758 300.65 27C299.924 27.22 298.967 27.33 297.779 27.33C296.041 27.33 294.49 27.011 293.126 26.373C291.762 25.713 290.684 24.789 289.892 23.601C289.122 22.413 288.737 21.016 288.737 19.41C288.737 17.782 289.122 16.385 289.892 15.219C290.684 14.031 291.762 13.118 293.126 12.48C294.49 11.82 296.041 11.49 297.779 11.49C298.967 11.49 299.924 11.611 300.65 11.853C301.376 12.073 302.003 12.337 302.531 12.645V17.991C302.223 17.507 301.816 17.111 301.31 16.803C300.826 16.495 300.32 16.275 299.792 16.143C299.264 15.989 298.769 15.912 298.307 15.912C297.647 15.912 297.031 16.066 296.459 16.374C295.887 16.682 295.436 17.1 295.106 17.628C294.776 18.156 294.611 18.75 294.611 19.41ZM314.248 27.33C312.378 27.33 310.761 27.011 309.397 26.373C308.055 25.713 307.021 24.8 306.295 23.634C305.569 22.446 305.206 21.038 305.206 19.41C305.206 17.76 305.558 16.352 306.262 15.186C306.966 13.998 307.978 13.085 309.298 12.447C310.618 11.809 312.202 11.49 314.05 11.49C315.898 11.49 317.449 11.787 318.703 12.381C319.957 12.975 320.914 13.844 321.574 14.988C322.234 16.11 322.564 17.496 322.564 19.146C322.564 19.41 322.553 19.674 322.531 19.938C322.531 20.18 322.52 20.4 322.498 20.598H308.341V17.661H317.284L316.063 19.179C316.173 19.003 316.272 18.805 316.36 18.585C316.448 18.365 316.492 18.178 316.492 18.024C316.492 17.408 316.382 16.891 316.162 16.473C315.964 16.033 315.667 15.703 315.271 15.483C314.897 15.241 314.446 15.12 313.918 15.12C313.258 15.12 312.708 15.274 312.268 15.582C311.828 15.89 311.498 16.363 311.278 17.001C311.058 17.617 310.948 18.409 310.948 19.377C310.926 20.235 311.036 20.961 311.278 21.555C311.52 22.149 311.872 22.611 312.334 22.941C312.796 23.249 313.368 23.403 314.05 23.403C314.886 23.403 315.59 23.26 316.162 22.974C316.756 22.666 317.218 22.226 317.548 21.654L322.696 22.677C321.882 24.239 320.771 25.405 319.363 26.175C317.977 26.945 316.272 27.33 314.248 27.33Z" fill="url(#paint0_linear_17_135)"/>
<defs>
<linearGradient id="paint0_linear_17_135" x1="10" y1="19.3488" x2="305.339" y2="46.0735" gradientUnits="userSpaceOnUse">
<stop stop-color="#8424C3"/>
<stop offset="1" stop-color="#ED0381"/>
</linearGradient>
</defs>
</svg>
