<svg width="42" height="163" viewBox="0 0 42 163" fill="none" xmlns="http://www.w3.org/2000/svg">
<line x1="20.5" y1="122" x2="20.5" y2="-6.55671e-08" stroke="url(#paint0_linear_17_130)" stroke-opacity="0.59" stroke-width="3"/>
<circle cx="21" cy="142" r="21" fill="url(#paint1_linear_17_130)"/>
<path d="M16.5832 147L21.3532 142.02C21.6232 141.73 21.8532 141.46 22.0432 141.21C22.2332 140.96 22.3782 140.71 22.4782 140.46C22.5782 140.21 22.6282 139.95 22.6282 139.68C22.6282 139.49 22.5932 139.305 22.5232 139.125C22.4532 138.945 22.3482 138.785 22.2082 138.645C22.0682 138.505 21.8982 138.395 21.6982 138.315C21.4982 138.225 21.2682 138.18 21.0082 138.18C20.6382 138.18 20.3182 138.27 20.0482 138.45C19.7882 138.62 19.5832 138.865 19.4332 139.185C19.2932 139.505 19.2232 139.875 19.2232 140.295H17.1232C17.1232 139.545 17.2732 138.87 17.5732 138.27C17.8732 137.67 18.3132 137.195 18.8932 136.845C19.4832 136.485 20.2032 136.305 21.0532 136.305C21.6832 136.305 22.2332 136.405 22.7032 136.605C23.1832 136.795 23.5782 137.05 23.8882 137.37C24.2082 137.68 24.4432 138.025 24.5932 138.405C24.7532 138.785 24.8332 139.165 24.8332 139.545C24.8332 140.105 24.6982 140.63 24.4282 141.12C24.1582 141.61 23.8032 142.055 23.3632 142.455L20.6332 145.035H25.0282V147H16.5832Z" fill="black"/>
<defs>
<linearGradient id="paint0_linear_17_130" x1="22.0001" y1="137.87" x2="21.5082" y2="42.1544" gradientUnits="userSpaceOnUse">
<stop stop-color="#A919AF"/>
<stop offset="1" stop-color="#A919AF" stop-opacity="0"/>
</linearGradient>
<linearGradient id="paint1_linear_17_130" x1="7.85804e-09" y1="142" x2="42" y2="144.5" gradientUnits="userSpaceOnUse">
<stop stop-color="#8425C4"/>
<stop offset="1" stop-color="#EC058A"/>
</linearGradient>
</defs>
</svg>
