<svg width="42" height="163" viewBox="0 0 42 163" fill="none" xmlns="http://www.w3.org/2000/svg">
<line x1="20.5" y1="122" x2="20.5" y2="-6.55671e-08" stroke="url(#paint0_linear_17_183)" stroke-opacity="0.59" stroke-width="3"/>
<circle cx="21" cy="142" r="21" fill="url(#paint1_linear_17_183)"/>
<path d="M21.0449 141.885V140.85C21.3549 140.85 21.6299 140.81 21.8699 140.73C22.1199 140.65 22.3299 140.54 22.4999 140.4C22.6699 140.25 22.7999 140.085 22.8899 139.905C22.9899 139.715 23.0399 139.52 23.0399 139.32C23.0399 139.07 22.9899 138.85 22.8899 138.66C22.7899 138.47 22.6449 138.325 22.4549 138.225C22.2649 138.125 22.0199 138.075 21.7199 138.075C21.2999 138.075 20.9449 138.205 20.6549 138.465C20.3749 138.715 20.2349 139.035 20.2349 139.425H18.2399C18.2399 138.825 18.3849 138.295 18.6749 137.835C18.9749 137.365 19.3849 136.995 19.9049 136.725C20.4249 136.455 21.0299 136.32 21.7199 136.32C22.4499 136.32 23.0699 136.45 23.5799 136.71C24.0999 136.97 24.4949 137.315 24.7649 137.745C25.0349 138.175 25.1699 138.655 25.1699 139.185C25.1699 139.755 24.9899 140.245 24.6299 140.655C24.2699 141.055 23.7799 141.36 23.1599 141.57C22.5399 141.78 21.8349 141.885 21.0449 141.885ZM21.6299 147.21C21.0299 147.21 20.4949 147.12 20.0249 146.94C19.5549 146.76 19.1549 146.515 18.8249 146.205C18.4949 145.885 18.2399 145.525 18.0599 145.125C17.8799 144.715 17.7899 144.285 17.7899 143.835H19.9199C19.9199 144.175 19.9999 144.465 20.1599 144.705C20.3199 144.945 20.5349 145.13 20.8049 145.26C21.0749 145.38 21.3699 145.44 21.6899 145.44C22.0199 145.44 22.3049 145.385 22.5449 145.275C22.7949 145.155 22.9899 144.985 23.1299 144.765C23.2699 144.545 23.3399 144.27 23.3399 143.94C23.3399 143.7 23.2899 143.48 23.1899 143.28C23.0899 143.07 22.9399 142.895 22.7399 142.755C22.5499 142.615 22.3099 142.51 22.0199 142.44C21.7399 142.36 21.4149 142.32 21.0449 142.32V141.18C21.6849 141.18 22.2699 141.235 22.7999 141.345C23.3399 141.455 23.8099 141.635 24.2099 141.885C24.6099 142.125 24.9199 142.435 25.1399 142.815C25.3599 143.185 25.4699 143.635 25.4699 144.165C25.4699 144.765 25.3099 145.295 24.9899 145.755C24.6799 146.215 24.2349 146.575 23.6549 146.835C23.0849 147.085 22.4099 147.21 21.6299 147.21Z" fill="black"/>
<defs>
<linearGradient id="paint0_linear_17_183" x1="22.0001" y1="137.87" x2="21.5082" y2="42.1544" gradientUnits="userSpaceOnUse">
<stop stop-color="#FC9239"/>
<stop offset="1" stop-color="#FC9239" stop-opacity="0"/>
</linearGradient>
<linearGradient id="paint1_linear_17_183" x1="7.85804e-09" y1="142" x2="42" y2="144.5" gradientUnits="userSpaceOnUse">
<stop stop-color="#FF524C"/>
<stop offset="1" stop-color="#FABF2C"/>
</linearGradient>
</defs>
</svg>
