<svg width="191" height="34" viewBox="0 0 191 34" fill="none" xmlns="http://www.w3.org/2000/svg">
<path d="M15.9472 2.9H22.0852V27.155L6.60824 14.252V26H0.470238V1.745L15.9472 14.648V2.9ZM25.4786 18.41C25.4786 16.782 25.8636 15.374 26.6336 14.186C27.4036 12.998 28.4596 12.085 29.8016 11.447C31.1656 10.787 32.6946 10.457 34.3886 10.457C36.1046 10.457 37.6336 10.787 38.9756 11.447C40.3176 12.085 41.3736 12.998 42.1436 14.186C42.9356 15.374 43.3316 16.782 43.3316 18.41C43.3316 20.016 42.9356 21.413 42.1436 22.601C41.3736 23.789 40.3176 24.713 38.9756 25.373C37.6336 26.011 36.1046 26.33 34.3886 26.33C32.6946 26.33 31.1656 26.011 29.8016 25.373C28.4596 24.713 27.4036 23.789 26.6336 22.601C25.8636 21.413 25.4786 20.016 25.4786 18.41ZM31.3526 18.41C31.3526 19.114 31.4846 19.719 31.7486 20.225C32.0346 20.709 32.4086 21.083 32.8706 21.347C33.3326 21.589 33.8386 21.71 34.3886 21.71C34.9386 21.71 35.4446 21.589 35.9066 21.347C36.3686 21.083 36.7426 20.709 37.0286 20.225C37.3146 19.719 37.4576 19.114 37.4576 18.41C37.4576 17.706 37.3146 17.112 37.0286 16.628C36.7426 16.122 36.3686 15.737 35.9066 15.473C35.4446 15.209 34.9386 15.077 34.3886 15.077C33.8386 15.077 33.3326 15.209 32.8706 15.473C32.4086 15.737 32.0346 16.122 31.7486 16.628C31.4846 17.112 31.3526 17.706 31.3526 18.41ZM62.8789 15.803H69.4459L76.3759 26H68.9179L62.8789 15.803ZM56.6089 2.9H63.0109V26H56.6089V2.9ZM60.7009 8.312V2.9H65.6839C67.7959 2.9 69.5339 3.23 70.8979 3.89C72.2839 4.55 73.3069 5.463 73.9669 6.629C74.6489 7.773 74.9899 9.104 74.9899 10.622C74.9899 12.118 74.6489 13.46 73.9669 14.648C73.3069 15.814 72.2839 16.727 70.8979 17.387C69.5339 18.025 67.7959 18.344 65.6839 18.344H60.7009V13.493H65.1559C65.8379 13.493 66.4099 13.394 66.8719 13.196C67.3339 12.998 67.6859 12.701 67.9279 12.305C68.1919 11.909 68.3239 11.436 68.3239 10.886C68.3239 10.336 68.1919 9.874 67.9279 9.5C67.6859 9.104 67.3339 8.807 66.8719 8.609C66.4099 8.411 65.8379 8.312 65.1559 8.312H60.7009ZM84.225 20.06C84.225 20.852 84.357 21.468 84.621 21.908C84.885 22.326 85.38 22.535 86.106 22.535C86.59 22.535 86.997 22.447 87.327 22.271C87.657 22.095 87.91 21.82 88.086 21.446C88.284 21.072 88.383 20.61 88.383 20.06V10.82H94.092V26H88.383V23.756C87.943 24.548 87.338 25.186 86.568 25.67C85.82 26.132 84.874 26.363 83.73 26.363C81.75 26.363 80.342 25.868 79.506 24.878C78.67 23.866 78.252 22.458 78.252 20.654V10.82H84.225V20.06ZM97.2549 27.122H102.733C102.821 27.716 102.997 28.189 103.261 28.541C103.525 28.893 103.877 29.146 104.317 29.3C104.757 29.454 105.241 29.531 105.769 29.531C106.451 29.531 107.045 29.377 107.551 29.069C108.079 28.783 108.486 28.354 108.772 27.782C109.08 27.21 109.234 26.506 109.234 25.67V10.82H114.679V25.67C114.679 27.672 114.294 29.278 113.524 30.488C112.754 31.72 111.72 32.611 110.422 33.161C109.146 33.711 107.694 33.986 106.066 33.986C104.042 33.986 102.414 33.7 101.182 33.128C99.9499 32.556 99.0259 31.742 98.4099 30.686C97.7939 29.652 97.4089 28.464 97.2549 27.122ZM96.9249 18.146C96.9249 16.408 97.2659 14.978 97.9479 13.856C98.6519 12.734 99.5429 11.898 100.621 11.348C101.721 10.776 102.865 10.49 104.053 10.49C105.329 10.49 106.462 10.787 107.452 11.381C108.442 11.975 109.223 12.844 109.795 13.988C110.389 15.11 110.686 16.496 110.686 18.146C110.686 19.774 110.389 21.16 109.795 22.304C109.223 23.448 108.442 24.317 107.452 24.911C106.462 25.505 105.329 25.802 104.053 25.802C102.865 25.802 101.721 25.527 100.621 24.977C99.5429 24.405 98.6519 23.558 97.9479 22.436C97.2659 21.292 96.9249 19.862 96.9249 18.146ZM102.931 18.146C102.931 18.806 103.074 19.378 103.36 19.862C103.646 20.346 104.031 20.709 104.515 20.951C104.999 21.193 105.527 21.314 106.099 21.314C106.605 21.314 107.1 21.204 107.584 20.984C108.068 20.742 108.464 20.39 108.772 19.928C109.08 19.466 109.234 18.872 109.234 18.146C109.234 17.596 109.146 17.123 108.97 16.727C108.794 16.331 108.552 16.001 108.244 15.737C107.936 15.473 107.595 15.286 107.221 15.176C106.847 15.044 106.473 14.978 106.099 14.978C105.527 14.978 104.999 15.099 104.515 15.341C104.031 15.583 103.646 15.946 103.36 16.43C103.074 16.892 102.931 17.464 102.931 18.146ZM123.921 33.26H118.212V10.82H123.921V33.26ZM136.23 18.41C136.23 20.214 135.878 21.721 135.174 22.931C134.492 24.141 133.612 25.054 132.534 25.67C131.456 26.286 130.312 26.594 129.102 26.594C127.76 26.594 126.605 26.253 125.637 25.571C124.691 24.889 123.965 23.932 123.459 22.7C122.975 21.468 122.733 20.038 122.733 18.41C122.733 16.76 122.975 15.33 123.459 14.12C123.965 12.888 124.691 11.931 125.637 11.249C126.605 10.567 127.76 10.226 129.102 10.226C130.312 10.226 131.456 10.534 132.534 11.15C133.612 11.766 134.492 12.679 135.174 13.889C135.878 15.077 136.23 16.584 136.23 18.41ZM130.224 18.41C130.224 17.728 130.081 17.156 129.795 16.694C129.509 16.21 129.124 15.847 128.64 15.605C128.156 15.363 127.617 15.242 127.023 15.242C126.517 15.242 126.022 15.363 125.538 15.605C125.076 15.825 124.691 16.166 124.383 16.628C124.075 17.09 123.921 17.684 123.921 18.41C123.921 19.136 124.075 19.73 124.383 20.192C124.691 20.654 125.076 21.006 125.538 21.248C126.022 21.468 126.517 21.578 127.023 21.578C127.617 21.578 128.156 21.457 128.64 21.215C129.124 20.973 129.509 20.61 129.795 20.126C130.081 19.642 130.224 19.07 130.224 18.41ZM145.037 20.06C145.037 20.852 145.169 21.468 145.433 21.908C145.697 22.326 146.192 22.535 146.918 22.535C147.402 22.535 147.809 22.447 148.139 22.271C148.469 22.095 148.722 21.82 148.898 21.446C149.096 21.072 149.195 20.61 149.195 20.06V10.82H154.904V26H149.195V23.756C148.755 24.548 148.15 25.186 147.38 25.67C146.632 26.132 145.686 26.363 144.542 26.363C142.562 26.363 141.154 25.868 140.318 24.878C139.482 23.866 139.064 22.458 139.064 20.654V10.82H145.037V20.06ZM158.528 0.259999H164.237V26H158.528V0.259999ZM167.842 0.259999H173.551V26H167.842V0.259999ZM178.013 20.225C178.937 20.929 179.74 21.457 180.422 21.809C181.104 22.161 181.687 22.392 182.171 22.502C182.655 22.612 183.029 22.667 183.293 22.667C183.711 22.667 184.019 22.579 184.217 22.403C184.415 22.227 184.514 21.985 184.514 21.677C184.514 21.413 184.426 21.193 184.25 21.017C184.096 20.819 183.788 20.621 183.326 20.423C182.886 20.225 182.226 19.983 181.346 19.697C180.62 19.455 179.927 19.158 179.267 18.806C178.607 18.432 178.068 17.937 177.65 17.321C177.254 16.683 177.056 15.869 177.056 14.879C177.056 13.933 177.309 13.141 177.815 12.503C178.321 11.843 179.014 11.348 179.894 11.018C180.774 10.666 181.797 10.49 182.963 10.49C183.865 10.49 184.701 10.589 185.471 10.787C186.263 10.963 187.011 11.205 187.715 11.513C188.419 11.799 189.112 12.14 189.794 12.536L188.111 16.331C187.407 15.715 186.615 15.22 185.735 14.846C184.877 14.45 184.118 14.252 183.458 14.252C183.04 14.252 182.732 14.329 182.534 14.483C182.358 14.637 182.27 14.824 182.27 15.044C182.27 15.352 182.402 15.605 182.666 15.803C182.93 15.979 183.326 16.155 183.854 16.331C184.382 16.507 185.053 16.749 185.867 17.057C186.637 17.343 187.341 17.673 187.979 18.047C188.639 18.399 189.167 18.861 189.563 19.433C189.981 20.005 190.19 20.764 190.19 21.71C190.19 23.426 189.673 24.691 188.639 25.505C187.627 26.319 186.186 26.726 184.316 26.726C183.194 26.726 182.138 26.616 181.148 26.396C180.18 26.176 179.267 25.868 178.409 25.472C177.551 25.076 176.726 24.625 175.934 24.119L178.013 20.225Z" fill="url(#paint0_linear_17_79)"/>
<defs>
<linearGradient id="paint0_linear_17_79" x1="5.10429" y1="18.3488" x2="180.88" y2="27.7653" gradientUnits="userSpaceOnUse">
<stop stop-color="#00D9DA"/>
<stop offset="1" stop-color="#5358FE"/>
</linearGradient>
</defs>
</svg>
