<svg width="1034" height="34" viewBox="0 0 1034 34" fill="none" xmlns="http://www.w3.org/2000/svg">
<path d="M7.18233 14.45C7.18233 15.682 7.42433 16.782 7.90833 17.75C8.39233 18.696 9.07433 19.444 9.95433 19.994C10.8343 20.522 11.8683 20.786 13.0563 20.786C14.2663 20.786 15.3003 20.522 16.1583 19.994C17.0383 19.444 17.7203 18.696 18.2043 17.75C18.6883 16.782 18.9303 15.682 18.9303 14.45C18.9303 13.196 18.6993 12.096 18.2373 11.15C17.7753 10.204 17.1043 9.467 16.2243 8.939C15.3663 8.389 14.3103 8.114 13.0563 8.114C11.8683 8.114 10.8343 8.389 9.95433 8.939C9.07433 9.467 8.39233 10.204 7.90833 11.15C7.42433 12.096 7.18233 13.196 7.18233 14.45ZM0.417328 14.45C0.417328 12.624 0.736328 10.974 1.37433 9.5C2.03433 8.004 2.93633 6.728 4.08033 5.672C5.22433 4.594 6.55533 3.769 8.07333 3.197C9.61333 2.603 11.2743 2.306 13.0563 2.306C14.8823 2.306 16.5543 2.603 18.0723 3.197C19.6123 3.769 20.9543 4.594 22.0983 5.672C23.2423 6.728 24.1223 8.004 24.7383 9.5C25.3763 10.974 25.6953 12.624 25.6953 14.45C25.6953 16.254 25.3873 17.915 24.7713 19.433C24.1553 20.951 23.2863 22.271 22.1643 23.393C21.0423 24.493 19.7003 25.351 18.1383 25.967C16.5983 26.561 14.9043 26.858 13.0563 26.858C11.2083 26.858 9.51433 26.561 7.97433 25.967C6.43433 25.351 5.09233 24.493 3.94833 23.393C2.82633 22.271 1.95733 20.951 1.34133 19.433C0.725328 17.915 0.417328 16.254 0.417328 14.45ZM34.5419 20.06C34.5419 20.852 34.6739 21.468 34.9379 21.908C35.2019 22.326 35.6969 22.535 36.4229 22.535C36.9069 22.535 37.3139 22.447 37.6439 22.271C37.9739 22.095 38.2269 21.82 38.4029 21.446C38.6009 21.072 38.6999 20.61 38.6999 20.06V10.82H44.4089V26H38.6999V23.756C38.2599 24.548 37.6549 25.186 36.8849 25.67C36.1369 26.132 35.1909 26.363 34.0469 26.363C32.0669 26.363 30.6589 25.868 29.8229 24.878C28.9869 23.866 28.5689 22.458 28.5689 20.654V10.82H34.5419V20.06ZM53.6108 10.82V26H48.0338V10.82H53.6108ZM57.9338 16.661C57.6918 16.397 57.4168 16.188 57.1088 16.034C56.8228 15.858 56.4598 15.77 56.0198 15.77C55.5798 15.77 55.1728 15.891 54.7988 16.133C54.4248 16.375 54.1278 16.738 53.9078 17.222C53.7098 17.706 53.6108 18.311 53.6108 19.037L52.4228 16.76C52.4228 15.55 52.6648 14.472 53.1488 13.526C53.6328 12.58 54.2708 11.832 55.0628 11.282C55.8768 10.71 56.7238 10.424 57.6038 10.424C58.1538 10.424 58.6818 10.556 59.1878 10.82C59.6938 11.062 60.0678 11.37 60.3098 11.744L57.9338 16.661ZM96.0304 16.166V26H90.3214V16.76C90.3214 15.968 90.1894 15.363 89.9254 14.945C89.6834 14.505 89.2654 14.285 88.6714 14.285C88.3194 14.285 88.0004 14.373 87.7144 14.549C87.4284 14.725 87.2084 15 87.0544 15.374C86.9004 15.726 86.8234 16.188 86.8234 16.76V26H81.1144V16.76C81.1144 15.968 80.9824 15.363 80.7184 14.945C80.4764 14.505 80.0584 14.285 79.4644 14.285C79.1124 14.285 78.7934 14.373 78.5074 14.549C78.2214 14.725 78.0014 15 77.8474 15.374C77.6934 15.726 77.6164 16.188 77.6164 16.76V26H72.1714V10.82H77.6164V13.097C78.0344 12.283 78.6064 11.645 79.3324 11.183C80.0804 10.699 80.9934 10.457 82.0714 10.457C83.2814 10.457 84.2274 10.666 84.9094 11.084C85.5914 11.48 86.0864 12.074 86.3944 12.866C86.9664 12.118 87.6594 11.535 88.4734 11.117C89.3094 10.677 90.2444 10.457 91.2784 10.457C92.5104 10.457 93.4674 10.688 94.1494 11.15C94.8314 11.59 95.3154 12.239 95.6014 13.097C95.8874 13.933 96.0304 14.956 96.0304 16.166ZM98.8365 18.41C98.8365 16.782 99.2215 15.374 99.9915 14.186C100.761 12.998 101.817 12.085 103.159 11.447C104.523 10.787 106.052 10.457 107.746 10.457C109.462 10.457 110.991 10.787 112.333 11.447C113.675 12.085 114.731 12.998 115.501 14.186C116.293 15.374 116.689 16.782 116.689 18.41C116.689 20.016 116.293 21.413 115.501 22.601C114.731 23.789 113.675 24.713 112.333 25.373C110.991 26.011 109.462 26.33 107.746 26.33C106.052 26.33 104.523 26.011 103.159 25.373C101.817 24.713 100.761 23.789 99.9915 22.601C99.2215 21.413 98.8365 20.016 98.8365 18.41ZM104.71 18.41C104.71 19.114 104.842 19.719 105.106 20.225C105.392 20.709 105.766 21.083 106.228 21.347C106.69 21.589 107.196 21.71 107.746 21.71C108.296 21.71 108.802 21.589 109.264 21.347C109.726 21.083 110.1 20.709 110.386 20.225C110.672 19.719 110.815 19.114 110.815 18.41C110.815 17.706 110.672 17.112 110.386 16.628C110.1 16.122 109.726 15.737 109.264 15.473C108.802 15.209 108.296 15.077 107.746 15.077C107.196 15.077 106.69 15.209 106.228 15.473C105.766 15.737 105.392 16.122 105.106 16.628C104.842 17.112 104.71 17.706 104.71 18.41ZM131.029 0.259999H136.738V26H131.029V0.259999ZM118.72 18.41C118.72 16.672 119.061 15.22 119.743 14.054C120.447 12.888 121.338 12.008 122.416 11.414C123.516 10.798 124.66 10.49 125.848 10.49C127.124 10.49 128.257 10.809 129.247 11.447C130.237 12.085 131.018 12.998 131.59 14.186C132.184 15.352 132.481 16.76 132.481 18.41C132.481 20.038 132.184 21.446 131.59 22.634C131.018 23.822 130.237 24.735 129.247 25.373C128.257 26.011 127.124 26.33 125.848 26.33C124.66 26.33 123.516 26.033 122.416 25.439C121.338 24.823 120.447 23.932 119.743 22.766C119.061 21.578 118.72 20.126 118.72 18.41ZM124.726 18.41C124.726 19.07 124.869 19.664 125.155 20.192C125.441 20.72 125.826 21.127 126.31 21.413C126.794 21.699 127.322 21.842 127.894 21.842C128.4 21.842 128.895 21.71 129.379 21.446C129.863 21.16 130.259 20.764 130.567 20.258C130.875 19.752 131.029 19.136 131.029 18.41C131.029 17.684 130.875 17.068 130.567 16.562C130.259 16.056 129.863 15.671 129.379 15.407C128.895 15.121 128.4 14.978 127.894 14.978C127.322 14.978 126.794 15.121 126.31 15.407C125.826 15.693 125.441 16.1 125.155 16.628C124.869 17.134 124.726 17.728 124.726 18.41ZM148.581 26.33C146.711 26.33 145.094 26.011 143.73 25.373C142.388 24.713 141.354 23.8 140.628 22.634C139.902 21.446 139.539 20.038 139.539 18.41C139.539 16.76 139.891 15.352 140.595 14.186C141.299 12.998 142.311 12.085 143.631 11.447C144.951 10.809 146.535 10.49 148.383 10.49C150.231 10.49 151.782 10.787 153.036 11.381C154.29 11.975 155.247 12.844 155.907 13.988C156.567 15.11 156.897 16.496 156.897 18.146C156.897 18.41 156.886 18.674 156.864 18.938C156.864 19.18 156.853 19.4 156.831 19.598H142.674V16.661H151.617L150.396 18.179C150.506 18.003 150.605 17.805 150.693 17.585C150.781 17.365 150.825 17.178 150.825 17.024C150.825 16.408 150.715 15.891 150.495 15.473C150.297 15.033 150 14.703 149.604 14.483C149.23 14.241 148.779 14.12 148.251 14.12C147.591 14.12 147.041 14.274 146.601 14.582C146.161 14.89 145.831 15.363 145.611 16.001C145.391 16.617 145.281 17.409 145.281 18.377C145.259 19.235 145.369 19.961 145.611 20.555C145.853 21.149 146.205 21.611 146.667 21.941C147.129 22.249 147.701 22.403 148.383 22.403C149.219 22.403 149.923 22.26 150.495 21.974C151.089 21.666 151.551 21.226 151.881 20.654L157.029 21.677C156.215 23.239 155.104 24.405 153.696 25.175C152.31 25.945 150.605 26.33 148.581 26.33ZM159.828 0.259999H165.537V26H159.828V0.259999ZM178.639 5.309C178.639 4.429 178.947 3.714 179.563 3.164C180.201 2.614 180.96 2.339 181.84 2.339C182.742 2.339 183.501 2.614 184.117 3.164C184.755 3.714 185.074 4.429 185.074 5.309C185.074 6.167 184.755 6.871 184.117 7.421C183.501 7.971 182.742 8.246 181.84 8.246C180.96 8.246 180.201 7.971 179.563 7.421C178.947 6.871 178.639 6.167 178.639 5.309ZM179.101 10.82H184.579V26H179.101V10.82ZM189.174 20.225C190.098 20.929 190.901 21.457 191.583 21.809C192.265 22.161 192.848 22.392 193.332 22.502C193.816 22.612 194.19 22.667 194.454 22.667C194.872 22.667 195.18 22.579 195.378 22.403C195.576 22.227 195.675 21.985 195.675 21.677C195.675 21.413 195.587 21.193 195.411 21.017C195.257 20.819 194.949 20.621 194.487 20.423C194.047 20.225 193.387 19.983 192.507 19.697C191.781 19.455 191.088 19.158 190.428 18.806C189.768 18.432 189.229 17.937 188.811 17.321C188.415 16.683 188.217 15.869 188.217 14.879C188.217 13.933 188.47 13.141 188.976 12.503C189.482 11.843 190.175 11.348 191.055 11.018C191.935 10.666 192.958 10.49 194.124 10.49C195.026 10.49 195.862 10.589 196.632 10.787C197.424 10.963 198.172 11.205 198.876 11.513C199.58 11.799 200.273 12.14 200.955 12.536L199.272 16.331C198.568 15.715 197.776 15.22 196.896 14.846C196.038 14.45 195.279 14.252 194.619 14.252C194.201 14.252 193.893 14.329 193.695 14.483C193.519 14.637 193.431 14.824 193.431 15.044C193.431 15.352 193.563 15.605 193.827 15.803C194.091 15.979 194.487 16.155 195.015 16.331C195.543 16.507 196.214 16.749 197.028 17.057C197.798 17.343 198.502 17.673 199.14 18.047C199.8 18.399 200.328 18.861 200.724 19.433C201.142 20.005 201.351 20.764 201.351 21.71C201.351 23.426 200.834 24.691 199.8 25.505C198.788 26.319 197.347 26.726 195.477 26.726C194.355 26.726 193.299 26.616 192.309 26.396C191.341 26.176 190.428 25.868 189.57 25.472C188.712 25.076 187.887 24.625 187.095 24.119L189.174 20.225ZM218.824 18.41C218.824 19.136 218.989 19.763 219.319 20.291C219.649 20.819 220.1 21.226 220.672 21.512C221.244 21.776 221.86 21.908 222.52 21.908C223.07 21.908 223.609 21.831 224.137 21.677C224.665 21.523 225.149 21.292 225.589 20.984C226.051 20.654 226.436 20.258 226.744 19.796V25.142C226.216 25.472 225.589 25.758 224.863 26C224.137 26.22 223.18 26.33 221.992 26.33C220.254 26.33 218.703 26.011 217.339 25.373C215.975 24.713 214.897 23.789 214.105 22.601C213.335 21.413 212.95 20.016 212.95 18.41C212.95 16.782 213.335 15.385 214.105 14.219C214.897 13.031 215.975 12.118 217.339 11.48C218.703 10.82 220.254 10.49 221.992 10.49C223.18 10.49 224.137 10.611 224.863 10.853C225.589 11.073 226.216 11.337 226.744 11.645V16.991C226.436 16.507 226.029 16.111 225.523 15.803C225.039 15.495 224.533 15.275 224.005 15.143C223.477 14.989 222.982 14.912 222.52 14.912C221.86 14.912 221.244 15.066 220.672 15.374C220.1 15.682 219.649 16.1 219.319 16.628C218.989 17.156 218.824 17.75 218.824 18.41ZM229.419 18.41C229.419 16.782 229.804 15.374 230.574 14.186C231.344 12.998 232.4 12.085 233.742 11.447C235.106 10.787 236.635 10.457 238.329 10.457C240.045 10.457 241.574 10.787 242.916 11.447C244.258 12.085 245.314 12.998 246.084 14.186C246.876 15.374 247.272 16.782 247.272 18.41C247.272 20.016 246.876 21.413 246.084 22.601C245.314 23.789 244.258 24.713 242.916 25.373C241.574 26.011 240.045 26.33 238.329 26.33C236.635 26.33 235.106 26.011 233.742 25.373C232.4 24.713 231.344 23.789 230.574 22.601C229.804 21.413 229.419 20.016 229.419 18.41ZM235.293 18.41C235.293 19.114 235.425 19.719 235.689 20.225C235.975 20.709 236.349 21.083 236.811 21.347C237.273 21.589 237.779 21.71 238.329 21.71C238.879 21.71 239.385 21.589 239.847 21.347C240.309 21.083 240.683 20.709 240.969 20.225C241.255 19.719 241.398 19.114 241.398 18.41C241.398 17.706 241.255 17.112 240.969 16.628C240.683 16.122 240.309 15.737 239.847 15.473C239.385 15.209 238.879 15.077 238.329 15.077C237.779 15.077 237.273 15.209 236.811 15.473C236.349 15.737 235.975 16.122 235.689 16.628C235.425 17.112 235.293 17.706 235.293 18.41ZM259.961 16.76C259.961 15.968 259.829 15.363 259.565 14.945C259.301 14.505 258.795 14.285 258.047 14.285C257.607 14.285 257.211 14.373 256.859 14.549C256.529 14.725 256.265 15 256.067 15.374C255.891 15.748 255.803 16.21 255.803 16.76V26H250.094V10.82H255.803V13.064C256.221 12.272 256.804 11.645 257.552 11.183C258.322 10.699 259.29 10.457 260.456 10.457C262.436 10.457 263.844 10.963 264.68 11.975C265.516 12.965 265.934 14.362 265.934 16.166V26H259.961V16.76ZM270.417 20.225C271.341 20.929 272.144 21.457 272.826 21.809C273.508 22.161 274.091 22.392 274.575 22.502C275.059 22.612 275.433 22.667 275.697 22.667C276.115 22.667 276.423 22.579 276.621 22.403C276.819 22.227 276.918 21.985 276.918 21.677C276.918 21.413 276.83 21.193 276.654 21.017C276.5 20.819 276.192 20.621 275.73 20.423C275.29 20.225 274.63 19.983 273.75 19.697C273.024 19.455 272.331 19.158 271.671 18.806C271.011 18.432 270.472 17.937 270.054 17.321C269.658 16.683 269.46 15.869 269.46 14.879C269.46 13.933 269.713 13.141 270.219 12.503C270.725 11.843 271.418 11.348 272.298 11.018C273.178 10.666 274.201 10.49 275.367 10.49C276.269 10.49 277.105 10.589 277.875 10.787C278.667 10.963 279.415 11.205 280.119 11.513C280.823 11.799 281.516 12.14 282.198 12.536L280.515 16.331C279.811 15.715 279.019 15.22 278.139 14.846C277.281 14.45 276.522 14.252 275.862 14.252C275.444 14.252 275.136 14.329 274.938 14.483C274.762 14.637 274.674 14.824 274.674 15.044C274.674 15.352 274.806 15.605 275.07 15.803C275.334 15.979 275.73 16.155 276.258 16.331C276.786 16.507 277.457 16.749 278.271 17.057C279.041 17.343 279.745 17.673 280.383 18.047C281.043 18.399 281.571 18.861 281.967 19.433C282.385 20.005 282.594 20.764 282.594 21.71C282.594 23.426 282.077 24.691 281.043 25.505C280.031 26.319 278.59 26.726 276.72 26.726C275.598 26.726 274.542 26.616 273.552 26.396C272.584 26.176 271.671 25.868 270.813 25.472C269.955 25.076 269.13 24.625 268.338 24.119L270.417 20.225ZM283.475 10.82H294.398V15.44H283.475V10.82ZM286.214 5.54H291.659V26H286.214V5.54ZM301.025 21.248C301.025 21.578 301.102 21.864 301.256 22.106C301.432 22.326 301.663 22.502 301.949 22.634C302.235 22.744 302.543 22.799 302.873 22.799C303.357 22.799 303.819 22.7 304.259 22.502C304.699 22.282 305.051 21.952 305.315 21.512C305.601 21.05 305.744 20.478 305.744 19.796L306.272 21.776C306.272 22.744 306.019 23.569 305.513 24.251C305.029 24.933 304.358 25.45 303.5 25.802C302.664 26.154 301.74 26.33 300.728 26.33C299.76 26.33 298.858 26.154 298.022 25.802C297.208 25.428 296.548 24.889 296.042 24.185C295.536 23.459 295.283 22.579 295.283 21.545C295.283 20.093 295.789 18.949 296.801 18.113C297.835 17.277 299.32 16.859 301.256 16.859C302.092 16.859 302.873 16.936 303.599 17.09C304.347 17.244 304.996 17.453 305.546 17.717C306.118 17.959 306.547 18.234 306.833 18.542V20.951C306.393 20.577 305.843 20.291 305.183 20.093C304.523 19.895 303.83 19.796 303.104 19.796C302.598 19.796 302.191 19.851 301.883 19.961C301.575 20.071 301.355 20.236 301.223 20.456C301.091 20.654 301.025 20.918 301.025 21.248ZM298.253 15.803L296.438 12.074C297.406 11.656 298.517 11.271 299.771 10.919C301.047 10.545 302.4 10.358 303.83 10.358C305.216 10.358 306.459 10.556 307.559 10.952C308.681 11.326 309.561 11.887 310.199 12.635C310.859 13.383 311.189 14.296 311.189 15.374V26H305.744V16.727C305.744 16.397 305.689 16.1 305.579 15.836C305.491 15.572 305.337 15.352 305.117 15.176C304.897 14.978 304.611 14.835 304.259 14.747C303.907 14.637 303.5 14.582 303.038 14.582C302.4 14.582 301.74 14.659 301.058 14.813C300.398 14.967 299.815 15.143 299.309 15.341C298.803 15.539 298.451 15.693 298.253 15.803ZM324.576 16.76C324.576 15.968 324.444 15.363 324.18 14.945C323.916 14.505 323.41 14.285 322.662 14.285C322.222 14.285 321.826 14.373 321.474 14.549C321.144 14.725 320.88 15 320.682 15.374C320.506 15.748 320.418 16.21 320.418 16.76V26H314.709V10.82H320.418V13.064C320.836 12.272 321.419 11.645 322.167 11.183C322.937 10.699 323.905 10.457 325.071 10.457C327.051 10.457 328.459 10.963 329.295 11.975C330.131 12.965 330.549 14.362 330.549 16.166V26H324.576V16.76ZM332.523 10.82H343.446V15.44H332.523V10.82ZM335.262 5.54H340.707V26H335.262V5.54ZM345.42 0.259999H351.129V26H345.42V0.259999ZM371.3 10.82L361.4 33.26H355.757L359.321 25.043L352.523 10.82H358.727L363.644 23.096L360.641 23.063L365.525 10.82H371.3ZM390.86 26.33C388.99 26.33 387.373 26.011 386.009 25.373C384.667 24.713 383.633 23.8 382.907 22.634C382.181 21.446 381.818 20.038 381.818 18.41C381.818 16.76 382.17 15.352 382.874 14.186C383.578 12.998 384.59 12.085 385.91 11.447C387.23 10.809 388.814 10.49 390.662 10.49C392.51 10.49 394.061 10.787 395.315 11.381C396.569 11.975 397.526 12.844 398.186 13.988C398.846 15.11 399.176 16.496 399.176 18.146C399.176 18.41 399.165 18.674 399.143 18.938C399.143 19.18 399.132 19.4 399.11 19.598H384.953V16.661H393.896L392.675 18.179C392.785 18.003 392.884 17.805 392.972 17.585C393.06 17.365 393.104 17.178 393.104 17.024C393.104 16.408 392.994 15.891 392.774 15.473C392.576 15.033 392.279 14.703 391.883 14.483C391.509 14.241 391.058 14.12 390.53 14.12C389.87 14.12 389.32 14.274 388.88 14.582C388.44 14.89 388.11 15.363 387.89 16.001C387.67 16.617 387.56 17.409 387.56 18.377C387.538 19.235 387.648 19.961 387.89 20.555C388.132 21.149 388.484 21.611 388.946 21.941C389.408 22.249 389.98 22.403 390.662 22.403C391.498 22.403 392.202 22.26 392.774 21.974C393.368 21.666 393.83 21.226 394.16 20.654L399.308 21.677C398.494 23.239 397.383 24.405 395.975 25.175C394.589 25.945 392.884 26.33 390.86 26.33ZM399.677 10.82H405.716L408.95 18.575L412.151 10.82H418.19L408.95 27.947L399.677 10.82ZM418.588 18.41C418.588 16.782 418.973 15.374 419.743 14.186C420.513 12.998 421.569 12.085 422.911 11.447C424.275 10.787 425.804 10.457 427.498 10.457C429.214 10.457 430.743 10.787 432.085 11.447C433.427 12.085 434.483 12.998 435.253 14.186C436.045 15.374 436.441 16.782 436.441 18.41C436.441 20.016 436.045 21.413 435.253 22.601C434.483 23.789 433.427 24.713 432.085 25.373C430.743 26.011 429.214 26.33 427.498 26.33C425.804 26.33 424.275 26.011 422.911 25.373C421.569 24.713 420.513 23.789 419.743 22.601C418.973 21.413 418.588 20.016 418.588 18.41ZM424.462 18.41C424.462 19.114 424.594 19.719 424.858 20.225C425.144 20.709 425.518 21.083 425.98 21.347C426.442 21.589 426.948 21.71 427.498 21.71C428.048 21.71 428.554 21.589 429.016 21.347C429.478 21.083 429.852 20.709 430.138 20.225C430.424 19.719 430.567 19.114 430.567 18.41C430.567 17.706 430.424 17.112 430.138 16.628C429.852 16.122 429.478 15.737 429.016 15.473C428.554 15.209 428.048 15.077 427.498 15.077C426.948 15.077 426.442 15.209 425.98 15.473C425.518 15.737 425.144 16.122 424.858 16.628C424.594 17.112 424.462 17.706 424.462 18.41ZM439.264 0.259999H444.973V26H439.264V0.259999ZM446.631 10.82H452.67L455.904 18.575L459.105 10.82H465.144L455.904 27.947L446.631 10.82ZM466.422 5.309C466.422 4.429 466.73 3.714 467.346 3.164C467.984 2.614 468.743 2.339 469.623 2.339C470.525 2.339 471.284 2.614 471.9 3.164C472.538 3.714 472.857 4.429 472.857 5.309C472.857 6.167 472.538 6.871 471.9 7.421C471.284 7.971 470.525 8.246 469.623 8.246C468.743 8.246 467.984 7.971 467.346 7.421C466.73 6.871 466.422 6.167 466.422 5.309ZM466.884 10.82H472.362V26H466.884V10.82ZM485.966 16.76C485.966 15.968 485.834 15.363 485.57 14.945C485.306 14.505 484.8 14.285 484.052 14.285C483.612 14.285 483.216 14.373 482.864 14.549C482.534 14.725 482.27 15 482.072 15.374C481.896 15.748 481.808 16.21 481.808 16.76V26H476.099V10.82H481.808V13.064C482.226 12.272 482.809 11.645 483.557 11.183C484.327 10.699 485.295 10.457 486.461 10.457C488.441 10.457 489.849 10.963 490.685 11.975C491.521 12.965 491.939 14.362 491.939 16.166V26H485.966V16.76ZM495.102 27.122H500.58C500.668 27.716 500.844 28.189 501.108 28.541C501.372 28.893 501.724 29.146 502.164 29.3C502.604 29.454 503.088 29.531 503.616 29.531C504.298 29.531 504.892 29.377 505.398 29.069C505.926 28.783 506.333 28.354 506.619 27.782C506.927 27.21 507.081 26.506 507.081 25.67V10.82H512.526V25.67C512.526 27.672 512.141 29.278 511.371 30.488C510.601 31.72 509.567 32.611 508.269 33.161C506.993 33.711 505.541 33.986 503.913 33.986C501.889 33.986 500.261 33.7 499.029 33.128C497.797 32.556 496.873 31.742 496.257 30.686C495.641 29.652 495.256 28.464 495.102 27.122ZM494.772 18.146C494.772 16.408 495.113 14.978 495.795 13.856C496.499 12.734 497.39 11.898 498.468 11.348C499.568 10.776 500.712 10.49 501.9 10.49C503.176 10.49 504.309 10.787 505.299 11.381C506.289 11.975 507.07 12.844 507.642 13.988C508.236 15.11 508.533 16.496 508.533 18.146C508.533 19.774 508.236 21.16 507.642 22.304C507.07 23.448 506.289 24.317 505.299 24.911C504.309 25.505 503.176 25.802 501.9 25.802C500.712 25.802 499.568 25.527 498.468 24.977C497.39 24.405 496.499 23.558 495.795 22.436C495.113 21.292 494.772 19.862 494.772 18.146ZM500.778 18.146C500.778 18.806 500.921 19.378 501.207 19.862C501.493 20.346 501.878 20.709 502.362 20.951C502.846 21.193 503.374 21.314 503.946 21.314C504.452 21.314 504.947 21.204 505.431 20.984C505.915 20.742 506.311 20.39 506.619 19.928C506.927 19.466 507.081 18.872 507.081 18.146C507.081 17.596 506.993 17.123 506.817 16.727C506.641 16.331 506.399 16.001 506.091 15.737C505.783 15.473 505.442 15.286 505.068 15.176C504.694 15.044 504.32 14.978 503.946 14.978C503.374 14.978 502.846 15.099 502.362 15.341C501.878 15.583 501.493 15.946 501.207 16.43C500.921 16.892 500.778 17.464 500.778 18.146ZM531.53 13.856C530.98 13.24 530.463 12.646 529.979 12.074C529.517 11.502 529.143 10.908 528.857 10.292C528.571 9.654 528.428 8.95 528.428 8.18C528.428 7.234 528.725 6.31 529.319 5.408C529.913 4.484 530.771 3.736 531.893 3.164C533.037 2.57 534.39 2.273 535.952 2.273C537.492 2.273 538.779 2.559 539.813 3.131C540.847 3.703 541.628 4.429 542.156 5.309C542.684 6.167 542.948 7.058 542.948 7.982C542.948 8.796 542.816 9.5 542.552 10.094C542.31 10.666 541.936 11.205 541.43 11.711C540.946 12.195 540.33 12.69 539.582 13.196C538.856 13.68 538.009 14.252 537.041 14.912C536.469 15.308 535.853 15.638 535.193 15.902C534.533 16.166 533.917 16.441 533.345 16.727C532.795 16.991 532.333 17.321 531.959 17.717C531.607 18.113 531.431 18.619 531.431 19.235C531.431 19.653 531.541 20.06 531.761 20.456C532.003 20.83 532.344 21.138 532.784 21.38C533.246 21.622 533.829 21.743 534.533 21.743C535.457 21.743 536.359 21.556 537.239 21.182C538.141 20.808 539.01 20.291 539.846 19.631C540.682 18.971 541.474 18.201 542.222 17.321C542.97 16.441 543.652 15.506 544.268 14.516L547.997 17.453C547.337 18.465 546.523 19.51 545.555 20.588C544.609 21.644 543.531 22.612 542.321 23.492C541.133 24.372 539.813 25.087 538.361 25.637C536.931 26.187 535.38 26.462 533.708 26.462C532.168 26.462 530.782 26.198 529.55 25.67C528.318 25.12 527.328 24.35 526.58 23.36C525.854 22.348 525.491 21.149 525.491 19.763C525.491 18.707 525.711 17.794 526.151 17.024C526.591 16.232 527.152 15.572 527.834 15.044C528.538 14.516 529.286 14.076 530.078 13.724C530.87 13.35 531.629 13.042 532.355 12.8C533.081 12.536 533.675 12.305 534.137 12.107C535.369 11.535 536.293 10.941 536.909 10.325C537.547 9.709 537.866 9.126 537.866 8.576C537.866 8.29 537.789 8.015 537.635 7.751C537.481 7.465 537.25 7.234 536.942 7.058C536.656 6.86 536.315 6.761 535.919 6.761C535.215 6.761 534.698 6.959 534.368 7.355C534.038 7.751 533.873 8.158 533.873 8.576C533.873 9.214 534.148 9.863 534.698 10.523C535.27 11.161 536.04 11.997 537.008 13.031L549.218 26H542.75L531.53 13.856ZM561.467 0.259999H567.176V26H561.467V0.259999ZM579.031 26.33C577.161 26.33 575.544 26.011 574.18 25.373C572.838 24.713 571.804 23.8 571.078 22.634C570.352 21.446 569.989 20.038 569.989 18.41C569.989 16.76 570.341 15.352 571.045 14.186C571.749 12.998 572.761 12.085 574.081 11.447C575.401 10.809 576.985 10.49 578.833 10.49C580.681 10.49 582.232 10.787 583.486 11.381C584.74 11.975 585.697 12.844 586.357 13.988C587.017 15.11 587.347 16.496 587.347 18.146C587.347 18.41 587.336 18.674 587.314 18.938C587.314 19.18 587.303 19.4 587.281 19.598H573.124V16.661H582.067L580.846 18.179C580.956 18.003 581.055 17.805 581.143 17.585C581.231 17.365 581.275 17.178 581.275 17.024C581.275 16.408 581.165 15.891 580.945 15.473C580.747 15.033 580.45 14.703 580.054 14.483C579.68 14.241 579.229 14.12 578.701 14.12C578.041 14.12 577.491 14.274 577.051 14.582C576.611 14.89 576.281 15.363 576.061 16.001C575.841 16.617 575.731 17.409 575.731 18.377C575.709 19.235 575.819 19.961 576.061 20.555C576.303 21.149 576.655 21.611 577.117 21.941C577.579 22.249 578.151 22.403 578.833 22.403C579.669 22.403 580.373 22.26 580.945 21.974C581.539 21.666 582.001 21.226 582.331 20.654L587.479 21.677C586.665 23.239 585.554 24.405 584.146 25.175C582.76 25.945 581.055 26.33 579.031 26.33ZM594.931 21.248C594.931 21.578 595.008 21.864 595.162 22.106C595.338 22.326 595.569 22.502 595.855 22.634C596.141 22.744 596.449 22.799 596.779 22.799C597.263 22.799 597.725 22.7 598.165 22.502C598.605 22.282 598.957 21.952 599.221 21.512C599.507 21.05 599.65 20.478 599.65 19.796L600.178 21.776C600.178 22.744 599.925 23.569 599.419 24.251C598.935 24.933 598.264 25.45 597.406 25.802C596.57 26.154 595.646 26.33 594.634 26.33C593.666 26.33 592.764 26.154 591.928 25.802C591.114 25.428 590.454 24.889 589.948 24.185C589.442 23.459 589.189 22.579 589.189 21.545C589.189 20.093 589.695 18.949 590.707 18.113C591.741 17.277 593.226 16.859 595.162 16.859C595.998 16.859 596.779 16.936 597.505 17.09C598.253 17.244 598.902 17.453 599.452 17.717C600.024 17.959 600.453 18.234 600.739 18.542V20.951C600.299 20.577 599.749 20.291 599.089 20.093C598.429 19.895 597.736 19.796 597.01 19.796C596.504 19.796 596.097 19.851 595.789 19.961C595.481 20.071 595.261 20.236 595.129 20.456C594.997 20.654 594.931 20.918 594.931 21.248ZM592.159 15.803L590.344 12.074C591.312 11.656 592.423 11.271 593.677 10.919C594.953 10.545 596.306 10.358 597.736 10.358C599.122 10.358 600.365 10.556 601.465 10.952C602.587 11.326 603.467 11.887 604.105 12.635C604.765 13.383 605.095 14.296 605.095 15.374V26H599.65V16.727C599.65 16.397 599.595 16.1 599.485 15.836C599.397 15.572 599.243 15.352 599.023 15.176C598.803 14.978 598.517 14.835 598.165 14.747C597.813 14.637 597.406 14.582 596.944 14.582C596.306 14.582 595.646 14.659 594.964 14.813C594.304 14.967 593.721 15.143 593.215 15.341C592.709 15.539 592.357 15.693 592.159 15.803ZM614.192 10.82V26H608.615V10.82H614.192ZM618.515 16.661C618.273 16.397 617.998 16.188 617.69 16.034C617.404 15.858 617.041 15.77 616.601 15.77C616.161 15.77 615.754 15.891 615.38 16.133C615.006 16.375 614.709 16.738 614.489 17.222C614.291 17.706 614.192 18.311 614.192 19.037L613.004 16.76C613.004 15.55 613.246 14.472 613.73 13.526C614.214 12.58 614.852 11.832 615.644 11.282C616.458 10.71 617.305 10.424 618.185 10.424C618.735 10.424 619.263 10.556 619.769 10.82C620.275 11.062 620.649 11.37 620.891 11.744L618.515 16.661ZM632.726 16.76C632.726 15.968 632.594 15.363 632.33 14.945C632.066 14.505 631.56 14.285 630.812 14.285C630.372 14.285 629.976 14.373 629.624 14.549C629.294 14.725 629.03 15 628.832 15.374C628.656 15.748 628.568 16.21 628.568 16.76V26H622.859V10.82H628.568V13.064C628.986 12.272 629.569 11.645 630.317 11.183C631.087 10.699 632.055 10.457 633.221 10.457C635.201 10.457 636.609 10.963 637.445 11.975C638.281 12.965 638.699 14.362 638.699 16.166V26H632.726V16.76ZM641.928 5.309C641.928 4.429 642.236 3.714 642.852 3.164C643.49 2.614 644.249 2.339 645.129 2.339C646.031 2.339 646.79 2.614 647.406 3.164C648.044 3.714 648.363 4.429 648.363 5.309C648.363 6.167 648.044 6.871 647.406 7.421C646.79 7.971 646.031 8.246 645.129 8.246C644.249 8.246 643.49 7.971 642.852 7.421C642.236 6.871 641.928 6.167 641.928 5.309ZM642.39 10.82H647.868V26H642.39V10.82ZM661.472 16.76C661.472 15.968 661.34 15.363 661.076 14.945C660.812 14.505 660.306 14.285 659.558 14.285C659.118 14.285 658.722 14.373 658.37 14.549C658.04 14.725 657.776 15 657.578 15.374C657.402 15.748 657.314 16.21 657.314 16.76V26H651.605V10.82H657.314V13.064C657.732 12.272 658.315 11.645 659.063 11.183C659.833 10.699 660.801 10.457 661.967 10.457C663.947 10.457 665.355 10.963 666.191 11.975C667.027 12.965 667.445 14.362 667.445 16.166V26H661.472V16.76ZM670.608 27.122H676.086C676.174 27.716 676.35 28.189 676.614 28.541C676.878 28.893 677.23 29.146 677.67 29.3C678.11 29.454 678.594 29.531 679.122 29.531C679.804 29.531 680.398 29.377 680.904 29.069C681.432 28.783 681.839 28.354 682.125 27.782C682.433 27.21 682.587 26.506 682.587 25.67V10.82H688.032V25.67C688.032 27.672 687.647 29.278 686.877 30.488C686.107 31.72 685.073 32.611 683.775 33.161C682.499 33.711 681.047 33.986 679.419 33.986C677.395 33.986 675.767 33.7 674.535 33.128C673.303 32.556 672.379 31.742 671.763 30.686C671.147 29.652 670.762 28.464 670.608 27.122ZM670.278 18.146C670.278 16.408 670.619 14.978 671.301 13.856C672.005 12.734 672.896 11.898 673.974 11.348C675.074 10.776 676.218 10.49 677.406 10.49C678.682 10.49 679.815 10.787 680.805 11.381C681.795 11.975 682.576 12.844 683.148 13.988C683.742 15.11 684.039 16.496 684.039 18.146C684.039 19.774 683.742 21.16 683.148 22.304C682.576 23.448 681.795 24.317 680.805 24.911C679.815 25.505 678.682 25.802 677.406 25.802C676.218 25.802 675.074 25.527 673.974 24.977C672.896 24.405 672.005 23.558 671.301 22.436C670.619 21.292 670.278 19.862 670.278 18.146ZM676.284 18.146C676.284 18.806 676.427 19.378 676.713 19.862C676.999 20.346 677.384 20.709 677.868 20.951C678.352 21.193 678.88 21.314 679.452 21.314C679.958 21.314 680.453 21.204 680.937 20.984C681.421 20.742 681.817 20.39 682.125 19.928C682.433 19.466 682.587 18.872 682.587 18.146C682.587 17.596 682.499 17.123 682.323 16.727C682.147 16.331 681.905 16.001 681.597 15.737C681.289 15.473 680.948 15.286 680.574 15.176C680.2 15.044 679.826 14.978 679.452 14.978C678.88 14.978 678.352 15.099 677.868 15.341C677.384 15.583 676.999 15.946 676.713 16.43C676.427 16.892 676.284 17.464 676.284 18.146ZM699.842 10.82H710.765V15.44H699.842V10.82ZM702.581 5.54H708.026V26H702.581V5.54ZM711.947 18.41C711.947 16.782 712.332 15.374 713.102 14.186C713.872 12.998 714.928 12.085 716.27 11.447C717.634 10.787 719.163 10.457 720.857 10.457C722.573 10.457 724.102 10.787 725.444 11.447C726.786 12.085 727.842 12.998 728.612 14.186C729.404 15.374 729.8 16.782 729.8 18.41C729.8 20.016 729.404 21.413 728.612 22.601C727.842 23.789 726.786 24.713 725.444 25.373C724.102 26.011 722.573 26.33 720.857 26.33C719.163 26.33 717.634 26.011 716.27 25.373C714.928 24.713 713.872 23.789 713.102 22.601C712.332 21.413 711.947 20.016 711.947 18.41ZM717.821 18.41C717.821 19.114 717.953 19.719 718.217 20.225C718.503 20.709 718.877 21.083 719.339 21.347C719.801 21.589 720.307 21.71 720.857 21.71C721.407 21.71 721.913 21.589 722.375 21.347C722.837 21.083 723.211 20.709 723.497 20.225C723.783 19.719 723.926 19.114 723.926 18.41C723.926 17.706 723.783 17.112 723.497 16.628C723.211 16.122 722.837 15.737 722.375 15.473C721.913 15.209 721.407 15.077 720.857 15.077C720.307 15.077 719.801 15.209 719.339 15.473C718.877 15.737 718.503 16.122 718.217 16.628C717.953 17.112 717.821 17.706 717.821 18.41ZM747.169 21.248C747.169 21.578 747.246 21.864 747.4 22.106C747.576 22.326 747.807 22.502 748.093 22.634C748.379 22.744 748.687 22.799 749.017 22.799C749.501 22.799 749.963 22.7 750.403 22.502C750.843 22.282 751.195 21.952 751.459 21.512C751.745 21.05 751.888 20.478 751.888 19.796L752.416 21.776C752.416 22.744 752.163 23.569 751.657 24.251C751.173 24.933 750.502 25.45 749.644 25.802C748.808 26.154 747.884 26.33 746.872 26.33C745.904 26.33 745.002 26.154 744.166 25.802C743.352 25.428 742.692 24.889 742.186 24.185C741.68 23.459 741.427 22.579 741.427 21.545C741.427 20.093 741.933 18.949 742.945 18.113C743.979 17.277 745.464 16.859 747.4 16.859C748.236 16.859 749.017 16.936 749.743 17.09C750.491 17.244 751.14 17.453 751.69 17.717C752.262 17.959 752.691 18.234 752.977 18.542V20.951C752.537 20.577 751.987 20.291 751.327 20.093C750.667 19.895 749.974 19.796 749.248 19.796C748.742 19.796 748.335 19.851 748.027 19.961C747.719 20.071 747.499 20.236 747.367 20.456C747.235 20.654 747.169 20.918 747.169 21.248ZM744.397 15.803L742.582 12.074C743.55 11.656 744.661 11.271 745.915 10.919C747.191 10.545 748.544 10.358 749.974 10.358C751.36 10.358 752.603 10.556 753.703 10.952C754.825 11.326 755.705 11.887 756.343 12.635C757.003 13.383 757.333 14.296 757.333 15.374V26H751.888V16.727C751.888 16.397 751.833 16.1 751.723 15.836C751.635 15.572 751.481 15.352 751.261 15.176C751.041 14.978 750.755 14.835 750.403 14.747C750.051 14.637 749.644 14.582 749.182 14.582C748.544 14.582 747.884 14.659 747.202 14.813C746.542 14.967 745.959 15.143 745.453 15.341C744.947 15.539 744.595 15.693 744.397 15.803ZM772.37 0.259999H778.079V26H772.37V0.259999ZM760.061 18.41C760.061 16.672 760.402 15.22 761.084 14.054C761.788 12.888 762.679 12.008 763.757 11.414C764.857 10.798 766.001 10.49 767.189 10.49C768.465 10.49 769.598 10.809 770.588 11.447C771.578 12.085 772.359 12.998 772.931 14.186C773.525 15.352 773.822 16.76 773.822 18.41C773.822 20.038 773.525 21.446 772.931 22.634C772.359 23.822 771.578 24.735 770.588 25.373C769.598 26.011 768.465 26.33 767.189 26.33C766.001 26.33 764.857 26.033 763.757 25.439C762.679 24.823 761.788 23.932 761.084 22.766C760.402 21.578 760.061 20.126 760.061 18.41ZM766.067 18.41C766.067 19.07 766.21 19.664 766.496 20.192C766.782 20.72 767.167 21.127 767.651 21.413C768.135 21.699 768.663 21.842 769.235 21.842C769.741 21.842 770.236 21.71 770.72 21.446C771.204 21.16 771.6 20.764 771.908 20.258C772.216 19.752 772.37 19.136 772.37 18.41C772.37 17.684 772.216 17.068 771.908 16.562C771.6 16.056 771.204 15.671 770.72 15.407C770.236 15.121 769.741 14.978 769.235 14.978C768.663 14.978 768.135 15.121 767.651 15.407C767.167 15.693 766.782 16.1 766.496 16.628C766.21 17.134 766.067 17.728 766.067 18.41ZM786.324 21.248C786.324 21.578 786.401 21.864 786.555 22.106C786.731 22.326 786.962 22.502 787.248 22.634C787.534 22.744 787.842 22.799 788.172 22.799C788.656 22.799 789.118 22.7 789.558 22.502C789.998 22.282 790.35 21.952 790.614 21.512C790.9 21.05 791.043 20.478 791.043 19.796L791.571 21.776C791.571 22.744 791.318 23.569 790.812 24.251C790.328 24.933 789.657 25.45 788.799 25.802C787.963 26.154 787.039 26.33 786.027 26.33C785.059 26.33 784.157 26.154 783.321 25.802C782.507 25.428 781.847 24.889 781.341 24.185C780.835 23.459 780.582 22.579 780.582 21.545C780.582 20.093 781.088 18.949 782.1 18.113C783.134 17.277 784.619 16.859 786.555 16.859C787.391 16.859 788.172 16.936 788.898 17.09C789.646 17.244 790.295 17.453 790.845 17.717C791.417 17.959 791.846 18.234 792.132 18.542V20.951C791.692 20.577 791.142 20.291 790.482 20.093C789.822 19.895 789.129 19.796 788.403 19.796C787.897 19.796 787.49 19.851 787.182 19.961C786.874 20.071 786.654 20.236 786.522 20.456C786.39 20.654 786.324 20.918 786.324 21.248ZM783.552 15.803L781.737 12.074C782.705 11.656 783.816 11.271 785.07 10.919C786.346 10.545 787.699 10.358 789.129 10.358C790.515 10.358 791.758 10.556 792.858 10.952C793.98 11.326 794.86 11.887 795.498 12.635C796.158 13.383 796.488 14.296 796.488 15.374V26H791.043V16.727C791.043 16.397 790.988 16.1 790.878 15.836C790.79 15.572 790.636 15.352 790.416 15.176C790.196 14.978 789.91 14.835 789.558 14.747C789.206 14.637 788.799 14.582 788.337 14.582C787.699 14.582 787.039 14.659 786.357 14.813C785.697 14.967 785.114 15.143 784.608 15.341C784.102 15.539 783.75 15.693 783.552 15.803ZM805.684 33.26H799.975V10.82H805.684V33.26ZM817.993 18.41C817.993 20.214 817.641 21.721 816.937 22.931C816.255 24.141 815.375 25.054 814.297 25.67C813.219 26.286 812.075 26.594 810.865 26.594C809.523 26.594 808.368 26.253 807.4 25.571C806.454 24.889 805.728 23.932 805.222 22.7C804.738 21.468 804.496 20.038 804.496 18.41C804.496 16.76 804.738 15.33 805.222 14.12C805.728 12.888 806.454 11.931 807.4 11.249C808.368 10.567 809.523 10.226 810.865 10.226C812.075 10.226 813.219 10.534 814.297 11.15C815.375 11.766 816.255 12.679 816.937 13.889C817.641 15.077 817.993 16.584 817.993 18.41ZM811.987 18.41C811.987 17.728 811.844 17.156 811.558 16.694C811.272 16.21 810.887 15.847 810.403 15.605C809.919 15.363 809.38 15.242 808.786 15.242C808.28 15.242 807.785 15.363 807.301 15.605C806.839 15.825 806.454 16.166 806.146 16.628C805.838 17.09 805.684 17.684 805.684 18.41C805.684 19.136 805.838 19.73 806.146 20.192C806.454 20.654 806.839 21.006 807.301 21.248C807.785 21.468 808.28 21.578 808.786 21.578C809.38 21.578 809.919 21.457 810.403 21.215C810.887 20.973 811.272 20.61 811.558 20.126C811.844 19.642 811.987 19.07 811.987 18.41ZM819.177 10.82H830.1V15.44H819.177V10.82ZM821.916 5.54H827.361V26H821.916V5.54ZM841.571 5.309C841.571 4.429 841.879 3.714 842.495 3.164C843.133 2.614 843.892 2.339 844.772 2.339C845.674 2.339 846.433 2.614 847.049 3.164C847.687 3.714 848.006 4.429 848.006 5.309C848.006 6.167 847.687 6.871 847.049 7.421C846.433 7.971 845.674 8.246 844.772 8.246C843.892 8.246 843.133 7.971 842.495 7.421C841.879 6.871 841.571 6.167 841.571 5.309ZM842.033 10.82H847.511V26H842.033V10.82ZM849.599 10.82H860.522V15.44H849.599V10.82ZM852.338 5.54H857.783V26H852.338V5.54ZM863.354 20.225C864.278 20.929 865.081 21.457 865.763 21.809C866.445 22.161 867.028 22.392 867.512 22.502C867.996 22.612 868.37 22.667 868.634 22.667C869.052 22.667 869.36 22.579 869.558 22.403C869.756 22.227 869.855 21.985 869.855 21.677C869.855 21.413 869.767 21.193 869.591 21.017C869.437 20.819 869.129 20.621 868.667 20.423C868.227 20.225 867.567 19.983 866.687 19.697C865.961 19.455 865.268 19.158 864.608 18.806C863.948 18.432 863.409 17.937 862.991 17.321C862.595 16.683 862.397 15.869 862.397 14.879C862.397 13.933 862.65 13.141 863.156 12.503C863.662 11.843 864.355 11.348 865.235 11.018C866.115 10.666 867.138 10.49 868.304 10.49C869.206 10.49 870.042 10.589 870.812 10.787C871.604 10.963 872.352 11.205 873.056 11.513C873.76 11.799 874.453 12.14 875.135 12.536L873.452 16.331C872.748 15.715 871.956 15.22 871.076 14.846C870.218 14.45 869.459 14.252 868.799 14.252C868.381 14.252 868.073 14.329 867.875 14.483C867.699 14.637 867.611 14.824 867.611 15.044C867.611 15.352 867.743 15.605 868.007 15.803C868.271 15.979 868.667 16.155 869.195 16.331C869.723 16.507 870.394 16.749 871.208 17.057C871.978 17.343 872.682 17.673 873.32 18.047C873.98 18.399 874.508 18.861 874.904 19.433C875.322 20.005 875.531 20.764 875.531 21.71C875.531 23.426 875.014 24.691 873.98 25.505C872.968 26.319 871.527 26.726 869.657 26.726C868.535 26.726 867.479 26.616 866.489 26.396C865.521 26.176 864.608 25.868 863.75 25.472C862.892 25.076 862.067 24.625 861.275 24.119L863.354 20.225ZM892.608 21.248C892.608 21.578 892.685 21.864 892.839 22.106C893.015 22.326 893.246 22.502 893.532 22.634C893.818 22.744 894.126 22.799 894.456 22.799C894.94 22.799 895.402 22.7 895.842 22.502C896.282 22.282 896.634 21.952 896.898 21.512C897.184 21.05 897.327 20.478 897.327 19.796L897.855 21.776C897.855 22.744 897.602 23.569 897.096 24.251C896.612 24.933 895.941 25.45 895.083 25.802C894.247 26.154 893.323 26.33 892.311 26.33C891.343 26.33 890.441 26.154 889.605 25.802C888.791 25.428 888.131 24.889 887.625 24.185C887.119 23.459 886.866 22.579 886.866 21.545C886.866 20.093 887.372 18.949 888.384 18.113C889.418 17.277 890.903 16.859 892.839 16.859C893.675 16.859 894.456 16.936 895.182 17.09C895.93 17.244 896.579 17.453 897.129 17.717C897.701 17.959 898.13 18.234 898.416 18.542V20.951C897.976 20.577 897.426 20.291 896.766 20.093C896.106 19.895 895.413 19.796 894.687 19.796C894.181 19.796 893.774 19.851 893.466 19.961C893.158 20.071 892.938 20.236 892.806 20.456C892.674 20.654 892.608 20.918 892.608 21.248ZM889.836 15.803L888.021 12.074C888.989 11.656 890.1 11.271 891.354 10.919C892.63 10.545 893.983 10.358 895.413 10.358C896.799 10.358 898.042 10.556 899.142 10.952C900.264 11.326 901.144 11.887 901.782 12.635C902.442 13.383 902.772 14.296 902.772 15.374V26H897.327V16.727C897.327 16.397 897.272 16.1 897.162 15.836C897.074 15.572 896.92 15.352 896.7 15.176C896.48 14.978 896.194 14.835 895.842 14.747C895.49 14.637 895.083 14.582 894.621 14.582C893.983 14.582 893.323 14.659 892.641 14.813C891.981 14.967 891.398 15.143 890.892 15.341C890.386 15.539 890.034 15.693 889.836 15.803ZM906.292 0.259999H912.001V26H906.292V0.259999ZM915.143 27.122H920.621C920.709 27.716 920.885 28.189 921.149 28.541C921.413 28.893 921.765 29.146 922.205 29.3C922.645 29.454 923.129 29.531 923.657 29.531C924.339 29.531 924.933 29.377 925.439 29.069C925.967 28.783 926.374 28.354 926.66 27.782C926.968 27.21 927.122 26.506 927.122 25.67V10.82H932.567V25.67C932.567 27.672 932.182 29.278 931.412 30.488C930.642 31.72 929.608 32.611 928.31 33.161C927.034 33.711 925.582 33.986 923.954 33.986C921.93 33.986 920.302 33.7 919.07 33.128C917.838 32.556 916.914 31.742 916.298 30.686C915.682 29.652 915.297 28.464 915.143 27.122ZM914.813 18.146C914.813 16.408 915.154 14.978 915.836 13.856C916.54 12.734 917.431 11.898 918.509 11.348C919.609 10.776 920.753 10.49 921.941 10.49C923.217 10.49 924.35 10.787 925.34 11.381C926.33 11.975 927.111 12.844 927.683 13.988C928.277 15.11 928.574 16.496 928.574 18.146C928.574 19.774 928.277 21.16 927.683 22.304C927.111 23.448 926.33 24.317 925.34 24.911C924.35 25.505 923.217 25.802 921.941 25.802C920.753 25.802 919.609 25.527 918.509 24.977C917.431 24.405 916.54 23.558 915.836 22.436C915.154 21.292 914.813 19.862 914.813 18.146ZM920.819 18.146C920.819 18.806 920.962 19.378 921.248 19.862C921.534 20.346 921.919 20.709 922.403 20.951C922.887 21.193 923.415 21.314 923.987 21.314C924.493 21.314 924.988 21.204 925.472 20.984C925.956 20.742 926.352 20.39 926.66 19.928C926.968 19.466 927.122 18.872 927.122 18.146C927.122 17.596 927.034 17.123 926.858 16.727C926.682 16.331 926.44 16.001 926.132 15.737C925.824 15.473 925.483 15.286 925.109 15.176C924.735 15.044 924.361 14.978 923.987 14.978C923.415 14.978 922.887 15.099 922.403 15.341C921.919 15.583 921.534 15.946 921.248 16.43C920.962 16.892 920.819 17.464 920.819 18.146ZM935.341 18.41C935.341 16.782 935.726 15.374 936.496 14.186C937.266 12.998 938.322 12.085 939.664 11.447C941.028 10.787 942.557 10.457 944.251 10.457C945.967 10.457 947.496 10.787 948.838 11.447C950.18 12.085 951.236 12.998 952.006 14.186C952.798 15.374 953.194 16.782 953.194 18.41C953.194 20.016 952.798 21.413 952.006 22.601C951.236 23.789 950.18 24.713 948.838 25.373C947.496 26.011 945.967 26.33 944.251 26.33C942.557 26.33 941.028 26.011 939.664 25.373C938.322 24.713 937.266 23.789 936.496 22.601C935.726 21.413 935.341 20.016 935.341 18.41ZM941.215 18.41C941.215 19.114 941.347 19.719 941.611 20.225C941.897 20.709 942.271 21.083 942.733 21.347C943.195 21.589 943.701 21.71 944.251 21.71C944.801 21.71 945.307 21.589 945.769 21.347C946.231 21.083 946.605 20.709 946.891 20.225C947.177 19.719 947.32 19.114 947.32 18.41C947.32 17.706 947.177 17.112 946.891 16.628C946.605 16.122 946.231 15.737 945.769 15.473C945.307 15.209 944.801 15.077 944.251 15.077C943.701 15.077 943.195 15.209 942.733 15.473C942.271 15.737 941.897 16.122 941.611 16.628C941.347 17.112 941.215 17.706 941.215 18.41ZM961.594 10.82V26H956.017V10.82H961.594ZM965.917 16.661C965.675 16.397 965.4 16.188 965.092 16.034C964.806 15.858 964.443 15.77 964.003 15.77C963.563 15.77 963.156 15.891 962.782 16.133C962.408 16.375 962.111 16.738 961.891 17.222C961.693 17.706 961.594 18.311 961.594 19.037L960.406 16.76C960.406 15.55 960.648 14.472 961.132 13.526C961.616 12.58 962.254 11.832 963.046 11.282C963.86 10.71 964.707 10.424 965.587 10.424C966.137 10.424 966.665 10.556 967.171 10.82C967.677 11.062 968.051 11.37 968.293 11.744L965.917 16.661ZM969.865 5.309C969.865 4.429 970.173 3.714 970.789 3.164C971.427 2.614 972.186 2.339 973.066 2.339C973.968 2.339 974.727 2.614 975.343 3.164C975.981 3.714 976.3 4.429 976.3 5.309C976.3 6.167 975.981 6.871 975.343 7.421C974.727 7.971 973.968 8.246 973.066 8.246C972.186 8.246 971.427 7.971 970.789 7.421C970.173 6.871 969.865 6.167 969.865 5.309ZM970.327 10.82H975.805V26H970.327V10.82ZM977.893 10.82H988.816V15.44H977.893V10.82ZM980.632 5.54H986.077V26H980.632V5.54ZM996.499 0.259999V26H990.79V0.259999H996.499ZM1000.66 16.76C1000.66 15.968 1000.52 15.363 1000.26 14.945C999.997 14.505 999.491 14.285 998.743 14.285C998.303 14.285 997.907 14.384 997.555 14.582C997.225 14.758 996.961 15.033 996.763 15.407C996.587 15.759 996.499 16.21 996.499 16.76H995.641C995.641 15.55 995.828 14.45 996.202 13.46C996.576 12.47 997.159 11.678 997.951 11.084C998.765 10.49 999.832 10.193 1001.15 10.193C1002.47 10.193 1003.51 10.413 1004.25 10.853C1005 11.293 1005.54 11.942 1005.87 12.8C1006.2 13.636 1006.37 14.67 1006.37 15.902V26H1000.66V16.76ZM1033.86 16.166V26H1028.15V16.76C1028.15 15.968 1028.01 15.363 1027.75 14.945C1027.51 14.505 1027.09 14.285 1026.5 14.285C1026.14 14.285 1025.83 14.373 1025.54 14.549C1025.25 14.725 1025.03 15 1024.88 15.374C1024.73 15.726 1024.65 16.188 1024.65 16.76V26H1018.94V16.76C1018.94 15.968 1018.81 15.363 1018.54 14.945C1018.3 14.505 1017.88 14.285 1017.29 14.285C1016.94 14.285 1016.62 14.373 1016.33 14.549C1016.05 14.725 1015.83 15 1015.67 15.374C1015.52 15.726 1015.44 16.188 1015.44 16.76V26H1010V10.82H1015.44V13.097C1015.86 12.283 1016.43 11.645 1017.16 11.183C1017.91 10.699 1018.82 10.457 1019.9 10.457C1021.11 10.457 1022.05 10.666 1022.73 11.084C1023.42 11.48 1023.91 12.074 1024.22 12.866C1024.79 12.118 1025.48 11.535 1026.3 11.117C1027.13 10.677 1028.07 10.457 1029.1 10.457C1030.34 10.457 1031.29 10.688 1031.97 11.15C1032.66 11.59 1033.14 12.239 1033.43 13.097C1033.71 13.933 1033.86 14.956 1033.86 16.166Z" fill="url(#paint0_linear_17_188)"/>
<defs>
<linearGradient id="paint0_linear_17_188" x1="37.1718" y1="18.3488" x2="911.863" y2="270.121" gradientUnits="userSpaceOnUse">
<stop stop-color="#F25D44"/>
<stop offset="1" stop-color="#E1A629"/>
</linearGradient>
</defs>
</svg>
