<svg width="372" height="82" viewBox="0 0 372 82" fill="none" xmlns="http://www.w3.org/2000/svg">
<path d="M7.55098 14.45C7.55098 15.682 7.79298 16.782 8.27698 17.75C8.76098 18.696 9.44298 19.444 10.323 19.994C11.203 20.522 12.237 20.786 13.425 20.786C14.635 20.786 15.669 20.522 16.527 19.994C17.407 19.444 18.089 18.696 18.573 17.75C19.057 16.782 19.299 15.682 19.299 14.45C19.299 13.196 19.068 12.096 18.606 11.15C18.144 10.204 17.473 9.467 16.593 8.939C15.735 8.389 14.679 8.114 13.425 8.114C12.237 8.114 11.203 8.389 10.323 8.939C9.44298 9.467 8.76098 10.204 8.27698 11.15C7.79298 12.096 7.55098 13.196 7.55098 14.45ZM0.785981 14.45C0.785981 12.624 1.10498 10.974 1.74298 9.5C2.40298 8.004 3.30498 6.728 4.44898 5.672C5.59298 4.594 6.92398 3.769 8.44198 3.197C9.98198 2.603 11.643 2.306 13.425 2.306C15.251 2.306 16.923 2.603 18.441 3.197C19.981 3.769 21.323 4.594 22.467 5.672C23.611 6.728 24.491 8.004 25.107 9.5C25.745 10.974 26.064 12.624 26.064 14.45C26.064 16.254 25.756 17.915 25.14 19.433C24.524 20.951 23.655 22.271 22.533 23.393C21.411 24.493 20.069 25.351 18.507 25.967C16.967 26.561 15.273 26.858 13.425 26.858C11.577 26.858 9.88298 26.561 8.34298 25.967C6.80298 25.351 5.46098 24.493 4.31698 23.393C3.19498 22.271 2.32598 20.951 1.70998 19.433C1.09398 17.915 0.785981 16.254 0.785981 14.45ZM34.9106 20.06C34.9106 20.852 35.0426 21.468 35.3066 21.908C35.5706 22.326 36.0656 22.535 36.7916 22.535C37.2756 22.535 37.6826 22.447 38.0126 22.271C38.3426 22.095 38.5956 21.82 38.7716 21.446C38.9696 21.072 39.0686 20.61 39.0686 20.06V10.82H44.7776V26H39.0686V23.756C38.6286 24.548 38.0236 25.186 37.2536 25.67C36.5056 26.132 35.5596 26.363 34.4156 26.363C32.4356 26.363 31.0276 25.868 30.1916 24.878C29.3556 23.866 28.9376 22.458 28.9376 20.654V10.82H34.9106V20.06ZM53.9794 10.82V26H48.4024V10.82H53.9794ZM58.3024 16.661C58.0604 16.397 57.7854 16.188 57.4774 16.034C57.1914 15.858 56.8284 15.77 56.3884 15.77C55.9484 15.77 55.5414 15.891 55.1674 16.133C54.7934 16.375 54.4964 16.738 54.2764 17.222C54.0784 17.706 53.9794 18.311 53.9794 19.037L52.7914 16.76C52.7914 15.55 53.0334 14.472 53.5174 13.526C54.0014 12.58 54.6394 11.832 55.4314 11.282C56.2454 10.71 57.0924 10.424 57.9724 10.424C58.5224 10.424 59.0504 10.556 59.5564 10.82C60.0624 11.062 60.4364 11.37 60.6784 11.744L58.3024 16.661ZM96.3991 16.166V26H90.6901V16.76C90.6901 15.968 90.5581 15.363 90.2941 14.945C90.0521 14.505 89.6341 14.285 89.0401 14.285C88.6881 14.285 88.3691 14.373 88.0831 14.549C87.7971 14.725 87.5771 15 87.4231 15.374C87.2691 15.726 87.1921 16.188 87.1921 16.76V26H81.4831V16.76C81.4831 15.968 81.3511 15.363 81.0871 14.945C80.8451 14.505 80.4271 14.285 79.8331 14.285C79.4811 14.285 79.1621 14.373 78.8761 14.549C78.5901 14.725 78.3701 15 78.2161 15.374C78.0621 15.726 77.9851 16.188 77.9851 16.76V26H72.5401V10.82H77.9851V13.097C78.4031 12.283 78.9751 11.645 79.7011 11.183C80.4491 10.699 81.3621 10.457 82.4401 10.457C83.6501 10.457 84.5961 10.666 85.2781 11.084C85.9601 11.48 86.4551 12.074 86.7631 12.866C87.3351 12.118 88.0281 11.535 88.8421 11.117C89.6781 10.677 90.6131 10.457 91.6471 10.457C92.8791 10.457 93.8361 10.688 94.5181 11.15C95.2001 11.59 95.6841 12.239 95.9701 13.097C96.2561 13.933 96.3991 14.956 96.3991 16.166ZM99.2051 18.41C99.2051 16.782 99.5901 15.374 100.36 14.186C101.13 12.998 102.186 12.085 103.528 11.447C104.892 10.787 106.421 10.457 108.115 10.457C109.831 10.457 111.36 10.787 112.702 11.447C114.044 12.085 115.1 12.998 115.87 14.186C116.662 15.374 117.058 16.782 117.058 18.41C117.058 20.016 116.662 21.413 115.87 22.601C115.1 23.789 114.044 24.713 112.702 25.373C111.36 26.011 109.831 26.33 108.115 26.33C106.421 26.33 104.892 26.011 103.528 25.373C102.186 24.713 101.13 23.789 100.36 22.601C99.5901 21.413 99.2051 20.016 99.2051 18.41ZM105.079 18.41C105.079 19.114 105.211 19.719 105.475 20.225C105.761 20.709 106.135 21.083 106.597 21.347C107.059 21.589 107.565 21.71 108.115 21.71C108.665 21.71 109.171 21.589 109.633 21.347C110.095 21.083 110.469 20.709 110.755 20.225C111.041 19.719 111.184 19.114 111.184 18.41C111.184 17.706 111.041 17.112 110.755 16.628C110.469 16.122 110.095 15.737 109.633 15.473C109.171 15.209 108.665 15.077 108.115 15.077C107.565 15.077 107.059 15.209 106.597 15.473C106.135 15.737 105.761 16.122 105.475 16.628C105.211 17.112 105.079 17.706 105.079 18.41ZM131.398 0.259999H137.107V26H131.398V0.259999ZM119.089 18.41C119.089 16.672 119.43 15.22 120.112 14.054C120.816 12.888 121.707 12.008 122.785 11.414C123.885 10.798 125.029 10.49 126.217 10.49C127.493 10.49 128.626 10.809 129.616 11.447C130.606 12.085 131.387 12.998 131.959 14.186C132.553 15.352 132.85 16.76 132.85 18.41C132.85 20.038 132.553 21.446 131.959 22.634C131.387 23.822 130.606 24.735 129.616 25.373C128.626 26.011 127.493 26.33 126.217 26.33C125.029 26.33 123.885 26.033 122.785 25.439C121.707 24.823 120.816 23.932 120.112 22.766C119.43 21.578 119.089 20.126 119.089 18.41ZM125.095 18.41C125.095 19.07 125.238 19.664 125.524 20.192C125.81 20.72 126.195 21.127 126.679 21.413C127.163 21.699 127.691 21.842 128.263 21.842C128.769 21.842 129.264 21.71 129.748 21.446C130.232 21.16 130.628 20.764 130.936 20.258C131.244 19.752 131.398 19.136 131.398 18.41C131.398 17.684 131.244 17.068 130.936 16.562C130.628 16.056 130.232 15.671 129.748 15.407C129.264 15.121 128.769 14.978 128.263 14.978C127.691 14.978 127.163 15.121 126.679 15.407C126.195 15.693 125.81 16.1 125.524 16.628C125.238 17.134 125.095 17.728 125.095 18.41ZM148.949 26.33C147.079 26.33 145.462 26.011 144.098 25.373C142.756 24.713 141.722 23.8 140.996 22.634C140.27 21.446 139.907 20.038 139.907 18.41C139.907 16.76 140.259 15.352 140.963 14.186C141.667 12.998 142.679 12.085 143.999 11.447C145.319 10.809 146.903 10.49 148.751 10.49C150.599 10.49 152.15 10.787 153.404 11.381C154.658 11.975 155.615 12.844 156.275 13.988C156.935 15.11 157.265 16.496 157.265 18.146C157.265 18.41 157.254 18.674 157.232 18.938C157.232 19.18 157.221 19.4 157.199 19.598H143.042V16.661H151.985L150.764 18.179C150.874 18.003 150.973 17.805 151.061 17.585C151.149 17.365 151.193 17.178 151.193 17.024C151.193 16.408 151.083 15.891 150.863 15.473C150.665 15.033 150.368 14.703 149.972 14.483C149.598 14.241 149.147 14.12 148.619 14.12C147.959 14.12 147.409 14.274 146.969 14.582C146.529 14.89 146.199 15.363 145.979 16.001C145.759 16.617 145.649 17.409 145.649 18.377C145.627 19.235 145.737 19.961 145.979 20.555C146.221 21.149 146.573 21.611 147.035 21.941C147.497 22.249 148.069 22.403 148.751 22.403C149.587 22.403 150.291 22.26 150.863 21.974C151.457 21.666 151.919 21.226 152.249 20.654L157.397 21.677C156.583 23.239 155.472 24.405 154.064 25.175C152.678 25.945 150.973 26.33 148.949 26.33ZM160.196 0.259999H165.905V26H160.196V0.259999ZM179.007 5.309C179.007 4.429 179.315 3.714 179.931 3.164C180.569 2.614 181.328 2.339 182.208 2.339C183.11 2.339 183.869 2.614 184.485 3.164C185.123 3.714 185.442 4.429 185.442 5.309C185.442 6.167 185.123 6.871 184.485 7.421C183.869 7.971 183.11 8.246 182.208 8.246C181.328 8.246 180.569 7.971 179.931 7.421C179.315 6.871 179.007 6.167 179.007 5.309ZM179.469 10.82H184.947V26H179.469V10.82ZM189.543 20.225C190.467 20.929 191.27 21.457 191.952 21.809C192.634 22.161 193.217 22.392 193.701 22.502C194.185 22.612 194.559 22.667 194.823 22.667C195.241 22.667 195.549 22.579 195.747 22.403C195.945 22.227 196.044 21.985 196.044 21.677C196.044 21.413 195.956 21.193 195.78 21.017C195.626 20.819 195.318 20.621 194.856 20.423C194.416 20.225 193.756 19.983 192.876 19.697C192.15 19.455 191.457 19.158 190.797 18.806C190.137 18.432 189.598 17.937 189.18 17.321C188.784 16.683 188.586 15.869 188.586 14.879C188.586 13.933 188.839 13.141 189.345 12.503C189.851 11.843 190.544 11.348 191.424 11.018C192.304 10.666 193.327 10.49 194.493 10.49C195.395 10.49 196.231 10.589 197.001 10.787C197.793 10.963 198.541 11.205 199.245 11.513C199.949 11.799 200.642 12.14 201.324 12.536L199.641 16.331C198.937 15.715 198.145 15.22 197.265 14.846C196.407 14.45 195.648 14.252 194.988 14.252C194.57 14.252 194.262 14.329 194.064 14.483C193.888 14.637 193.8 14.824 193.8 15.044C193.8 15.352 193.932 15.605 194.196 15.803C194.46 15.979 194.856 16.155 195.384 16.331C195.912 16.507 196.583 16.749 197.397 17.057C198.167 17.343 198.871 17.673 199.509 18.047C200.169 18.399 200.697 18.861 201.093 19.433C201.511 20.005 201.72 20.764 201.72 21.71C201.72 23.426 201.203 24.691 200.169 25.505C199.157 26.319 197.716 26.726 195.846 26.726C194.724 26.726 193.668 26.616 192.678 26.396C191.71 26.176 190.797 25.868 189.939 25.472C189.081 25.076 188.256 24.625 187.464 24.119L189.543 20.225ZM219.193 18.41C219.193 19.136 219.358 19.763 219.688 20.291C220.018 20.819 220.469 21.226 221.041 21.512C221.613 21.776 222.229 21.908 222.889 21.908C223.439 21.908 223.978 21.831 224.506 21.677C225.034 21.523 225.518 21.292 225.958 20.984C226.42 20.654 226.805 20.258 227.113 19.796V25.142C226.585 25.472 225.958 25.758 225.232 26C224.506 26.22 223.549 26.33 222.361 26.33C220.623 26.33 219.072 26.011 217.708 25.373C216.344 24.713 215.266 23.789 214.474 22.601C213.704 21.413 213.319 20.016 213.319 18.41C213.319 16.782 213.704 15.385 214.474 14.219C215.266 13.031 216.344 12.118 217.708 11.48C219.072 10.82 220.623 10.49 222.361 10.49C223.549 10.49 224.506 10.611 225.232 10.853C225.958 11.073 226.585 11.337 227.113 11.645V16.991C226.805 16.507 226.398 16.111 225.892 15.803C225.408 15.495 224.902 15.275 224.374 15.143C223.846 14.989 223.351 14.912 222.889 14.912C222.229 14.912 221.613 15.066 221.041 15.374C220.469 15.682 220.018 16.1 219.688 16.628C219.358 17.156 219.193 17.75 219.193 18.41ZM229.787 18.41C229.787 16.782 230.172 15.374 230.942 14.186C231.712 12.998 232.768 12.085 234.11 11.447C235.474 10.787 237.003 10.457 238.697 10.457C240.413 10.457 241.942 10.787 243.284 11.447C244.626 12.085 245.682 12.998 246.452 14.186C247.244 15.374 247.64 16.782 247.64 18.41C247.64 20.016 247.244 21.413 246.452 22.601C245.682 23.789 244.626 24.713 243.284 25.373C241.942 26.011 240.413 26.33 238.697 26.33C237.003 26.33 235.474 26.011 234.11 25.373C232.768 24.713 231.712 23.789 230.942 22.601C230.172 21.413 229.787 20.016 229.787 18.41ZM235.661 18.41C235.661 19.114 235.793 19.719 236.057 20.225C236.343 20.709 236.717 21.083 237.179 21.347C237.641 21.589 238.147 21.71 238.697 21.71C239.247 21.71 239.753 21.589 240.215 21.347C240.677 21.083 241.051 20.709 241.337 20.225C241.623 19.719 241.766 19.114 241.766 18.41C241.766 17.706 241.623 17.112 241.337 16.628C241.051 16.122 240.677 15.737 240.215 15.473C239.753 15.209 239.247 15.077 238.697 15.077C238.147 15.077 237.641 15.209 237.179 15.473C236.717 15.737 236.343 16.122 236.057 16.628C235.793 17.112 235.661 17.706 235.661 18.41ZM260.33 16.76C260.33 15.968 260.198 15.363 259.934 14.945C259.67 14.505 259.164 14.285 258.416 14.285C257.976 14.285 257.58 14.373 257.228 14.549C256.898 14.725 256.634 15 256.436 15.374C256.26 15.748 256.172 16.21 256.172 16.76V26H250.463V10.82H256.172V13.064C256.59 12.272 257.173 11.645 257.921 11.183C258.691 10.699 259.659 10.457 260.825 10.457C262.805 10.457 264.213 10.963 265.049 11.975C265.885 12.965 266.303 14.362 266.303 16.166V26H260.33V16.76ZM270.786 20.225C271.71 20.929 272.513 21.457 273.195 21.809C273.877 22.161 274.46 22.392 274.944 22.502C275.428 22.612 275.802 22.667 276.066 22.667C276.484 22.667 276.792 22.579 276.99 22.403C277.188 22.227 277.287 21.985 277.287 21.677C277.287 21.413 277.199 21.193 277.023 21.017C276.869 20.819 276.561 20.621 276.099 20.423C275.659 20.225 274.999 19.983 274.119 19.697C273.393 19.455 272.7 19.158 272.04 18.806C271.38 18.432 270.841 17.937 270.423 17.321C270.027 16.683 269.829 15.869 269.829 14.879C269.829 13.933 270.082 13.141 270.588 12.503C271.094 11.843 271.787 11.348 272.667 11.018C273.547 10.666 274.57 10.49 275.736 10.49C276.638 10.49 277.474 10.589 278.244 10.787C279.036 10.963 279.784 11.205 280.488 11.513C281.192 11.799 281.885 12.14 282.567 12.536L280.884 16.331C280.18 15.715 279.388 15.22 278.508 14.846C277.65 14.45 276.891 14.252 276.231 14.252C275.813 14.252 275.505 14.329 275.307 14.483C275.131 14.637 275.043 14.824 275.043 15.044C275.043 15.352 275.175 15.605 275.439 15.803C275.703 15.979 276.099 16.155 276.627 16.331C277.155 16.507 277.826 16.749 278.64 17.057C279.41 17.343 280.114 17.673 280.752 18.047C281.412 18.399 281.94 18.861 282.336 19.433C282.754 20.005 282.963 20.764 282.963 21.71C282.963 23.426 282.446 24.691 281.412 25.505C280.4 26.319 278.959 26.726 277.089 26.726C275.967 26.726 274.911 26.616 273.921 26.396C272.953 26.176 272.04 25.868 271.182 25.472C270.324 25.076 269.499 24.625 268.707 24.119L270.786 20.225ZM283.843 10.82H294.766V15.44H283.843V10.82ZM286.582 5.54H292.027V26H286.582V5.54ZM301.393 21.248C301.393 21.578 301.47 21.864 301.624 22.106C301.8 22.326 302.031 22.502 302.317 22.634C302.603 22.744 302.911 22.799 303.241 22.799C303.725 22.799 304.187 22.7 304.627 22.502C305.067 22.282 305.419 21.952 305.683 21.512C305.969 21.05 306.112 20.478 306.112 19.796L306.64 21.776C306.64 22.744 306.387 23.569 305.881 24.251C305.397 24.933 304.726 25.45 303.868 25.802C303.032 26.154 302.108 26.33 301.096 26.33C300.128 26.33 299.226 26.154 298.39 25.802C297.576 25.428 296.916 24.889 296.41 24.185C295.904 23.459 295.651 22.579 295.651 21.545C295.651 20.093 296.157 18.949 297.169 18.113C298.203 17.277 299.688 16.859 301.624 16.859C302.46 16.859 303.241 16.936 303.967 17.09C304.715 17.244 305.364 17.453 305.914 17.717C306.486 17.959 306.915 18.234 307.201 18.542V20.951C306.761 20.577 306.211 20.291 305.551 20.093C304.891 19.895 304.198 19.796 303.472 19.796C302.966 19.796 302.559 19.851 302.251 19.961C301.943 20.071 301.723 20.236 301.591 20.456C301.459 20.654 301.393 20.918 301.393 21.248ZM298.621 15.803L296.806 12.074C297.774 11.656 298.885 11.271 300.139 10.919C301.415 10.545 302.768 10.358 304.198 10.358C305.584 10.358 306.827 10.556 307.927 10.952C309.049 11.326 309.929 11.887 310.567 12.635C311.227 13.383 311.557 14.296 311.557 15.374V26H306.112V16.727C306.112 16.397 306.057 16.1 305.947 15.836C305.859 15.572 305.705 15.352 305.485 15.176C305.265 14.978 304.979 14.835 304.627 14.747C304.275 14.637 303.868 14.582 303.406 14.582C302.768 14.582 302.108 14.659 301.426 14.813C300.766 14.967 300.183 15.143 299.677 15.341C299.171 15.539 298.819 15.693 298.621 15.803ZM324.944 16.76C324.944 15.968 324.812 15.363 324.548 14.945C324.284 14.505 323.778 14.285 323.03 14.285C322.59 14.285 322.194 14.373 321.842 14.549C321.512 14.725 321.248 15 321.05 15.374C320.874 15.748 320.786 16.21 320.786 16.76V26H315.077V10.82H320.786V13.064C321.204 12.272 321.787 11.645 322.535 11.183C323.305 10.699 324.273 10.457 325.439 10.457C327.419 10.457 328.827 10.963 329.663 11.975C330.499 12.965 330.917 14.362 330.917 16.166V26H324.944V16.76ZM332.892 10.82H343.815V15.44H332.892V10.82ZM335.631 5.54H341.076V26H335.631V5.54ZM345.789 0.259999H351.498V26H345.789V0.259999ZM371.669 10.82L361.769 33.26H356.126L359.69 25.043L352.892 10.82H359.096L364.013 23.096L361.01 23.063L365.894 10.82H371.669ZM128.824 74.33C126.954 74.33 125.337 74.011 123.973 73.373C122.631 72.713 121.597 71.8 120.871 70.634C120.145 69.446 119.782 68.038 119.782 66.41C119.782 64.76 120.134 63.352 120.838 62.186C121.542 60.998 122.554 60.085 123.874 59.447C125.194 58.809 126.778 58.49 128.626 58.49C130.474 58.49 132.025 58.787 133.279 59.381C134.533 59.975 135.49 60.844 136.15 61.988C136.81 63.11 137.14 64.496 137.14 66.146C137.14 66.41 137.129 66.674 137.107 66.938C137.107 67.18 137.096 67.4 137.074 67.598H122.917V64.661H131.86L130.639 66.179C130.749 66.003 130.848 65.805 130.936 65.585C131.024 65.365 131.068 65.178 131.068 65.024C131.068 64.408 130.958 63.891 130.738 63.473C130.54 63.033 130.243 62.703 129.847 62.483C129.473 62.241 129.022 62.12 128.494 62.12C127.834 62.12 127.284 62.274 126.844 62.582C126.404 62.89 126.074 63.363 125.854 64.001C125.634 64.617 125.524 65.409 125.524 66.377C125.502 67.235 125.612 67.961 125.854 68.555C126.096 69.149 126.448 69.611 126.91 69.941C127.372 70.249 127.944 70.403 128.626 70.403C129.462 70.403 130.166 70.26 130.738 69.974C131.332 69.666 131.794 69.226 132.124 68.654L137.272 69.677C136.458 71.239 135.347 72.405 133.939 73.175C132.553 73.945 130.848 74.33 128.824 74.33ZM137.64 58.82H143.679L146.913 66.575L150.114 58.82H156.153L146.913 75.947L137.64 58.82ZM156.552 66.41C156.552 64.782 156.937 63.374 157.707 62.186C158.477 60.998 159.533 60.085 160.875 59.447C162.239 58.787 163.768 58.457 165.462 58.457C167.178 58.457 168.707 58.787 170.049 59.447C171.391 60.085 172.447 60.998 173.217 62.186C174.009 63.374 174.405 64.782 174.405 66.41C174.405 68.016 174.009 69.413 173.217 70.601C172.447 71.789 171.391 72.713 170.049 73.373C168.707 74.011 167.178 74.33 165.462 74.33C163.768 74.33 162.239 74.011 160.875 73.373C159.533 72.713 158.477 71.789 157.707 70.601C156.937 69.413 156.552 68.016 156.552 66.41ZM162.426 66.41C162.426 67.114 162.558 67.719 162.822 68.225C163.108 68.709 163.482 69.083 163.944 69.347C164.406 69.589 164.912 69.71 165.462 69.71C166.012 69.71 166.518 69.589 166.98 69.347C167.442 69.083 167.816 68.709 168.102 68.225C168.388 67.719 168.531 67.114 168.531 66.41C168.531 65.706 168.388 65.112 168.102 64.628C167.816 64.122 167.442 63.737 166.98 63.473C166.518 63.209 166.012 63.077 165.462 63.077C164.912 63.077 164.406 63.209 163.944 63.473C163.482 63.737 163.108 64.122 162.822 64.628C162.558 65.112 162.426 65.706 162.426 66.41ZM177.228 48.26H182.937V74H177.228V48.26ZM184.595 58.82H190.634L193.868 66.575L197.069 58.82H203.108L193.868 75.947L184.595 58.82ZM204.386 53.309C204.386 52.429 204.694 51.714 205.31 51.164C205.948 50.614 206.707 50.339 207.587 50.339C208.489 50.339 209.248 50.614 209.864 51.164C210.502 51.714 210.821 52.429 210.821 53.309C210.821 54.167 210.502 54.871 209.864 55.421C209.248 55.971 208.489 56.246 207.587 56.246C206.707 56.246 205.948 55.971 205.31 55.421C204.694 54.871 204.386 54.167 204.386 53.309ZM204.848 58.82H210.326V74H204.848V58.82ZM223.93 64.76C223.93 63.968 223.798 63.363 223.534 62.945C223.27 62.505 222.764 62.285 222.016 62.285C221.576 62.285 221.18 62.373 220.828 62.549C220.498 62.725 220.234 63 220.036 63.374C219.86 63.748 219.772 64.21 219.772 64.76V74H214.063V58.82H219.772V61.064C220.19 60.272 220.773 59.645 221.521 59.183C222.291 58.699 223.259 58.457 224.425 58.457C226.405 58.457 227.813 58.963 228.649 59.975C229.485 60.965 229.903 62.362 229.903 64.166V74H223.93V64.76ZM233.066 75.122H238.544C238.632 75.716 238.808 76.189 239.072 76.541C239.336 76.893 239.688 77.146 240.128 77.3C240.568 77.454 241.052 77.531 241.58 77.531C242.262 77.531 242.856 77.377 243.362 77.069C243.89 76.783 244.297 76.354 244.583 75.782C244.891 75.21 245.045 74.506 245.045 73.67V58.82H250.49V73.67C250.49 75.672 250.105 77.278 249.335 78.488C248.565 79.72 247.531 80.611 246.233 81.161C244.957 81.711 243.505 81.986 241.877 81.986C239.853 81.986 238.225 81.7 236.993 81.128C235.761 80.556 234.837 79.742 234.221 78.686C233.605 77.652 233.22 76.464 233.066 75.122ZM232.736 66.146C232.736 64.408 233.077 62.978 233.759 61.856C234.463 60.734 235.354 59.898 236.432 59.348C237.532 58.776 238.676 58.49 239.864 58.49C241.14 58.49 242.273 58.787 243.263 59.381C244.253 59.975 245.034 60.844 245.606 61.988C246.2 63.11 246.497 64.496 246.497 66.146C246.497 67.774 246.2 69.16 245.606 70.304C245.034 71.448 244.253 72.317 243.263 72.911C242.273 73.505 241.14 73.802 239.864 73.802C238.676 73.802 237.532 73.527 236.432 72.977C235.354 72.405 234.463 71.558 233.759 70.436C233.077 69.292 232.736 67.862 232.736 66.146ZM238.742 66.146C238.742 66.806 238.885 67.378 239.171 67.862C239.457 68.346 239.842 68.709 240.326 68.951C240.81 69.193 241.338 69.314 241.91 69.314C242.416 69.314 242.911 69.204 243.395 68.984C243.879 68.742 244.275 68.39 244.583 67.928C244.891 67.466 245.045 66.872 245.045 66.146C245.045 65.596 244.957 65.123 244.781 64.727C244.605 64.331 244.363 64.001 244.055 63.737C243.747 63.473 243.406 63.286 243.032 63.176C242.658 63.044 242.284 62.978 241.91 62.978C241.338 62.978 240.81 63.099 240.326 63.341C239.842 63.583 239.457 63.946 239.171 64.43C238.885 64.892 238.742 65.464 238.742 66.146Z" fill="url(#paint0_linear_103_3)"/>
<defs>
<linearGradient id="paint0_linear_103_3" x1="3.46626" y1="45.6977" x2="361.355" y2="65.2178" gradientUnits="userSpaceOnUse">
<stop stop-color="#F25D44"/>
<stop offset="1" stop-color="#E1A629"/>
</linearGradient>
</defs>
</svg>
